<?xml version="1.0" encoding="UTF-8"?>
<svg version="1.1" xmlns="http://www.w3.org/2000/svg" width="529" height="525">
<path d="M0 0 C2.94789849 0.01611407 5.89442686 0.00000699 8.84228516 -0.01904297 C71.52087206 -0.0884825 132.83420629 24.95725774 178.95166016 67.11767578 C180.58938082 68.60930869 182.24270813 70.08402109 183.91259766 71.53955078 C195.12506182 81.35267108 204.50002944 92.52772723 213.44775391 104.39111328 C213.86911621 104.94492676 214.29047852 105.49874023 214.72460938 106.06933594 C255.3018923 159.73402055 272.29904145 229.73630148 263.85839844 296.17944336 C257.11374992 344.07246315 238.61940002 388.52865541 208.44775391 426.39111328 C207.98997559 426.96603516 207.53219727 427.54095703 207.06054688 428.13330078 C195.19271717 442.85466724 181.60866589 457.0533878 166.44775391 468.39111328 C165.36167234 469.22946835 164.27574469 470.06802283 163.18994141 470.90673828 C117.15273005 505.994799 61.63332297 524.59795305 3.82275391 524.64111328 C3.00650543 524.64178802 2.19025696 524.64246277 1.34927368 524.64315796 C-12.80185071 524.62467376 -26.58096582 523.76971064 -40.55224609 521.39111328 C-41.98455566 521.15763184 -41.98455566 521.15763184 -43.44580078 520.91943359 C-91.38650774 512.86230706 -136.41586807 490.25814024 -172.20068359 457.52001953 C-174.19684072 455.71286731 -176.23300974 453.98754182 -178.30224609 452.26611328 C-225.21618146 411.22826679 -253.30736096 346.64252622 -258.55224609 285.39111328 C-258.70214682 282.0131849 -258.73861112 278.63926562 -258.75537109 275.25830078 C-258.76238541 274.31186203 -258.76939972 273.36542328 -258.77662659 272.39030457 C-258.79405666 269.34885868 -258.80047975 266.30760729 -258.80224609 263.26611328 C-258.80292084 262.2288913 -258.80359558 261.19166931 -258.80429077 260.12301636 C-258.78893433 245.29945791 -258.42507722 230.97404162 -255.55224609 216.39111328 C-255.3965918 215.51293945 -255.2409375 214.63476562 -255.08056641 213.72998047 C-244.30410971 153.09359038 -210.23214502 95.36547427 -161.55224609 57.39111328 C-160.56869141 56.60220703 -159.58513672 55.81330078 -158.57177734 55.00048828 C-113.85822806 19.4421684 -57.08437016 -0.36889651 0 0 Z " fill="#C7D2E4" transform="translate(261.55224609375,-0.39111328125)"/>
<path d="M0 0 C0 0.66 0 1.32 0 2 C0.86625 2.1546875 0.86625 2.1546875 1.75 2.3125 C4.35661158 3.10896465 5.9735311 4.19065277 8 6 C8 6.66 8 7.32 8 8 C8.5983667 8.10417236 9.1967334 8.20834473 9.81323242 8.31567383 C12.34730345 9.108685 13.24717238 9.97564974 14.98828125 11.94921875 C15.80135742 12.85124023 15.80135742 12.85124023 16.63085938 13.77148438 C17.18580078 14.40376953 17.74074219 15.03605469 18.3125 15.6875 C21.59789615 19.39380099 24.83177701 22.94797337 28.6484375 26.1171875 C35.36272059 31.71693507 39.97497118 38.53169766 42 47 C42.99 47.33 43.98 47.66 45 48 C45.94921875 50.28515625 45.94921875 50.28515625 46.6875 53.0625 C46.93886719 53.98160156 47.19023437 54.90070313 47.44921875 55.84765625 C47.63097656 56.55792969 47.81273437 57.26820313 48 58 C48.66 58 49.32 58 50 58 C50.96415769 60.26218228 51.89447866 62.53155336 52.8125 64.8125 C53.20405273 65.71838867 53.20405273 65.71838867 53.60351562 66.64257812 C59.34459178 81.17246222 59.51418877 97.48031564 59.375 112.875 C59.37200897 113.74209595 59.36901794 114.60919189 59.36593628 115.50256348 C59.3077332 129.90575395 58.5743746 143.97997326 55 158 C54.34 158 53.68 158 53 158 C52.9175 158.86625 52.835 159.7325 52.75 160.625 C51.69952939 165.35211773 49.3985223 168.6014777 46 172 C45.01 172 44.02 172 43 172 C43.04640625 172.85335937 43.0928125 173.70671875 43.140625 174.5859375 C44.38359739 217.64605247 27.86843926 263.58278221 1 297 C0.27079346 297.90854736 0.27079346 297.90854736 -0.47314453 298.83544922 C-22.20953541 325.6254979 -51.98954364 344.84455263 -86.69824219 348.7890625 C-117.50396394 351.61215792 -148.12114929 341.91409689 -172.13671875 322.4453125 C-181.69620483 314.28127664 -190.76397507 306.03965392 -198.375 296 C-198.93662842 295.26015869 -199.49825684 294.52031738 -200.0769043 293.75805664 C-205.27609222 286.80227586 -209.83200608 279.61286601 -214 272 C-214.33306152 271.39961914 -214.66612305 270.79923828 -215.00927734 270.18066406 C-230.18741591 242.48592122 -238.60758607 211.05074118 -239.20117188 179.4777832 C-239.36402443 171.83918411 -240.51533745 166.8179152 -245.15625 160.55078125 C-256.07406696 145.44625906 -256.17823325 123.52599613 -256.1875 105.6875 C-256.19974609 104.45837891 -256.21199219 103.22925781 -256.22460938 101.96289062 C-256.23745979 93.84570932 -255.73297436 85.95087035 -254 78 C-253.505 77.505 -253.505 77.505 -253 77 C-252.60545777 75.15400312 -252.25823134 73.29774178 -251.9375 71.4375 C-251.67259766 69.91962891 -251.67259766 69.91962891 -251.40234375 68.37109375 C-251.26957031 67.58863281 -251.13679688 66.80617188 -251 66 C-250.34 66 -249.68 66 -249 66 C-248.67 63.36 -248.34 60.72 -248 58 C-247.34 58 -246.68 58 -246 58 C-245.67 55.69 -245.34 53.38 -245 51 C-244.34 51 -243.68 51 -243 51 C-242.75894531 49.82566406 -242.51789063 48.65132813 -242.26953125 47.44140625 C-241.15071002 43.00221234 -239.28345215 39.67252881 -236.6875 35.9375 C-236.25236084 35.30118652 -235.81722168 34.66487305 -235.36889648 34.00927734 C-223.25116196 16.69215717 -208.4539052 4.6359368 -191 -7 C-189.68 -7 -188.36 -7 -187 -7 C-187 -7.66 -187 -8.32 -187 -9 C-132.9591201 -36.26262059 -49.64372729 -40.30050054 0 0 Z " fill="#F6DDCD" transform="translate(363,124)"/>
<path d="M0 0 C0 0.66 0 1.32 0 2 C0.86625 2.1546875 0.86625 2.1546875 1.75 2.3125 C4.35661158 3.10896465 5.9735311 4.19065277 8 6 C8 6.66 8 7.32 8 8 C8.5983667 8.10417236 9.1967334 8.20834473 9.81323242 8.31567383 C12.34730345 9.108685 13.24717238 9.97564974 14.98828125 11.94921875 C15.80135742 12.85124023 15.80135742 12.85124023 16.63085938 13.77148438 C17.18580078 14.40376953 17.74074219 15.03605469 18.3125 15.6875 C21.59789615 19.39380099 24.83177701 22.94797337 28.6484375 26.1171875 C35.36272059 31.71693507 39.97497118 38.53169766 42 47 C42.99 47.33 43.98 47.66 45 48 C45.94921875 50.28515625 45.94921875 50.28515625 46.6875 53.0625 C46.93886719 53.98160156 47.19023437 54.90070313 47.44921875 55.84765625 C47.63097656 56.55792969 47.81273437 57.26820313 48 58 C48.66 58 49.32 58 50 58 C50.96415769 60.26218228 51.89447866 62.53155336 52.8125 64.8125 C53.20405273 65.71838867 53.20405273 65.71838867 53.60351562 66.64257812 C59.34459178 81.17246222 59.51418877 97.48031564 59.375 112.875 C59.37200897 113.74209595 59.36901794 114.60919189 59.36593628 115.50256348 C59.3077332 129.90575395 58.5743746 143.97997326 55 158 C54.34 158 53.68 158 53 158 C52.9175 158.86625 52.835 159.7325 52.75 160.625 C51.69952939 165.35211773 49.3985223 168.6014777 46 172 C43.125 171.9375 43.125 171.9375 40 171 C36.77459606 167.49357077 34.53824138 163.61860845 32.4375 159.375 C32.10379395 158.70404297 31.77008789 158.03308594 31.42626953 157.34179688 C11 115.21319389 11 115.21319389 11 104 C9.62328125 104.61488281 9.62328125 104.61488281 8.21875 105.2421875 C6.97931194 105.78678907 5.73972025 106.33104111 4.5 106.875 C3.2934375 107.40867188 2.086875 107.94234375 0.84375 108.4921875 C-11.67245466 113.61703347 -27.52292326 114.61944087 -40.1875 109.5 C-48.3883491 105.70530886 -54.71201871 100.38733991 -61 94 C-61.02578125 95.2065625 -61.0515625 96.413125 -61.078125 97.65625 C-61.13444886 99.27086738 -61.1917952 100.88544933 -61.25 102.5 C-61.26417969 103.29148438 -61.27835938 104.08296875 -61.29296875 104.8984375 C-61.52972192 110.67521483 -62.79794581 115.14282748 -66 120 C-69.26965243 122.98939651 -72.71981625 123.76435984 -77.15234375 123.6015625 C-88.53626055 121.1967296 -98.60690395 113.68243974 -107 106 C-107.52674316 105.51998535 -108.05348633 105.0399707 -108.59619141 104.54541016 C-110.77976681 102.55425955 -112.9621478 100.56275953 -115.11816406 98.54174805 C-117.83924047 95.96866621 -117.83924047 95.96866621 -121 94 C-120.9175 95.19625 -120.835 96.3925 -120.75 97.625 C-120.73416505 102.08253875 -122.1340108 104.5439542 -125 108 C-129.15622997 110.07811499 -133.50205742 109.70118042 -138 109 C-150.48518423 104.73781642 -162.48643946 96.33745208 -172.65234375 88.0703125 C-173.52983276 87.36237549 -173.52983276 87.36237549 -174.42504883 86.64013672 C-175.53199868 85.73492741 -176.62529672 84.81267607 -177.7019043 83.87158203 C-179.33478097 82.45904024 -179.33478097 82.45904024 -182 81 C-186.58795838 81.74206481 -189.53809969 85.03504096 -192.6875 88.25 C-193.20932861 88.78012695 -193.73115723 89.31025391 -194.26879883 89.85644531 C-211.90050728 108.24123327 -223.76744344 132.77221377 -229.11328125 157.51953125 C-231.36746988 166.36746988 -231.36746988 166.36746988 -234 169 C-236.83984375 169.359375 -236.83984375 169.359375 -240 169 C-255.38044456 153.27914318 -256.17685003 126.18869071 -256.1875 105.6875 C-256.19974609 104.45837891 -256.21199219 103.22925781 -256.22460938 101.96289062 C-256.23745979 93.84570932 -255.73297436 85.95087035 -254 78 C-253.505 77.505 -253.505 77.505 -253 77 C-252.60545777 75.15400312 -252.25823134 73.29774178 -251.9375 71.4375 C-251.67259766 69.91962891 -251.67259766 69.91962891 -251.40234375 68.37109375 C-251.26957031 67.58863281 -251.13679688 66.80617188 -251 66 C-250.34 66 -249.68 66 -249 66 C-248.67 63.36 -248.34 60.72 -248 58 C-247.34 58 -246.68 58 -246 58 C-245.67 55.69 -245.34 53.38 -245 51 C-244.34 51 -243.68 51 -243 51 C-242.75894531 49.82566406 -242.51789063 48.65132813 -242.26953125 47.44140625 C-241.15071002 43.00221234 -239.28345215 39.67252881 -236.6875 35.9375 C-236.25236084 35.30118652 -235.81722168 34.66487305 -235.36889648 34.00927734 C-223.25116196 16.69215717 -208.4539052 4.6359368 -191 -7 C-189.68 -7 -188.36 -7 -187 -7 C-187 -7.66 -187 -8.32 -187 -9 C-132.9591201 -36.26262059 -49.64372729 -40.30050054 0 0 Z " fill="#FD3233" transform="translate(363,124)"/>
<path d="M0 0 C2.4375 1.1875 2.4375 1.1875 5 3 C6.46900074 3.87153402 7.94931013 4.72415304 9.4375 5.5625 C10.15808594 5.97628906 10.87867188 6.39007813 11.62109375 6.81640625 C22.24251437 12.10095543 37.57986571 11.86249318 48.8125 8.375 C53.31972016 6.57470229 57.04278772 4.01179847 60.9765625 1.20703125 C64.12650804 -0.67199032 66.44309292 -0.60400309 70 0 C73.51732742 1.28517733 75.4770624 2.37247488 77.875 5.25 C79.65531423 9.60187922 79.74547708 13.2020847 77.9375 17.5625 C73.35553908 23.32690244 68.31899935 26.58475599 61.75 29.75 C61.15477539 30.04374512 60.55955078 30.33749023 59.94628906 30.64013672 C43.92753003 38.00229365 21.63852948 37.51865942 5.328125 31.49609375 C0.59437561 29.36812894 -3.76676487 27.00235341 -8 24 C-8.99 23.29875 -9.98 22.5975 -11 21.875 C-13.57533906 19.46061963 -14.76815368 17.34226819 -15.37109375 13.8515625 C-15.4973398 9.61860669 -15.37350209 6.85657778 -12.625 3.5 C-8.6190687 -0.31517267 -5.39934448 -0.57775087 0 0 Z " fill="#C16A50" transform="translate(233,390)"/>
<path d="M0 0 C4.13871043 1.82873251 6.5011591 4.25852196 9 8 C9.51757812 11.31811523 9.51757812 11.31811523 9.53125 15.05859375 C9.5350769 15.72536636 9.53890381 16.39213898 9.54284668 17.07911682 C9.54555756 18.48350543 9.53825396 19.88794523 9.52148438 21.29223633 C9.50009107 23.42840604 9.52129044 25.56120074 9.546875 27.69726562 C9.54423091 29.06771568 9.53910424 30.43816365 9.53125 31.80859375 C9.52673828 33.04407959 9.52222656 34.27956543 9.51757812 35.55249023 C8.90661737 39.62200762 7.53827095 41.79995814 5 45 C1.01370901 47.73120135 -3.33318862 47.67502093 -8 47 C-12.11846069 44.63407578 -13.57977296 42.44497944 -15 38 C-15.36463673 33.69566597 -15.32948969 29.39881294 -15.31567383 25.08007812 C-15.31250912 23.00597796 -15.33601838 20.93329967 -15.36132812 18.859375 C-15.36197266 17.54453125 -15.36261719 16.2296875 -15.36328125 14.875 C-15.36626221 13.67617188 -15.36924316 12.47734375 -15.37231445 11.2421875 C-14.84738421 6.6709917 -13.3107626 4.05589209 -9.75 1.1875 C-6.23330403 -0.33107326 -3.80039173 -0.40718483 0 0 Z " fill="#682315" transform="translate(209,272)"/>
<path d="M0 0 C1.0709919 -0.01354271 1.0709919 -0.01354271 2.16362 -0.02735901 C3.67406019 -0.04185661 5.18456311 -0.05074705 6.69506836 -0.05444336 C8.99376852 -0.06631356 11.28975918 -0.11547202 13.58789062 -0.16601562 C15.05858071 -0.17548378 16.52928722 -0.18271694 18 -0.1875 C19.02218376 -0.21679848 19.02218376 -0.21679848 20.0650177 -0.24668884 C25.65290646 -0.19448418 27.91144754 1.57042556 31.69921875 5.37109375 C33.42384035 8.82033695 33.06531979 12.59240806 32.69921875 16.37109375 C31.48561287 19.22306757 30.61573687 20.75373302 28.05444336 22.47900391 C24.81038303 23.70775859 21.68841911 23.69591836 18.265625 23.70703125 C17.55067368 23.71368805 16.83572235 23.72034485 16.09910583 23.72720337 C14.59042932 23.73730545 13.08170835 23.74202115 11.57299805 23.74169922 C9.27252205 23.74607321 6.97396505 23.78241573 4.67382812 23.8203125 C3.20443361 23.82618122 1.73503003 23.83015025 0.265625 23.83203125 C-0.41785507 23.84640228 -1.10133514 23.86077332 -1.80552673 23.87557983 C-6.5782632 23.83021677 -8.92815047 22.70429453 -12.30078125 19.37109375 C-14.82559279 15.88444924 -14.73552147 12.57358257 -14.30078125 8.37109375 C-10.61170941 1.62899693 -7.41468822 0.05783434 0 0 Z " fill="#C1694F" transform="translate(255.30078125,342.62890625)"/>
<path d="M0 0 C3.02089981 1.7475743 5.41608883 3.83217766 7 7 C7.11074254 9.43410239 7.16409243 11.83872076 7.16796875 14.2734375 C7.17129715 14.99359039 7.17462555 15.71374329 7.17805481 16.45571899 C7.1831205 17.98056397 7.18546325 19.50542005 7.18530273 21.03027344 C7.18748492 23.35891101 7.20563196 25.68707155 7.22460938 28.015625 C7.22754427 29.49739421 7.22952842 30.97916568 7.23046875 32.4609375 C7.23765427 33.15585297 7.24483978 33.85076843 7.25224304 34.56674194 C7.23511222 38.20784031 7.07634772 40.94801902 5 44 C1.324673 47.11845928 -2.10772799 47.57000984 -6.77734375 47.4296875 C-10.58350909 46.69387346 -12.35670706 44.77545759 -15 42 C-17.23395134 37.53209732 -16.268581 31.47443513 -16.29516602 26.50683594 C-16.31232983 24.27215531 -16.35620843 22.03897379 -16.40039062 19.8046875 C-16.41052243 18.37501085 -16.41903701 16.94532164 -16.42578125 15.515625 C-16.44765503 13.57091309 -16.44765503 13.57091309 -16.4699707 11.58691406 C-15.85287179 6.8770869 -14.01004596 3.57932183 -10.25 0.625 C-6.77005671 -0.34165091 -3.536152 -0.68551123 0 0 Z " fill="#662214" transform="translate(328,272)"/>
<path d="M0 0 C2.45636081 2.07255443 2.88864581 3.36369034 3.4375 6.5 C2.84278924 9.89834723 1.79734842 11.01241034 -1 13 C-4.6717087 13.61195145 -6.28813568 13.48706506 -9.375 11.375 C-11.46379841 8.32214079 -11.54068562 6.63031776 -11 3 C-8.79421039 -1.13585552 -4.13903549 -0.77606915 0 0 Z " fill="#FE9796" transform="translate(334,384)"/>
<path d="M0 0 C2.375 1.625 2.375 1.625 4 4 C4.60975382 7.65852292 4.44543026 9.30512879 2.4375 12.4375 C0 14 0 14 -3.625 13.875 C-7 13 -7 13 -9 11 C-9.55641422 3.98918083 -9.55641422 3.98918083 -7.875 1 C-5.05480125 -0.504106 -3.14389944 -0.44912849 0 0 Z " fill="#FE9796" transform="translate(364,370)"/>
<path d="M0 0 C3.125 0.375 3.125 0.375 6 1 C6.625 3.875 6.625 3.875 7 7 C5 9 5 9 2 9.3125 C1.01 9.209375 0.02 9.10625 -1 9 C-3 6 -3 6 -2.75 3.9375 C-2 2 -2 2 0 0 Z " fill="#FE9A98" transform="translate(330,361)"/>
<path d="M0 0 C3.125 0.375 3.125 0.375 6 1 C6.625 3.3125 6.625 3.3125 7 6 C6.01 7.485 6.01 7.485 5 9 C2 9.375 2 9.375 -1 9 C-3 6 -3 6 -2.75 3.9375 C-2 2 -2 2 0 0 Z " fill="#FE9998" transform="translate(348,388)"/>
</svg>
