<?xml version="1.0" encoding="UTF-8"?>
<svg version="1.1" xmlns="http://www.w3.org/2000/svg" width="126" height="126">
<path d="M0 0 C41.58 0 83.16 0 126 0 C126 41.58 126 83.16 126 126 C84.42 126 42.84 126 0 126 C0 84.42 0 42.84 0 0 Z " fill="#C7D2E4" transform="translate(0,0)"/>
<path d="M0 0 C18.48 0 36.96 0 56 0 C56 41.58 56 83.16 56 126 C14.42 126 -27.16 126 -70 126 C-70 110.49 -70 94.98 -70 79 C-68.75971645 81.4805671 -67.55450993 83.97942302 -66.40625 86.50390625 C-58.56453628 103.42088515 -47.89267073 113.10322946 -30.8984375 120.95703125 C-14.83499996 126.7372709 2.69505974 125.37952606 17.99731445 118.33447266 C33.51555674 110.88073058 43.84217431 98.89456423 50.25 82.875 C54.65422721 65.99212903 53.7950969 47.18164296 45.28515625 31.92578125 C43.62081218 29.19800508 41.86455698 26.59378653 40 24 C38.9171875 22.453125 38.9171875 22.453125 37.8125 20.875 C27.79870018 9.58493158 14.26440754 4.45378371 0 1 C0 0.67 0 0.34 0 0 Z " fill="#FDFEFE" transform="translate(70,0)"/>
<path d="M0 0 C5.19849463 2.95703844 9.65266885 7.80032939 11.75 13.4375 C12.61360538 22.6917134 12.97800969 31.23566122 7.99609375 39.37890625 C6.23481635 42.28860277 5.53677574 45.1473469 4.75 48.4375 C5.74 48.5303125 5.74 48.5303125 6.75 48.625 C14.9049594 50.83363484 20.99735267 56.6239702 25.75 63.4375 C28.91606688 69.76963377 29.75 74.24561677 29.75 81.4375 C15.89 81.4375 2.03 81.4375 -12.25 81.4375 C-12.25 79.4575 -12.25 77.4775 -12.25 75.4375 C-11.425 75.6025 -10.6 75.7675 -9.75 75.9375 C-2.42641024 76.98568766 -2.42641024 76.98568766 4.625 75.125 C7.11084617 73.15094569 8.5793008 71.51528679 9.0859375 68.31640625 C9.19227312 63.39248954 9.19227312 63.39248954 7.1875 59 C4.16320976 57.06135241 1.22325887 56.28943142 -2.25 55.4375 C-3.83004353 53.85745647 -3.45093762 52.1906482 -3.53125 50 C-3.56863281 49.10539062 -3.60601562 48.21078125 -3.64453125 47.2890625 C-3.71484375 45.38802083 -3.78515625 43.48697917 -3.85546875 41.5859375 C-3.89285156 40.69132812 -3.93023437 39.79671875 -3.96875 38.875 C-3.99904297 38.04871094 -4.02933594 37.22242188 -4.06054688 36.37109375 C-4.04401659 34.43188844 -4.04401659 34.43188844 -5.25 33.4375 C-7.02869726 33.27985595 -8.81318476 33.18649323 -10.59765625 33.12109375 C-11.67724609 33.07919922 -12.75683594 33.03730469 -13.86914062 32.99414062 C-15.00544922 32.95482422 -16.14175781 32.91550781 -17.3125 32.875 C-18.45267578 32.83181641 -19.59285156 32.78863281 -20.76757812 32.74414062 C-23.59492195 32.63767161 -26.42235738 32.53565793 -29.25 32.4375 C-29.25 31.1175 -29.25 29.7975 -29.25 28.4375 C-30.9 28.4375 -32.55 28.4375 -34.25 28.4375 C-34.25 24.4375 -34.25 24.4375 -32.875 22.75 C-31.16209392 20.31240289 -30.91602265 19.06356915 -30.4375 16.1875 C-29.14565614 9.70692792 -25.47719428 4.75382796 -20.0625 1 C-13.80400152 -2.4769436 -6.60023616 -2.97582902 0 0 Z " fill="#F6DDCD" transform="translate(65.25,24.5625)"/>
<path d="M0 0 C17.49 0 34.98 0 53 0 C53 0.33 53 0.66 53 1 C51.97261719 1.21914063 50.94523437 1.43828125 49.88671875 1.6640625 C31.31976848 5.82600778 17.37215318 14.68333215 7 31 C5.52172601 33.87001488 4.19616138 36.73625126 2.97265625 39.72265625 C2 42 2 42 0 45 C0 30.15 0 15.3 0 0 Z " fill="#FEFEFE" transform="translate(0,0)"/>
<path d="M0 0 C0.07347656 1.03060547 0.07347656 1.03060547 0.1484375 2.08203125 C0.22320312 2.98308594 0.29796875 3.88414063 0.375 4.8125 C0.44460937 5.70582031 0.51421875 6.59914063 0.5859375 7.51953125 C0.86645036 10.24398499 0.86645036 10.24398499 3 13 C3.25 15.5625 3.25 15.5625 3 18 C1 20 1 20 -2.4375 20.8125 C-6.07655246 21.67076219 -6.07655246 21.67076219 -7.875 24.3125 C-9.23292468 27.3077761 -9.23292468 27.3077761 -10 32 C-16.93 32 -23.86 32 -31 32 C-31 22.79030403 -29.71094193 17.25443975 -24 10 C-16.45746315 2.4736142 -10.71809891 -0.57191437 0 0 Z " fill="#FE3131" transform="translate(59,73)"/>
<path d="M0 0 C8.76699383 -0.82362155 14.09680653 1.11296131 20.94140625 6.5390625 C26.46485598 11.57339465 30.72121982 18.5585877 32 26 C32 28.31 32 30.62 32 33 C18.14 33 4.28 33 -10 33 C-10 31.02 -10 29.04 -10 27 C-9.175 27.165 -8.35 27.33 -7.5 27.5 C-0.17641024 28.54818766 -0.17641024 28.54818766 6.875 26.6875 C9.36084617 24.71344569 10.8293008 23.07778679 11.3359375 19.87890625 C11.44227312 14.95498954 11.44227312 14.95498954 9.4375 10.5625 C6.4083928 8.62076462 3.49049552 7.80549897 0 7 C0 4.69 0 2.38 0 0 Z " fill="#FE3333" transform="translate(63,73)"/>
<path d="M0 0 C0.99 0 1.98 0 3 0 C3.66 2.31 4.32 4.62 5 7 C6.8871875 7.37125 6.8871875 7.37125 8.8125 7.75 C11.40586462 8.4247338 12.86697158 8.89607154 15 10.5625 C16.57404784 14.39924162 16.76799614 17.92750672 16 22 C14.06658451 25.57052209 11.91644101 27.69451966 8 29 C2.84298382 29.17190054 -1.91682196 28.84719634 -7 28 C-7.33 29.65 -7.66 31.3 -8 33 C-15.92 33 -23.84 33 -32 33 C-32 30.69 -32 28.38 -32 26 C-31.67 26 -31.34 26 -31 26 C-31 27.98 -31 29.96 -31 32 C-24.07 32 -17.14 32 -10 32 C-9.67 29.36 -9.34 26.72 -9 24 C-6.16953678 19.86316914 -2.76113008 19.09872233 2 18 C2.20086443 14.28400809 2.1519437 13.22791555 0 10 C-0.1953125 7.51953125 -0.1953125 7.51953125 -0.125 4.8125 C-0.10695313 3.91144531 -0.08890625 3.01039062 -0.0703125 2.08203125 C-0.04710938 1.39496094 -0.02390625 0.70789063 0 0 Z " fill="#D7D1DD" transform="translate(59,73)"/>
<path d="M0 0 C1.7265625 1.1953125 1.7265625 1.1953125 3 3 C3.29296875 5.48046875 3.29296875 5.48046875 3.1875 8.1875 C3.16042969 9.08855469 3.13335937 9.98960938 3.10546875 10.91796875 C3.07066406 11.60503906 3.03585938 12.29210937 3 13 C0.36 13 -2.28 13 -5 13 C-5 11.68 -5 10.36 -5 9 C-5.556875 8.9175 -6.11375 8.835 -6.6875 8.75 C-9.73677919 7.76104459 -11.65189963 6.15242534 -14 4 C-14 3.34 -14 2.68 -14 2 C-9.05798092 0.02319237 -5.24850659 -0.43020546 0 0 Z " fill="#F5DACC" transform="translate(56,60)"/>
<path d="M0 0 C0.33 0 0.66 0 1 0 C1 2.31 1 4.62 1 7 C-12.86 7 -26.72 7 -41 7 C-41 5.02 -41 3.04 -41 1 C-35.72 1.66 -30.44 2.32 -25 3 C-25.33 3.66 -25.66 4.32 -26 5 C-13.13 5.495 -13.13 5.495 0 6 C0 4.02 0 2.04 0 0 Z " fill="#F3676A" transform="translate(94,99)"/>
<path d="M0 0 C3.63 0.66 7.26 1.32 11 2 C11 2.33 11 2.66 11 3 C7.37 3.33 3.74 3.66 0 4 C0 2.68 0 1.36 0 0 Z " fill="#FC3E3E" transform="translate(55,100)"/>
</svg>
