<?xml version="1.0" encoding="UTF-8"?>
<svg version="1.1" xmlns="http://www.w3.org/2000/svg" width="525" height="525">
<path d="M0 0 C2.94789849 0.01611407 5.89442686 0.00000699 8.84228516 -0.01904297 C46.34624051 -0.06059236 83.81057999 8.76509169 117.44775391 25.39111328 C118.29031738 25.80619141 119.13288086 26.22126953 120.00097656 26.64892578 C131.69864038 32.46904002 142.83474049 38.76448654 153.44775391 46.39111328 C154.48029297 47.12974609 155.51283203 47.86837891 156.57666016 48.62939453 C214.59553126 91.21691009 252.12884706 153.23332244 263.44775391 224.39111328 C263.64473877 225.57205566 263.64473877 225.57205566 263.84570312 226.77685547 C273.58539108 287.45524803 257.87839145 357.20898879 222.56103516 407.51611328 C221.86365234 408.46486328 221.16626953 409.41361328 220.44775391 410.39111328 C220.00995605 410.99439453 219.5721582 411.59767578 219.12109375 412.21923828 C215.64157456 417.00460748 212.0793489 421.72020524 208.44775391 426.39111328 C208.02719727 426.93316406 207.60664063 427.47521484 207.17333984 428.03369141 C194.41519438 444.2637936 179.23243414 459.36294321 162.44775391 471.39111328 C161.10249799 472.3804195 159.7574562 473.37001694 158.41259766 474.35986328 C113.2521808 507.25159612 59.64319992 524.59943884 3.82275391 524.64111328 C3.00650543 524.64178802 2.19025696 524.64246277 1.34927368 524.64315796 C-12.80185071 524.62467376 -26.58096582 523.76971064 -40.55224609 521.39111328 C-41.98455566 521.15763184 -41.98455566 521.15763184 -43.44580078 520.91943359 C-91.38650774 512.86230706 -136.41586807 490.25814024 -172.20068359 457.52001953 C-174.19684072 455.71286731 -176.23300974 453.98754182 -178.30224609 452.26611328 C-225.10572713 411.32488643 -253.62414921 346.56245864 -258.55224609 285.39111328 C-258.70876436 281.96650871 -258.76126073 278.54552556 -258.79052734 275.11767578 C-258.8003212 274.16412704 -258.81011505 273.21057831 -258.82020569 272.22813416 C-258.99082239 251.30746833 -258.91057295 230.94888335 -254.55224609 210.39111328 C-254.33793945 209.36663086 -254.12363281 208.34214844 -253.90283203 207.28662109 C-245.13656977 166.69640237 -227.3394962 128.2409079 -200.55224609 96.39111328 C-200.13958496 95.88966797 -199.72692383 95.38822266 -199.30175781 94.87158203 C-187.99274416 81.13188875 -175.68279044 68.25126964 -161.55224609 57.39111328 C-160.57384766 56.60736328 -159.59544922 55.82361328 -158.58740234 55.01611328 C-113.89482124 19.43432002 -57.0758903 -0.36884171 0 0 Z " fill="#C6D1E3" transform="translate(258.55224609375,-0.39111328125)"/>
<path d="M0 0 C0.0093457 0.95140869 0.01869141 1.90281738 0.02832031 2.88305664 C0.06887904 6.48993957 0.13479997 10.09602691 0.20751953 13.70239258 C0.23535456 15.2488363 0.25675061 16.79541241 0.27099609 18.34204102 C0.46004884 37.73255146 4.65186258 54.15459072 18.4296875 68.6796875 C26.0275108 75.53851279 34.29536109 79.62327877 44.22265625 81.91796875 C47.66276286 83.25820719 48.88054008 85.04030875 51 88 C51.66 88.33 52.32 88.66 53 89 C53.02187378 90.08716309 53.02187378 90.08716309 53.04418945 91.19628906 C53.11963772 94.54800498 53.21597166 97.89882746 53.3125 101.25 C53.33505859 102.38953125 53.35761719 103.5290625 53.38085938 104.703125 C53.85634754 119.91874625 57.44027594 132.49879563 68.7265625 143.1796875 C79.75303553 152.00844426 91.24892978 153.85859011 105 153 C116.0458246 151.23563339 126.10160847 144.71133184 133 136 C134.93934868 132.7677522 136.53877043 129.47183614 138 126 C138.34224609 125.26201172 138.68449219 124.52402344 139.03710938 123.76367188 C140.1643459 120.52829727 140.32028831 117.80947683 140.4140625 114.38671875 C140.47207031 112.5159668 140.47207031 112.5159668 140.53125 110.60742188 C140.5621875 109.31384766 140.593125 108.02027344 140.625 106.6875 C140.68300781 104.71813477 140.68300781 104.71813477 140.7421875 102.70898438 C140.83633117 99.47279563 140.92196352 96.23661065 141 93 C142.64355469 92.35224609 142.64355469 92.35224609 144.3203125 91.69140625 C149.07693834 89.65096952 151.65842498 86.68315003 154 82 C154.69929276 74.94713302 155.03185602 68.4321181 150.59765625 62.58984375 C145.97300337 57.98780531 141.387822 56.75801288 134.9375 56.5 C129.41718054 56.70883932 126.33381906 57.56905991 122 61 C117.22337241 67.15933557 116.18681363 72.37637779 117 80 C118.65277773 85.27272026 121.21111257 89.10439364 126 92 C128.32415573 92.69798926 130.65697591 93.36823501 133 94 C133.66134579 109.24554662 133.93981865 121.13747646 123.8125 133.4375 C116.94688261 140.57866057 109.024696 143.99390173 99.21240234 144.39428711 C88.41264922 144.6052291 80.40125287 142.19768461 72.125 134.875 C63.25017147 125.15184228 61.77387293 114.46312664 61.625 101.9375 C61.56892578 100.1421582 61.56892578 100.1421582 61.51171875 98.31054688 C61.50011719 97.16521484 61.48851562 96.01988281 61.4765625 94.83984375 C61.45674316 93.79175537 61.43692383 92.74366699 61.41650391 91.66381836 C62 89 62 89 64.47021484 87.32250977 C65.30504395 86.88608154 66.13987305 86.44965332 67 86 C67.33 85.01 67.66 84.02 68 83 C70.3359375 82.26171875 70.3359375 82.26171875 73.375 81.6875 C87.45474944 78.43447732 98.56557068 69.67576057 106.46875 57.671875 C114.01595456 44.50277317 115.32119894 31.74305495 115.625 16.9375 C115.66325517 15.38865172 115.70231106 13.83982301 115.7421875 12.29101562 C115.83736079 8.52750579 115.92168497 4.76389683 116 1 C121.9094226 2.28865913 127.78906104 3.66878862 133.6640625 5.10571289 C142.57930501 7.28405727 151.48319273 9.35001941 160.5 11.0625 C180.00237776 14.85808229 197.9254619 20.1833017 212 35 C212.85658203 35.84884766 212.85658203 35.84884766 213.73046875 36.71484375 C223.84535882 48.1818528 225.68438101 67.5100142 228 82 C228.11859375 82.69319336 228.2371875 83.38638672 228.359375 84.10058594 C229.94269657 93.52983135 230.24156971 102.986161 230.35046387 112.53250122 C230.37448375 114.51978808 230.41412158 116.50686663 230.45410156 118.49389648 C230.46937125 126.89277183 229.82418753 132.85776123 224.02734375 139.13671875 C188.55155466 165.46174355 132.54854512 166.90413169 89.95895386 170.81796265 C88.21429971 170.98008603 86.47048262 171.15116063 84.72680664 171.32348633 C76.79862122 172.06636094 68.89688499 172.19936501 60.9375 172.1875 C59.89728699 172.18709213 59.89728699 172.18709213 58.83605957 172.18667603 C44.82552831 172.16169861 30.94826669 171.33547234 17 170 C15.85047852 169.89284668 14.70095703 169.78569336 13.51660156 169.67529297 C-3.10688835 168.10007399 -19.54929122 165.85020557 -36 163 C-37.42315027 162.76285988 -38.84632447 162.52586324 -40.26953125 162.2890625 C-98.16324778 152.1531904 -98.16324778 152.1531904 -111.0625 135.3125 C-120.30424059 119.51210479 -114.63472004 84.91789347 -110.27416992 68.15869141 C-109.2743889 64.73785359 -108.14903234 61.37397678 -107 58 C-106.33161726 55.62548237 -105.66482058 53.25051743 -105 50.875 C-100.84816623 37.6191452 -91.87134023 28.78448298 -80 22 C-70.38729351 17.05672706 -60.34957124 14.03119724 -49.8046875 11.82421875 C-46.01491422 11.05271513 -46.01491422 11.05271513 -42.42578125 9.94140625 C-39.00861129 9.00236639 -35.8353831 8.58742552 -32.3125 8.25 C-21.76240527 6.95103939 -10.26459769 0 0 0 Z " fill="#FE3132" transform="translate(206,284)"/>
<path d="M0 0 C13.805755 11.79031632 21.20312456 26.95456545 22.7578125 44.84375 C23.3897806 54.23693222 23.36011438 63.45338182 22.25 72.8125 C23.24 72.8125 24.23 72.8125 25.25 72.8125 C28.91714771 80.14679542 26.15818123 93.61079154 25.4375 101.625 C25.33248169 102.9231665 25.33248169 102.9231665 25.2253418 104.24755859 C25.10412964 105.46499756 25.10412964 105.46499756 24.98046875 106.70703125 C24.91239014 107.42737549 24.84431152 108.14771973 24.77416992 108.88989258 C24.10929115 111.32860721 23.26913362 112.30831714 21.25 113.8125 C17.5625 114 17.5625 114 14.25 113.8125 C14.00890503 114.7871521 14.00890503 114.7871521 13.76293945 115.78149414 C11.84946435 123.18022081 9.31038008 130.17460643 6.4375 137.25 C6.02435547 138.29220703 5.61121094 139.33441406 5.18554688 140.40820312 C2.60228541 146.82854326 -0.27565105 152.96186729 -3.57104492 159.04931641 C-6.83676026 166.70335787 -4.57662787 175.3418941 -3.26171875 183.25 C-2.23309998 190.41107112 -1.97878288 197.5905871 -1.75 204.8125 C-1.71068359 205.87500977 -1.67136719 206.93751953 -1.63085938 208.03222656 C-0.56873948 239.77881025 -0.56873948 239.77881025 -11.8203125 252.79296875 C-12.45710938 253.45941406 -13.09390625 254.12585938 -13.75 254.8125 C-14.73613281 255.85857422 -14.73613281 255.85857422 -15.7421875 256.92578125 C-21.48575947 262.51156279 -28.13673611 266.29231985 -35.75 268.8125 C-36.74 268.4825 -37.73 268.1525 -38.75 267.8125 C-38.75 267.1525 -38.75 266.4925 -38.75 265.8125 C-41.54224073 265.73178212 -44.33216566 265.67214592 -47.125 265.625 C-47.9190625 265.59986328 -48.713125 265.57472656 -49.53125 265.54882812 C-51.60586148 265.52245595 -53.68100865 265.65763538 -55.75 265.8125 C-56.41 266.8025 -57.07 267.7925 -57.75 268.8125 C-69.10665156 266.70941638 -79.28282354 260.00517058 -85.9375 250.5625 C-90.2856251 243.69153226 -93.85194756 235.80675224 -93.89526367 227.56982422 C-93.90164352 226.74151093 -93.90802338 225.91319763 -93.91459656 225.05978394 C-93.91570938 224.17122711 -93.9168222 223.28267029 -93.91796875 222.3671875 C-93.92129715 221.44213409 -93.92462555 220.51708069 -93.92805481 219.56399536 C-93.93311466 217.60549414 -93.93546343 215.64698431 -93.93530273 213.68847656 C-93.93747675 210.71925252 -93.95560795 207.75040773 -93.97460938 204.78125 C-93.97754613 202.87239709 -93.97952904 200.96354243 -93.98046875 199.0546875 C-93.98765427 198.17827606 -93.99483978 197.30186462 -94.00224304 196.39889526 C-93.98018441 190.32450473 -93.12248504 184.7221567 -91.75 178.8125 C-89.13790208 166.84781735 -91.55217113 159.69536038 -97.12890625 148.98730469 C-101.04494034 141.46583565 -104.14076305 133.87884216 -106.9375 125.875 C-107.32341309 124.7722876 -107.70932617 123.6695752 -108.10693359 122.53344727 C-108.99797292 119.96304688 -109.87974787 117.38999834 -110.75 114.8125 C-111.843125 114.73 -112.93625 114.6475 -114.0625 114.5625 C-117.75 113.8125 -117.75 113.8125 -119.43481445 112.09399414 C-120.96449057 109.44041639 -121.25375983 107.60400558 -121.48046875 104.55859375 C-121.56103516 103.53830078 -121.64160156 102.51800781 -121.72460938 101.46679688 C-121.82999023 99.87448242 -121.82999023 99.87448242 -121.9375 98.25 C-122.01935547 97.21552734 -122.10121094 96.18105469 -122.18554688 95.11523438 C-122.69055253 88.33797357 -122.84856724 81.60689986 -122.75 74.8125 C-120.77 73.8225 -120.77 73.8225 -118.75 72.8125 C-118.7814209 71.48412109 -118.7814209 71.48412109 -118.81347656 70.12890625 C-119.74604115 24.75196597 -119.74604115 24.75196597 -102.02734375 6.08984375 C-74.20342913 -21.73407087 -31.09184646 -23.68290784 0 0 Z " fill="#F6DDCE" transform="translate(311.75,87.1875)"/>
<path d="M0 0 C4.62 0 9.24 0 14 0 C14 6.6 14 13.2 14 20 C20.6 20 27.2 20 34 20 C34 24.62 34 29.24 34 34 C27.4 34 20.8 34 14 34 C14 40.6 14 47.2 14 54 C9.38 54 4.76 54 0 54 C0 47.4 0 40.8 0 34 C-6.6 34 -13.2 34 -20 34 C-20 29.38 -20 24.76 -20 20 C-13.4 20 -6.8 20 0 20 C0 13.4 0 6.8 0 0 Z " fill="#D6D2DE" transform="translate(166,352)"/>
<path d="M0 0 C3.0625 1.9375 3.0625 1.9375 5 5 C5.69038594 8.4747524 5.72939979 11.52965257 5 15 C2.80977082 17.82424288 1.16982793 19.41508603 -2 21 C-9.13230769 21.70153846 -9.13230769 21.70153846 -12.9375 18.625 C-15.97718178 14.75631409 -16.53553691 12.19020119 -16.46484375 7.3359375 C-15.74887299 3.738034 -14.04715612 2.09202139 -11.13671875 -0.02734375 C-7.25303209 -1.79523768 -3.95883236 -1.37634172 0 0 Z " fill="#050505" transform="translate(347,349)"/>
<path d="M0 0 C0.66 0.33 1.32 0.66 2 1 C-0.64 3.64 -3.28 6.28 -6 9 C-6 6 -6 6 -3.5625 3.375 C-2.716875 2.59125 -1.87125 1.8075 -1 1 C-0.67 0.67 -0.34 0.34 0 0 Z " fill="#DBA2AF" transform="translate(331,342)"/>
</svg>
