<?xml version="1.0" encoding="UTF-8"?>
<svg version="1.1" xmlns="http://www.w3.org/2000/svg" width="529" height="525">
<path d="M0 0 C1.46177422 -0.00855011 1.46177422 -0.00855011 2.95307922 -0.01727295 C5.00948015 -0.02666408 7.06589573 -0.0332333 9.12231445 -0.03710938 C12.18534634 -0.0467091 15.24767485 -0.0777455 18.31054688 -0.109375 C36.70679765 -0.20900839 54.76946079 1.60907644 72.67578125 5.953125 C73.75722412 6.21134033 74.83866699 6.46955566 75.95288086 6.7355957 C130.77586815 20.19445568 184.33331974 52.67850926 218.55078125 98.203125 C219.0602832 98.86328613 219.56978516 99.52344727 220.09472656 100.20361328 C263.96184727 157.08089714 281.54526623 227.34902169 273.17626953 298.38183594 C264.29859383 365.2065221 228.01234467 427.93824133 174.77905273 469.26611328 C154.242609 484.95489862 131.75798646 498.09546363 107.55078125 507.203125 C107.22078125 513.143125 106.89078125 519.083125 106.55078125 525.203125 C47.81078125 525.203125 -10.92921875 525.203125 -71.44921875 525.203125 C-79.44921875 509.203125 -79.44921875 509.203125 -79.44921875 507.203125 C-80.10664063 507.10902344 -80.7640625 507.01492188 -81.44140625 506.91796875 C-85.38213365 505.98140626 -88.88902702 504.4260388 -92.57421875 502.765625 C-93.36119141 502.41145508 -94.14816406 502.05728516 -94.95898438 501.69238281 C-115.6968228 492.22653653 -134.76165105 480.60444796 -152.44921875 466.203125 C-152.98933594 465.76597168 -153.52945313 465.32881836 -154.0859375 464.87841797 C-168.1359744 453.41977774 -181.46943862 440.6575191 -192.44921875 426.203125 C-193.38756986 425.00485504 -194.32640626 423.80696502 -195.265625 422.609375 C-237.02986117 368.77961547 -256.21178261 298.8679307 -248.13671875 231.1953125 C-240.9492006 177.01083788 -219.18862439 124.97833525 -181.19921875 85.10546875 C-178.79295586 82.56590436 -176.48495078 79.97546698 -174.19921875 77.328125 C-171.26082442 74.01193711 -168.19919627 71.04934392 -164.8125 68.1953125 C-162.99259439 66.6611772 -161.20666936 65.10603616 -159.4296875 63.5234375 C-146.20506917 51.8288284 -131.83629428 41.84186367 -116.44921875 33.203125 C-115.69753418 32.77676758 -114.94584961 32.35041016 -114.17138672 31.91113281 C-79.78801374 12.5874407 -39.64386234 0.18631108 0 0 Z " fill="#C5D0E3" transform="translate(252.44921875,-0.203125)"/>
<path d="M0 0 C14.39221169 -0.84798629 26.1948439 2.23422805 37.10546875 11.85693359 C39.15427058 13.82530318 41.14738414 15.83521939 43.125 17.875 C43.78886719 18.54402344 44.45273437 19.21304687 45.13671875 19.90234375 C48.36625087 23.18243606 51.48620828 26.52155785 54.4921875 30.0078125 C58.12896483 34.21454022 62.03183388 38.10785239 66 42 C69.95605027 45.88026387 73.84574614 49.75787648 77.4609375 53.9609375 C81.29402741 58.41149623 85.43687663 62.51087174 89.625 66.625 C94.33615026 71.2537875 98.8339049 75.87425594 103 81 C103.845625 81.804375 104.69125 82.60875 105.5625 83.4375 C111.69550588 89.885019 113.38058146 95.95648258 113.265625 104.68359375 C112.89173667 109.35169954 111.74398221 112.24786963 109 116 C108.47148437 116.73089844 107.94296875 117.46179688 107.3984375 118.21484375 C100.73538477 126.40429302 92.0458316 132.15770381 83.50195312 138.21972656 C81.09853155 139.92988954 78.71075588 141.65946051 76.328125 143.3984375 C68.96590428 148.76751406 61.55208923 154.05989859 54.0625 159.25 C53.39387939 159.71623779 52.72525879 160.18247559 52.03637695 160.6628418 C49.37444841 162.49345889 47.08190303 163.97269899 44 165 C44 193.38 44 221.76 44 251 C-14.74 251 -73.48 251 -134 251 C-143.21964286 232.56071429 -143.21964286 232.56071429 -144.9375 225.875 C-145.13150391 225.18664062 -145.32550781 224.49828125 -145.52539062 223.7890625 C-150.21439392 206.78534122 -150.05706419 185.91500782 -145 169 C-144.7215625 168.0615625 -144.443125 167.123125 -144.15625 166.15625 C-139.9075306 153.4100918 -133.49862641 142.34239621 -125 132 C-123.95199219 130.70449219 -123.95199219 130.70449219 -122.8828125 129.3828125 C-114.91281401 120.01149559 -105.04968946 112.42491214 -94 107 C-94.32226562 105.90300781 -94.64453125 104.80601562 -94.9765625 103.67578125 C-97.90156816 91.90586911 -97.84454449 76.76802896 -92 66 C-91.59136719 65.37101807 -91.18273437 64.74203613 -90.76171875 64.09399414 C-86.97325953 57.98848621 -86.31580514 53.17081636 -86.375 46.0625 C-86.375 32.48460346 -83.13354455 21.12086813 -73.5 11.125 C-69.44031411 7.16481622 -65.62745232 3.77209203 -59.7578125 3.6796875 C-58.21281771 3.72443181 -56.6683023 3.78997667 -55.125 3.875 C-48.96310883 4.15555828 -43.94479542 3.7468761 -38 2 C-37.54560547 3.89685547 -37.54560547 3.89685547 -37.08203125 5.83203125 C-36.65989055 7.49245133 -36.2366561 9.15259361 -35.8125 10.8125 C-35.61591797 11.64587891 -35.41933594 12.47925781 -35.21679688 13.33789062 C-33.94790667 18.28945741 -33.94790667 18.28945741 -30.62890625 22.046875 C-25.81749067 23.79128124 -20.90457786 23.95680212 -16.0078125 22.34375 C-6.89629954 17.64625887 -3.41069118 9.19075633 0 0 Z " fill="#DB405A" transform="translate(315,274)"/>
<path d="M0 0 C0.77633789 -0.00555908 1.55267578 -0.01111816 2.35253906 -0.0168457 C19.87701989 0.20155697 32.26132867 7.89796958 44.234375 20.1640625 C50.1875 26.7125 50.1875 26.7125 50.1875 30.3125 C50.8475 30.3125 51.5075 30.3125 52.1875 30.3125 C52.45304688 29.7246875 52.71859375 29.136875 52.9921875 28.53125 C56.48634513 22.04536264 62.44180531 17.91911663 69.1875 15.3125 C71.75 14.5625 71.75 14.5625 74.1875 14.3125 C75.1775 14.209375 76.1675 14.10625 77.1875 14 C87.7134701 14.20639157 98.97187278 19.27488053 106.4765625 26.5234375 C114.55007411 35.36026294 117.67110943 42.87710236 117.51953125 54.82421875 C117.06598114 59.58916287 115.74731351 63.8400538 114.16015625 68.33984375 C111.26496999 77.18818409 110.26725369 88.68471345 113.8125 97.4375 C115.96006494 101.39707286 118.29739925 103.93521621 122.1875 106.3125 C125.49338754 107.25279735 128.78243924 107.86163227 132.1875 108.3125 C130.38083569 112.67084483 127.98260768 114.19929828 123.87890625 116.3203125 C117.07068679 118.83016409 110.35996866 118.21359108 103.8125 115.25 C95.13788432 110.25931566 91.98964345 103.68493244 89.1875 94.3125 C88.31216741 90.12690286 87.6996249 85.92374811 87.125 81.6875 C85.86353484 68.80266365 85.86353484 68.80266365 79.8125 57.875 C75.35748744 55.22320681 71.54728757 54.06140031 66.375 53.6875 C65.39917969 53.61273438 64.42335938 53.53796875 63.41796875 53.4609375 C62.68191406 53.41195312 61.94585937 53.36296875 61.1875 53.3125 C61.496875 53.993125 61.80625 54.67375 62.125 55.375 C68.78835449 73.79721537 63.23446715 98.21240473 55.29150391 115.23242188 C51.39466767 123.23630537 47.04513324 130.55791667 41.1875 137.3125 C36.92049823 136.83950688 34.55974995 134.16529456 31.6875 131.25 C30.7490625 130.33089844 29.810625 129.41179687 28.84375 128.46484375 C22.97568981 121.92876308 21.61394139 115.74786226 21.5625 107.125 C21.70608678 98.13029869 21.70608678 98.13029869 17.5 90.5 C14.1648176 88.78733877 11.89325738 88.86525342 8.1875 89.3125 C3.91958673 91.36438138 1.39352197 93.51796459 -0.2890625 98.03125 C-1.43780607 103.03771453 -1.5893321 108.19502918 -1.8125 113.3125 C-6.02139164 108.44727129 -9.21859415 102.97151188 -12.5625 97.5 C-13.16449219 96.52095703 -13.76648438 95.54191406 -14.38671875 94.53320312 C-15.86496819 92.12811476 -17.34011975 89.72118428 -18.8125 87.3125 C-19.55765869 87.45469971 -20.30281738 87.59689941 -21.07055664 87.7434082 C-27.87189033 88.97038922 -34.34585694 89.60176782 -41.25 89.5 C-42.10787109 89.49935547 -42.96574219 89.49871094 -43.84960938 89.49804688 C-47.97799568 89.46926649 -51.77789647 89.26923503 -55.8125 88.3125 C-60.74723056 87.88624124 -60.74723056 87.88624124 -65.125 89.8125 C-65.681875 90.3075 -66.23875 90.8025 -66.8125 91.3125 C-67.4725 91.3125 -68.1325 91.3125 -68.8125 91.3125 C-67.8225 94.6125 -66.8325 97.9125 -65.8125 101.3125 C-74.0911971 100.96755429 -78.98190084 96.42023759 -84.5625 90.625 C-90.94738375 82.8959302 -92.50474294 74.46972481 -92.203125 64.61328125 C-91.64766758 59.91966602 -90.17702524 56.36246538 -87.8125 52.3125 C-87.214375 51.19875 -86.61625 50.085 -86 48.9375 C-85.27720618 47.72534383 -84.54714442 46.51751081 -83.8125 45.3125 C-83.30847656 44.45527344 -82.80445313 43.59804687 -82.28515625 42.71484375 C-69.54356431 21.70999718 -46.87343836 9.85883089 -23.8125 3.3125 C-22.69617188 2.9928125 -21.57984375 2.673125 -20.4296875 2.34375 C-13.59274856 0.63054952 -7.0172927 0.04172075 0 0 Z " fill="#2A3034" transform="translate(272.8125,108.6875)"/>
<path d="M0 0 C2.0133033 2.2514848 3.51031496 4.42800255 5.03588867 7.02905273 C5.55989258 7.91399414 6.08389648 8.79893555 6.6237793 9.71069336 C7.1580957 10.62657227 7.69241211 11.54245117 8.24291992 12.48608398 C9.31859254 14.31358446 10.39535625 16.1404433 11.47338867 17.96655273 C11.94542725 18.77374756 12.41746582 19.58094238 12.90380859 20.41259766 C13.91782843 22.2393231 13.91782843 22.2393231 15.05541992 23.29858398 C15.08120117 22.59733398 15.10698242 21.89608398 15.13354492 21.17358398 C15.61106249 13.18601734 16.73544226 7.24967524 22.86791992 1.79858398 C26.70956532 -0.00924914 28.8575474 -0.3760741 33.05541992 0.29858398 C36.00367796 1.97102632 38.56499259 3.87808643 39.70849609 7.19018555 C40.07482937 9.41654313 40.1982216 11.52706115 40.23120117 13.78295898 C40.26697266 15.06299805 40.26697266 15.06299805 40.3034668 16.36889648 C40.34605404 18.13949344 40.37750983 19.91039708 40.3972168 21.68139648 C40.64700853 29.41913101 42.50303201 35.01608753 48.10620117 40.49389648 C49.73868624 41.99017663 51.39710762 43.44879306 53.07299805 44.89624023 C54.66870117 46.36889648 54.66870117 46.36889648 57.05541992 49.29858398 C56.78979492 52.17749023 56.78979492 52.17749023 56.05541992 55.29858398 C56.60835052 57.97988058 57.22758585 60.49614076 57.99291992 63.11108398 C60.72917113 73.44178049 61.22514726 79.64477023 55.97729492 89.41577148 C52.5164383 94.60705642 48.05974264 99.29714308 42.05541992 101.29858398 C39.78588867 101.53686523 39.78588867 101.53686523 37.24291992 101.61108398 C35.99575195 101.6671582 35.99575195 101.6671582 34.72338867 101.72436523 C30.90559031 101.11508263 28.95576957 99.85394045 26.05541992 97.29858398 C24.81144791 94.66876783 24.23530602 92.01928426 23.68041992 89.17358398 C23.43485352 88.08110352 23.43485352 88.08110352 23.18432617 86.96655273 C22.05541992 81.83429827 22.05541992 81.83429827 22.05541992 79.29858398 C21.04479492 79.79358398 20.03416992 80.28858398 18.99291992 80.79858398 C11.1707413 83.70237676 1.60866316 83.56998134 -6.25708008 80.86108398 C-16.41968863 76.02415421 -23.69992978 67.05539153 -28.94458008 57.29858398 C-28.94458008 56.30858398 -28.94458008 55.31858398 -28.94458008 54.29858398 C-27.62458008 53.63858398 -26.30458008 52.97858398 -24.94458008 52.29858398 C-24.94458008 50.97858398 -24.94458008 49.65858398 -24.94458008 48.29858398 C-27.58458008 48.62858398 -30.22458008 48.95858398 -32.94458008 49.29858398 C-43.84447518 24.7840041 -43.84447518 24.7840041 -47.56958008 15.61108398 C-48.0155957 14.5140918 -48.46161133 13.41709961 -48.92114258 12.28686523 C-49.94823036 9.28792573 -50.52133504 6.43530001 -50.94458008 3.29858398 C-46.41135784 -0.23954069 -43.67797872 -1.22263407 -37.94458008 -0.70141602 C-37.24719727 -0.53383789 -36.54981445 -0.36625977 -35.83129883 -0.19360352 C-31.659453 0.51769902 -27.54439288 0.48765221 -23.31958008 0.48608398 C-22.42819336 0.48962891 -21.53680664 0.49317383 -20.6184082 0.49682617 C-14.8673719 0.46541119 -9.58964597 -0.03240326 -4.03833008 -1.65454102 C-1.94458008 -1.70141602 -1.94458008 -1.70141602 0 0 Z " fill="#F5DCCD" transform="translate(254.944580078125,196.701416015625)"/>
<path d="M0 0 C0 1.32 0 2.64 0 4 C1.34191406 3.58427734 1.34191406 3.58427734 2.7109375 3.16015625 C9.87696618 1.01340352 16.53105917 -0.54733692 24 -1 C24 2.63 24 6.26 24 10 C22.22625 10.2475 20.4525 10.495 18.625 10.75 C7.77237351 12.59915492 -1.54909265 16.46862326 -8.75390625 25.1015625 C-15.35527968 34.46591679 -18.17012642 43.96659941 -18.0625 55.375 C-18.05347656 56.62023437 -18.04445313 57.86546875 -18.03515625 59.1484375 C-18.02355469 60.08945312 -18.01195312 61.03046875 -18 62 C-17.25314941 61.99476318 -16.50629883 61.98952637 -15.73681641 61.98413086 C-12.36621943 61.96339599 -8.99563586 61.95035101 -5.625 61.9375 C-3.8615625 61.92493164 -3.8615625 61.92493164 -2.0625 61.91210938 C-0.94101562 61.90888672 0.18046875 61.90566406 1.3359375 61.90234375 C2.37282715 61.89710693 3.4097168 61.89187012 4.47802734 61.88647461 C7 62 7 62 9 63 C9 65.97 9 68.94 9 72 C6.78796875 71.94779297 6.78796875 71.94779297 4.53125 71.89453125 C-22.49930687 71.44337638 -46.6101117 76.71599042 -66.79296875 95.85546875 C-67.52128906 96.56316406 -68.24960938 97.27085937 -69 98 C-69.63550781 98.57363281 -70.27101562 99.14726562 -70.92578125 99.73828125 C-86.46769028 114.17743842 -94.23878959 137.27452739 -95.22265625 158 C-95.84353184 178.72954402 -90.35457185 196.09030081 -80 214 C-79.505 214.99 -79.505 214.99 -79 216 C-83.29 216 -87.58 216 -92 216 C-105.18135326 191.69790206 -110.6913043 164.42276552 -103.90625 137.03125 C-103.6071875 136.0309375 -103.308125 135.030625 -103 134 C-102.7215625 133.0615625 -102.443125 132.123125 -102.15625 131.15625 C-97.9075306 118.4100918 -91.49862641 107.34239621 -83 97 C-82.30132812 96.13632812 -81.60265625 95.27265625 -80.8828125 94.3828125 C-72.91281401 85.01149559 -63.04968946 77.42491214 -52 72 C-52.32226562 70.90300781 -52.64453125 69.80601562 -52.9765625 68.67578125 C-55.9170232 56.84367967 -55.77965065 41.84622752 -50 31 C-49.60296875 30.17242187 -49.2059375 29.34484375 -48.796875 28.4921875 C-46.4684598 23.90904113 -44.2674697 20.98722879 -40 18 C-39.2575 17.236875 -38.515 16.47375 -37.75 15.6875 C-28.94938065 7.08689472 -13.06837361 -4.35612454 0 0 Z " fill="#FD3132" transform="translate(273,309)"/>
<path d="M0 0 C6.0575729 3.74057581 10.31740112 8.31767647 12.01953125 15.44140625 C13.36132269 24.57836698 13.24438837 32.19547921 8.234375 40.1484375 C-0.14236711 51.36945643 -11.63184091 59.49226032 -25.65234375 61.67578125 C-31.99269559 62.41198324 -37.71157225 62.93616381 -43.15234375 59.17578125 C-46.87321907 55.82230328 -49.45443133 52.15764537 -51.65234375 47.67578125 C-52.04550781 46.88558594 -52.43867188 46.09539062 -52.84375 45.28125 C-56.22652056 37.41954977 -56.86519558 29.12115391 -55.65234375 20.67578125 C-53.68309968 17.22960413 -51.60465552 14.33286185 -48.65234375 11.67578125 C-49.31234375 11.01578125 -49.97234375 10.35578125 -50.65234375 9.67578125 C-50.65234375 5.98210559 -49.74680095 4.77259988 -47.15234375 2.11328125 C-46.00765142 1.27010462 -44.83917563 0.45853118 -43.65234375 -0.32421875 C-42.79576172 -0.91976563 -42.79576172 -0.91976563 -41.921875 -1.52734375 C-30.62957878 -7.92856556 -11.10778336 -5.54571216 0 0 Z " fill="#F6DCCD" transform="translate(307.65234375,442.32421875)"/>
<path d="M0 0 C2.84241762 1.29334471 4.90775233 2.65590396 7.11621094 4.85742188 C7.69651062 5.43141724 8.2768103 6.0054126 8.87469482 6.59680176 C9.79523651 7.52341614 9.79523651 7.52341614 10.734375 8.46875 C11.37240051 9.10486206 12.01042603 9.74097412 12.66778564 10.3963623 C14.01161574 11.73883387 15.35293329 13.08382461 16.69189453 14.43115234 C18.74942465 16.49942165 20.81744049 18.55677328 22.88671875 20.61328125 C24.19074625 21.91862971 25.49415356 23.2245981 26.796875 24.53125 C27.41866638 25.14899292 28.04045776 25.76673584 28.68109131 26.40319824 C33 30.77006927 33 30.77006927 33 33 C31.77734375 34.19921875 31.77734375 34.19921875 29.9375 35.6875 C25.72928984 39.2659604 21.82812748 43.08481175 17.9375 47 C17.29796387 47.64283936 16.65842773 48.28567871 15.99951172 48.94799805 C13.99771373 50.96339857 11.99843328 52.98126333 10 55 C-5.01160243 70.16411508 -5.01160243 70.16411508 -11.02783203 75.25927734 C-15.17749808 78.92195609 -19.04385316 82.89666222 -22.94799805 86.81762695 C-24.45572096 88.33078666 -25.96881759 89.83842885 -27.48242188 91.34570312 C-28.44563392 92.30957474 -29.4085364 93.27375584 -30.37109375 94.23828125 C-31.23661865 95.10493408 -32.10214355 95.97158691 -32.99389648 96.86450195 C-35.0367774 98.83484761 -35.0367774 98.83484761 -36 101 C-39.96 100.67 -43.92 100.34 -48 100 C-42.99100226 93.99076558 -37.59058141 88.5234438 -32.00976562 83.04882812 C-28.82826255 79.90392911 -25.73782556 76.74918115 -22.83984375 73.33984375 C-16.87138822 66.40952619 -10.17839439 60.12570129 -3.67919922 53.69970703 C5.30756854 44.84306954 5.30756854 44.84306954 13.74804688 35.47070312 C15 34 15 34 17 32 C16.80930991 27.36345089 14.75776108 25.28586772 11.52734375 22.13671875 C10.62822266 21.25048828 9.72910156 20.36425781 8.80273438 19.45117188 C7.38444336 18.0831543 7.38444336 18.0831543 5.9375 16.6875 C4.97760179 15.74767724 4.01860671 14.80693111 3.06054688 13.86523438 C0.71576088 11.56757976 -1.63784527 9.2797724 -4 7 C-2.68 4.69 -1.36 2.38 0 0 Z " fill="#FA3233" transform="translate(329,337)"/>
<path d="M0 0 C0.66 0.33 1.32 0.66 2 1 C1.57589844 1.41507812 1.15179688 1.83015625 0.71484375 2.2578125 C-9.94754575 13.45917993 -14.43199745 26.84251082 -14.125 42.0625 C-14.11597656 42.92810547 -14.10695312 43.79371094 -14.09765625 44.68554688 C-14.07439723 46.79048779 -14.03854008 48.89528342 -14 51 C-17.63 51.99 -21.26 52.98 -25 54 C-28.74163488 44.17820845 -27.95279272 33.4508377 -24.25390625 23.74609375 C-19.27806376 12.84884368 -11.1808545 4.51157287 0 0 Z " fill="#CA4870" transform="translate(258,322)"/>
<path d="M0 0 C0 4.62 0 9.24 0 14 C-1.94132812 15.04414063 -1.94132812 15.04414063 -3.921875 16.109375 C-8.90432925 18.87913651 -13.57457885 21.99524152 -18.25 25.25 C-19.06831299 25.81485107 -19.88662598 26.37970215 -20.72973633 26.96166992 C-23.15576172 28.63738798 -25.57806959 30.31837113 -28 32 C-29.37341953 32.9496215 -30.74709622 33.89887124 -32.12109375 34.84765625 C-35.08361603 36.89429022 -38.04295155 38.94546185 -41 41 C-41.66 40.67 -42.32 40.34 -43 40 C-42.0234375 38.17708333 -41.046875 36.35416667 -40.0703125 34.53125 C-39.10571267 32.25000661 -38.69412781 30.39954155 -38.25 27.98828125 C-37.44403167 24.63073131 -37.0665331 24.05833699 -34.3046875 21.63671875 C-33.17289062 20.99347656 -32.04109375 20.35023438 -30.875 19.6875 C-29.61013696 18.94061104 -28.3471921 18.19046645 -27.0859375 17.4375 C-26.42174805 17.04820312 -25.75755859 16.65890625 -25.07324219 16.2578125 C-21.44383271 14.05589097 -17.98045795 11.61552796 -14.5 9.1875 C-1.25351086 0 -1.25351086 0 0 0 Z " fill="#FE3131" transform="translate(358,442)"/>
<path d="M0 0 C0.66 0 1.32 0 2 0 C3.375 2.4375 3.375 2.4375 4 6 C-0.0117153 15.75536056 -9.5957798 22.07396633 -19 26 C-19.67417969 26.28746094 -20.34835937 26.57492187 -21.04296875 26.87109375 C-27.54344928 29.34577577 -34.09770818 29.69062371 -41 30 C-42.32 27.69 -43.64 25.38 -45 23 C-43.45892578 22.85304688 -43.45892578 22.85304688 -41.88671875 22.703125 C-27.48162821 21.20699043 -14.73608485 17.95830292 -4.82421875 6.48046875 C-3.62841902 4.90835109 -2.46258752 3.31259612 -1.33984375 1.6875 C-0.89769531 1.130625 -0.45554687 0.57375 0 0 Z " fill="#E0AB96" transform="translate(302,468)"/>
<path d="M0 0 C1.32 0.99 2.64 1.98 4 3 C3.06021638 10.23887385 -2.0452074 14.71355335 -7.625 19.03125 C-17.5851053 25.70904787 -26.10068751 27.55202996 -38 27 C-38 24.69 -38 22.38 -38 20 C-37.27296875 19.91363281 -36.5459375 19.82726562 -35.796875 19.73828125 C-22.51639359 17.8824191 -13.43153865 13.5511415 -4 4 C-3.2471875 3.24847656 -2.494375 2.49695313 -1.71875 1.72265625 C-1.1515625 1.15417969 -0.584375 0.58570313 0 0 Z " fill="#E0AB95" transform="translate(290,452)"/>
<path d="M0 0 C-2.0407388 1.02964548 -4.08537865 2.03990524 -6.15625 3.0078125 C-12.23261685 5.90421403 -17.60068853 9.36739576 -23.04296875 13.328125 C-26.46264341 15.26157382 -29.08846916 15.83135915 -33 16 C-33.66 15.34 -34.32 14.68 -35 14 C-35 10.30632434 -34.0944572 9.09681863 -31.5 6.4375 C-30.35530767 5.59432337 -29.18683188 4.78274993 -28 4 C-27.14341797 3.40445312 -27.14341797 3.40445312 -26.26953125 2.796875 C-18.37767971 -1.67674942 -8.75520065 -0.32063807 0 0 Z " fill="#ECC0AD" transform="translate(292,438)"/>
<path d="M0 0 C3.5625 0.3125 3.5625 0.3125 5.3125 1.4375 C8.3275023 5.96000345 10.5269726 9.76678255 9.5625 15.3125 C7.375 17.75 7.375 17.75 4.5625 19.3125 C1.74651433 19.24545272 0.24223803 18.78308786 -2.0625 17.1875 C-4.89512072 13.32483538 -6.52295706 9.82224131 -6.25 5 C-5.02835644 0.95917899 -4.23743694 0.38522154 0 0 Z " fill="#6B2719" transform="translate(225.4375,206.6875)"/>
<path d="M0 0 C-1.69433939 6.97099633 -4.47142147 12.29506684 -10 17 C-12.7265625 18.22265625 -12.7265625 18.22265625 -15 19 C-16.50589388 17.71520959 -18.00457375 16.42195918 -19.5 15.125 C-20.3353125 14.40570313 -21.170625 13.68640625 -22.03125 12.9453125 C-23.00578125 11.98238281 -23.00578125 11.98238281 -24 11 C-24 10.34 -24 9.68 -24 9 C-20.37732706 7.4943349 -16.75149451 5.99643454 -13.125 4.5 C-12.09246094 4.07074219 -11.05992187 3.64148438 -9.99609375 3.19921875 C-9.00996094 2.79316406 -8.02382812 2.38710938 -7.0078125 1.96875 C-5.64100342 1.40317383 -5.64100342 1.40317383 -4.24658203 0.82617188 C-2 0 -2 0 0 0 Z " fill="#DF2839" transform="translate(258,255)"/>
<path d="M0 0 C-0.25 2.375 -0.25 2.375 -1 5 C-2.75 6.375 -2.75 6.375 -5 7 C-7.75 6.625 -7.75 6.625 -10 6 C-9.75 3.625 -9.75 3.625 -9 1 C-5.89666169 -1.43833725 -3.67370652 -1.02047403 0 0 Z " fill="#C06C55" transform="translate(231,245)"/>
<path d="M0 0 C0.66 0.33 1.32 0.66 2 1 C-10.34745763 15.44915254 -10.34745763 15.44915254 -15 17 C-13.67879172 14.06769807 -12.25361803 12.01335101 -9.9609375 9.765625 C-9.38085938 9.19199219 -8.80078125 8.61835938 -8.203125 8.02734375 C-7.59984375 7.44082031 -6.9965625 6.85429687 -6.375 6.25 C-5.76398438 5.64800781 -5.15296875 5.04601562 -4.5234375 4.42578125 C-3.02011376 2.94594695 -1.51065144 1.47235324 0 0 Z " fill="#BD4465" transform="translate(211,399)"/>
</svg>
