<?xml version="1.0" encoding="UTF-8"?>
<svg version="1.1" xmlns="http://www.w3.org/2000/svg" width="500" height="200">
<path d="M0 0 C2.41874816 0.02141131 4.834517 0.00014906 7.25317383 -0.02539062 C15.72406027 -0.04027124 22.89706213 0.3182151 30.48950195 4.52148438 C31.14853516 4.87919922 31.80756836 5.23691406 32.48657227 5.60546875 C39.42872011 9.62397374 44.018178 18.09633005 46.48950195 25.52148438 C47.31218887 30.36703377 47.62841215 35.04263128 47.66650391 39.95385742 C47.6730751 40.66046509 47.6796463 41.36707275 47.68641663 42.09509277 C47.70595473 44.40779759 47.71776088 46.72043848 47.7277832 49.03320312 C47.73185873 49.82716806 47.73593426 50.621133 47.74013329 51.43915749 C47.76089899 55.63236854 47.77524802 59.82554767 47.78466797 64.01879883 C47.79578379 68.34662483 47.83026922 72.67394396 47.86983967 77.00158978 C47.8959506 80.33615588 47.90435426 83.67059921 47.90794945 87.00525856 C47.91282049 88.60128054 47.92444928 90.19729686 47.94298744 91.79321861 C47.96728911 94.0216606 47.96643262 96.24876152 47.95947266 98.47729492 C47.9653389 99.7441362 47.97120514 101.01097748 47.97724915 102.31620789 C47.48950195 105.52148438 47.48950195 105.52148438 45.81135559 107.92939758 C42.94548639 109.89451392 41.32878427 110.02795856 37.86987305 110.0390625 C36.74124847 110.05167114 35.6126239 110.06427979 34.44979858 110.07727051 C33.23313507 110.06917358 32.01647156 110.06107666 30.76293945 110.05273438 C29.50494537 110.05656128 28.24695129 110.06038818 26.95083618 110.06433105 C24.2855954 110.06705479 21.62181879 110.06167786 18.95678711 110.04296875 C15.56753308 110.02031709 12.17955587 110.03321242 8.79034996 110.05725861 C5.53117023 110.0753477 2.27213603 110.06260404 -0.98706055 110.05273438 C-2.79383774 110.06487976 -2.79383774 110.06487976 -4.63711548 110.07727051 C-16.10626739 109.95125246 -23.97710899 106.94824065 -32.30737305 99.03710938 C-37.49595641 93.11255674 -40.60662544 86.06945546 -40.6875 78.19897461 C-40.70033524 77.11031601 -40.71317047 76.02165741 -40.72639465 74.90000916 C-40.73378159 73.72193192 -40.74116852 72.54385468 -40.7487793 71.33007812 C-40.75685104 70.11506119 -40.76492279 68.90004425 -40.77323914 67.64820862 C-40.7870824 65.07172066 -40.79780346 62.49521433 -40.80566406 59.91870117 C-40.82282364 55.99882624 -40.86670344 52.07980632 -40.91088867 48.16015625 C-40.92102044 45.65430306 -40.92953502 43.14844272 -40.9362793 40.64257812 C-40.95378738 39.4786705 -40.97129547 38.31476288 -40.98933411 37.11558533 C-40.9617312 26.6358418 -38.2282379 17.44761566 -30.7956543 9.74414062 C-21.40682261 0.95024481 -12.47427629 -0.13137466 0 0 Z M-2.51049805 22.52148438 C-4.81871468 25.98380932 -4.78050793 27.43946754 -4.76049805 31.52148438 C-4.7656543 32.57335937 -4.77081055 33.62523437 -4.77612305 34.70898438 C-4.71516821 37.72798816 -4.71516821 37.72798816 -2.51049805 40.52148438 C-0.0378304 40.17703557 -0.0378304 40.17703557 2.48950195 39.52148438 C3.91369256 36.67310317 3.65945704 34.1936053 3.67700195 31.02148438 C3.69827148 29.27351563 3.69827148 29.27351563 3.7199707 27.49023438 C3.80393909 24.4024172 3.80393909 24.4024172 1.48950195 22.52148438 C0.16950195 22.52148438 -1.15049805 22.52148438 -2.51049805 22.52148438 Z M-18.51049805 34.52148438 C-24.9010456 41.62209277 -23.96411731 49.51136055 -23.51049805 58.52148438 C-22.59302209 65.10513055 -18.86921543 68.71899523 -13.8737793 72.88867188 C-10.74914972 75.04750685 -8.233142 75.88784285 -4.51049805 76.52148438 C-4.4125293 77.4625 -4.31456055 78.40351562 -4.21362305 79.37304688 C-2.89044595 90.62269705 -2.89044595 90.62269705 4.30200195 98.83398438 C9.5908496 101.63396254 13.57126995 102.00778235 19.23950195 100.27148438 C22.45858048 99.16844348 24.1158974 97.90146958 26.48950195 95.52148438 C28.8115672 94.81657171 31.14543263 94.14936009 33.48950195 93.52148438 C36.59235318 91.89900574 36.59235318 91.89900574 37.1418457 89.53320312 C37.64484017 85.43345367 37.87963694 83.24173359 35.86450195 79.52148438 C33.21331688 77.28890747 31.93850169 76.60560632 28.48950195 76.52148438 C25.28389277 77.28472466 23.83340694 78.14318888 21.61450195 80.58398438 C20.02294291 84.73972188 20.71097004 88.21610912 21.48950195 92.52148438 C16.74183775 94.49002807 13.47837176 94.88208523 8.48950195 93.52148438 C5.55200195 91.70898438 5.55200195 91.70898438 3.48950195 88.52148438 C3.07969777 84.48648935 3.19951806 80.56192658 3.48950195 76.52148438 C4.45049805 76.22757813 4.45049805 76.22757813 5.4309082 75.92773438 C13.00773919 73.3080253 17.7425951 69.50142095 21.63793945 62.43945312 C24.92721323 55.03104292 24.24835805 45.8962497 21.4621582 38.47070312 C19.97337762 35.48716293 18.40390594 34.11115928 15.48950195 32.52148438 C11.79975395 31.71926286 11.79975395 31.71926286 8.48950195 31.52148438 C8.48950195 33.50148437 8.48950195 35.48148438 8.48950195 37.52148438 C9.25262695 37.74835938 10.01575195 37.97523437 10.80200195 38.20898438 C14.15115104 39.84461532 14.86686482 41.20160611 16.48950195 44.52148438 C17.48738645 51.03919844 17.06493799 57.16165375 13.70043945 62.90039062 C11.13840557 66.33021018 8.51101609 68.18097966 4.48950195 69.52148438 C-1.91676806 70.31800107 -6.41104057 69.6599585 -11.8190918 66.10351562 C-15.20853218 62.93325384 -16.65786318 60.05912425 -16.90893555 55.45507812 C-16.91684424 53.95638071 -16.90865145 52.4575238 -16.88549805 50.95898438 C-16.89709961 50.20423828 -16.90870117 49.44949219 -16.9206543 48.671875 C-16.90322073 45.37402606 -16.76480423 42.97063925 -15.1237793 40.07226562 C-13.37344419 38.38974011 -11.74675818 37.4468334 -9.51049805 36.52148438 C-9.51049805 34.87148437 -9.51049805 33.22148438 -9.51049805 31.52148438 C-13.89796429 31.52148438 -15.0512201 32.01350786 -18.51049805 34.52148438 Z " fill="#F63C39" transform="translate(47.510498046875,39.478515625)"/>
<path d="M0 0 C7.10776518 5.17143048 11.15979518 11.07651901 13.5390625 19.5234375 C14.64869867 30.41335528 13.11212902 38.75934881 6.5390625 47.5234375 C8.5190625 50.4934375 10.4990625 53.4634375 12.5390625 56.5234375 C6.6796875 60.625 6.6796875 60.625 4.5390625 61.5234375 C1.07384303 60.36836434 -0.4607921 58.5236556 -2.4609375 55.5234375 C-3.00621094 55.6678125 -3.55148438 55.8121875 -4.11328125 55.9609375 C-14.26684843 58.46027711 -23.65035043 58.51883754 -32.91796875 53.08203125 C-38.50905066 49.08575214 -41.70570971 44.77479468 -44.4609375 38.5234375 C-45.110625 37.13125 -45.110625 37.13125 -45.7734375 35.7109375 C-47.9715226 25.51981567 -46.32922512 17.21357627 -41.17578125 8.30078125 C-32.1071074 -5.21381626 -13.66946342 -8.20167805 0 0 Z M-29.8359375 14.9609375 C-33.04041935 20.01415888 -34.37042815 24.50083475 -33.4609375 30.5234375 C-31.80231122 35.23427813 -29.47307651 39.4553312 -25.4609375 42.5234375 C-21.03673033 44.4897518 -17.26983287 44.71579331 -12.4609375 44.5234375 C-12.1309375 43.8634375 -11.8009375 43.2034375 -11.4609375 42.5234375 C-12.91279103 39.80506179 -12.91279103 39.80506179 -14.8984375 36.8984375 C-15.55714844 35.89554688 -16.21585938 34.89265625 -16.89453125 33.859375 C-17.41144531 33.08851562 -17.92835938 32.31765625 -18.4609375 31.5234375 C-16.54340797 31.58373717 -14.62676324 31.67260457 -12.7109375 31.7734375 C-11.64359375 31.81984375 -10.57625 31.86625 -9.4765625 31.9140625 C-5.93688242 32.62933464 -4.72211788 33.77928655 -2.4609375 36.5234375 C0.62633483 31.50661997 1.45141805 27.27829558 0.5390625 21.5234375 C-1.466131 16.27908528 -4.82078162 11.95054879 -9.7734375 9.2734375 C-17.71466524 7.05728092 -24.18961585 9.16602844 -29.8359375 14.9609375 Z " fill="#696969" transform="translate(164.4609375,65.4765625)"/>
<path d="M0 0 C1.05638672 -0.020625 2.11277344 -0.04125 3.20117188 -0.0625 C12.66307248 -0.10913907 21.26472413 1.22123721 28.73828125 7.40625 C35.10883408 13.84501004 37.34845184 20.23477274 37.58984375 29.21875 C37.58082031 30.2190625 37.57179688 31.219375 37.5625 32.25 C37.58441406 32.9821875 37.60632813 33.714375 37.62890625 34.46875 C37.38196646 41.55737448 32.72396876 48.20461109 27.75390625 52.9921875 C22.07830307 57.26469056 16.61378003 58.50709097 9.6328125 58.4453125 C8.47023926 58.44031738 7.30766602 58.43532227 6.10986328 58.43017578 C4.63574137 58.41184973 3.16162044 58.39344431 1.6875 58.375 C-0.83218778 58.35200899 -3.35188239 58.32975825 -5.87158203 58.30810547 C-8.06022135 58.28873698 -10.24886068 58.26936849 -12.4375 58.25 C-12.46062883 50.83540058 -12.47841785 43.42080889 -12.48931217 36.00618076 C-12.49453982 32.56359652 -12.50163531 29.12103688 -12.51293945 25.6784668 C-12.52584235 21.72444957 -12.53072918 17.77044244 -12.53515625 13.81640625 C-12.54031754 12.57476212 -12.54547882 11.33311798 -12.55079651 10.05384827 C-12.55087204 8.91274094 -12.55094757 7.77163361 -12.55102539 6.59594727 C-12.553246 5.585569 -12.55546661 4.57519073 -12.55775452 3.53419495 C-12.26153225 -2.09244953 -4.29577592 0.020299 0 0 Z M0.5625 12.25 C0.5377364 16.59163015 0.51960985 20.9332226 0.50756836 25.27490234 C0.50254712 26.75114661 0.49572884 28.22738592 0.48706055 29.70361328 C0.47489811 31.82846298 0.46924954 33.95324678 0.46484375 36.078125 C0.45960693 37.3559082 0.45437012 38.63369141 0.44897461 39.95019531 C0.54055368 42.6120936 0.76141486 44.73309582 1.5625 47.25 C11.95234409 47.22378161 11.95234409 47.22378161 20.5625 42.25 C24.33326999 37.04893795 24.98708812 32.61882181 24.5625 26.25 C23.25873645 20.75776773 21.49845299 17.30558994 16.5625 14.25 C12.80022271 12.46148108 9.90275342 12.02493365 5.75 12.125 C4.77417969 12.14304687 3.79835938 12.16109375 2.79296875 12.1796875 C2.05691406 12.20289062 1.32085937 12.22609375 0.5625 12.25 Z " fill="#6A6A6A" transform="translate(348.4375,62.75)"/>
<path d="M0 0 C0.16975572 3.49985722 0.33523723 6.99990446 0.5 10.5 C0.54769531 11.48226562 0.59539062 12.46453125 0.64453125 13.4765625 C0.90191812 18.99199533 1.05258434 24.47864465 1 30 C1.78246094 29.07316406 2.56492187 28.14632812 3.37109375 27.19140625 C4.39320561 25.98175093 5.41534231 24.7721166 6.4375 23.5625 C6.95376953 22.95083984 7.47003906 22.33917969 8.00195312 21.70898438 C11.88671875 17.11328125 11.88671875 17.11328125 13 16 C15.01964199 15.92755947 17.04167124 15.91622812 19.0625 15.9375 C20.71958984 15.95103516 20.71958984 15.95103516 22.41015625 15.96484375 C23.26480469 15.97644531 24.11945313 15.98804687 25 16 C25 20.49851508 24.6618698 20.84822636 21.75 23.9375 C20.79480469 24.97970703 20.79480469 24.97970703 19.8203125 26.04296875 C19.21960938 26.68878906 18.61890625 27.33460937 18 28 C14.47410027 32.02087805 14.47410027 32.02087805 13 37 C14.47529603 39.48050775 15.94665281 41.65879106 17.6875 43.9375 C18.13544922 44.54529297 18.58339844 45.15308594 19.04492188 45.77929688 C21.06971506 48.51144139 23.13324051 51.15734432 25.33203125 53.75390625 C27 56 27 56 27 59 C22.11128089 59.82417887 17.85870677 60.10150806 13 59 C8.62154304 55.62267417 5.88016151 50.62968111 3 46 C2.34 45.34 1.68 44.68 1 44 C1.01160156 44.66386719 1.02320313 45.32773438 1.03515625 46.01171875 C1.04417969 46.89472656 1.05320312 47.77773437 1.0625 48.6875 C1.07410156 49.55761719 1.08570313 50.42773438 1.09765625 51.32421875 C1 54 1 54 0 59 C-3.96 59 -7.92 59 -12 59 C-12 39.53 -12 20.06 -12 0 C-3 -1 -3 -1 0 0 Z " fill="#6B6B6B" transform="translate(305,62)"/>
<path d="M0 0 C5.37472257 3.67934028 9.78726647 8.85661906 11.21484375 15.31640625 C11.60673825 18.28282987 11.74609375 21.20468882 11.74609375 24.1953125 C11.08609375 24.1953125 10.42609375 24.1953125 9.74609375 24.1953125 C10.24109375 25.6803125 10.24109375 25.6803125 10.74609375 27.1953125 C7.72737635 33.35758148 3.53893 38.29889437 -2.62890625 41.3828125 C-9.93490488 43.64419303 -16.28332228 43.57125164 -23.20703125 40.26171875 C-28.24542396 37.09629377 -31.42454261 32.84529401 -33.25390625 27.1953125 C-34.16860362 20.18263264 -34.35385462 13.07941477 -30.5859375 6.875 C-22.93783024 -2.76924082 -11.05705326 -6.36281133 0 0 Z M-18.12890625 11.1328125 C-20.89146009 15.11414009 -21.6957857 18.36862927 -21.25390625 23.1953125 C-19.64509964 26.47251116 -18.26176319 28.42262218 -15.37890625 30.6328125 C-12.26644239 31.45669999 -10.33270817 31.13780288 -7.25390625 30.1953125 C-3.71981446 27.60364519 -2.00521082 25.46886213 -1.25390625 21.1953125 C-1.25390625 16.01526972 -2.50248594 14.00928354 -6.00390625 10.3828125 C-10.48838806 8.01600266 -13.97916195 8.33624569 -18.12890625 11.1328125 Z " fill="#696969" transform="translate(423.25390625,79.8046875)"/>
<path d="M0 0 C1.81242052 -0.02687279 3.62495233 -0.04633715 5.4375 -0.0625 C6.44683594 -0.07410156 7.45617187 -0.08570312 8.49609375 -0.09765625 C11 0 11 0 12 1 C12.13393795 2.96329295 12.20356086 4.93104087 12.24609375 6.8984375 C12.27896484 8.09984375 12.31183594 9.30125 12.34570312 10.5390625 C12.40671202 13.08845542 12.46402691 15.63793952 12.51757812 18.1875 C12.56881836 19.99347656 12.56881836 19.99347656 12.62109375 21.8359375 C12.6461499 22.94501465 12.67120605 24.0540918 12.69702148 25.19677734 C12.80390592 28.20644472 12.80390592 28.20644472 15 31 C19.07210885 31.53073253 19.07210885 31.53073253 23 31 C26.0951513 27.7886679 26.39485264 25.33515167 26.4765625 20.95703125 C26.5075 19.80138672 26.5384375 18.64574219 26.5703125 17.45507812 C26.58835938 16.25302734 26.60640625 15.05097656 26.625 13.8125 C26.67575751 11.42309037 26.73023436 9.0337558 26.7890625 6.64453125 C26.80662598 5.58596924 26.82418945 4.52740723 26.84228516 3.43676758 C27 1 27 1 28 0 C29.85287502 -0.07226502 31.70833878 -0.0838122 33.5625 -0.0625 C34.57441406 -0.05347656 35.58632812 -0.04445313 36.62890625 -0.03515625 C37.41136719 -0.02355469 38.19382813 -0.01195313 39 0 C39.87652965 4.52235333 40.12874756 8.80661623 40.1328125 13.41015625 C40.13376923 14.10008163 40.13472595 14.79000702 40.13571167 15.50083923 C40.13638839 16.9505116 40.13456975 18.40018708 40.13037109 19.84985352 C40.12500734 22.0594771 40.13033754 24.26889821 40.13671875 26.47851562 C40.13605804 27.89322961 40.13477702 29.30794347 40.1328125 30.72265625 C40.13168457 31.99890869 40.13055664 33.27516113 40.12939453 34.59008789 C40.01772446 37.53291025 39.68635621 40.14518074 39 43 C37.65808594 42.96519531 37.65808594 42.96519531 36.2890625 42.9296875 C27.91049186 42.79971222 27.91049186 42.79971222 19.6875 44.1875 C14.54184748 45.36389095 10.58847664 44.61552219 6 42 C2.48591618 38.83816324 0.11553522 35.63636632 -0.22119141 30.8671875 C-0.26421387 29.54976562 -0.30723633 28.23234375 -0.3515625 26.875 C-0.37471527 26.1722998 -0.39786804 25.46959961 -0.42172241 24.74560547 C-0.46934882 23.25951289 -0.51458452 21.77334207 -0.55761719 20.28710938 C-0.62474038 18.00881186 -0.7024973 15.73104673 -0.78125 13.453125 C-0.82616381 12.01043654 -0.87045561 10.56772855 -0.9140625 9.125 C-0.9548291 7.80757813 -0.9955957 6.49015625 -1.03759766 5.1328125 C-1 2 -1 2 0 0 Z " fill="#6B6B6B" transform="translate(184,78)"/>
<path d="M0 0 C2.52312561 1.8820876 4.34136013 3.70361352 5.921875 6.43359375 C4.64281805 10.27076461 3.1344684 10.92584924 -0.30078125 12.7734375 C-2.078125 13.43359375 -2.078125 13.43359375 -4.328125 12.80859375 C-4.905625 12.35484375 -5.483125 11.90109375 -6.078125 11.43359375 C-9.82859982 8.93327721 -11.63668766 8.89755821 -16.078125 9.43359375 C-19.04656563 11.69218988 -20.67438393 13.38386696 -22.015625 16.87109375 C-22.11261866 20.84783387 -21.08416313 23.97483846 -18.828125 27.24609375 C-16.22664858 29.01138132 -14.20549396 29.30849899 -11.078125 29.43359375 C-8.41754844 28.18725015 -8.41754844 28.18725015 -6.078125 26.43359375 C-4.1953125 25.19140625 -4.1953125 25.19140625 -2.078125 24.43359375 C0.0625 25.2265625 0.0625 25.2265625 2.171875 26.62109375 C3.23148437 27.29205078 3.23148437 27.29205078 4.3125 27.9765625 C4.84359375 28.45738281 5.3746875 28.93820313 5.921875 29.43359375 C5.921875 30.42359375 5.921875 31.41359375 5.921875 32.43359375 C5.261875 32.43359375 4.601875 32.43359375 3.921875 32.43359375 C3.695 33.01109375 3.468125 33.58859375 3.234375 34.18359375 C1.03040965 37.96182006 -1.34802367 39.90208927 -5.5703125 41.19921875 C-13.22923552 42.8540553 -18.42202669 42.54288124 -25.328125 38.55859375 C-30.21618625 34.78145551 -33.49037172 31.73473438 -34.59765625 25.515625 C-35.36098606 16.99686428 -34.87399226 10.92695185 -30.328125 3.62109375 C-21.79615137 -4.67388061 -10.11099106 -6.32833306 0 0 Z " fill="#696969" transform="translate(472.078125,80.56640625)"/>
<path d="M0 0 C2.68311327 1.80179869 4.4881617 3.65835719 6.140625 6.4375 C6.140625 7.0975 6.140625 7.7575 6.140625 8.4375 C4.53125 9.76171875 4.53125 9.76171875 2.390625 11.125 C1.69453125 11.58261719 0.9984375 12.04023437 0.28125 12.51171875 C-2.25028225 13.60656025 -3.32038362 13.3810441 -5.859375 12.4375 C-5.859375 11.7775 -5.859375 11.1175 -5.859375 10.4375 C-8.53581457 9.54535348 -10.11321878 9.30209789 -12.859375 9.3125 C-13.54 9.30992188 -14.220625 9.30734375 -14.921875 9.3046875 C-17.07812281 9.37118874 -17.07812281 9.37118874 -19.859375 10.4375 C-22.07789579 14.40748457 -22.2595682 17.95533613 -21.859375 22.4375 C-20.50637676 25.64196952 -19.53681903 27.03469544 -16.546875 28.8125 C-13.22504807 29.58501789 -11.1215892 29.4303478 -7.859375 28.4375 C-5.96646991 26.50045292 -5.96646991 26.50045292 -4.859375 24.4375 C-0.66577051 25.10847672 2.54396852 27.2933394 6.140625 29.4375 C4.74369439 34.32675715 2.20074938 36.49191957 -1.859375 39.4375 C-8.24734247 42.52880067 -15.78027131 42.7196744 -22.53125 40.59765625 C-28.1189779 37.81316768 -31.23131547 34.04559133 -33.859375 28.4375 C-36.13516651 21.61012547 -35.74911247 14.42960287 -32.671875 7.9375 C-29.54446236 2.46233781 -25.79983033 -0.70420572 -19.8671875 -3.015625 C-12.51265282 -5.01880565 -6.56583236 -3.6339198 0 0 Z " fill="#6B6B6B" transform="translate(283.859375,80.5625)"/>
<path d="M0 0 C1.51400391 0.01740234 1.51400391 0.01740234 3.05859375 0.03515625 C4.07050781 0.04417969 5.08242187 0.05320312 6.125 0.0625 C7.29869141 0.07990234 7.29869141 0.07990234 8.49609375 0.09765625 C9.49142141 4.23760649 9.62514866 8.1232893 9.62890625 12.375 C9.62986298 13.06396866 9.6308197 13.75293732 9.63180542 14.46278381 C9.63248329 15.91423637 9.63065651 17.36569201 9.62646484 18.81713867 C9.6211192 21.024647 9.62641893 23.23195113 9.6328125 25.43945312 C9.63215149 26.85546919 9.63086985 28.27148514 9.62890625 29.6875 C9.62777832 30.96488037 9.62665039 32.24226074 9.62548828 33.55834961 C9.50579895 36.83219159 9.11865365 39.88563047 8.49609375 43.09765625 C4.53609375 43.09765625 0.57609375 43.09765625 -3.50390625 43.09765625 C-3.52855199 37.13452459 -3.54674025 31.1714223 -3.55883789 25.20825195 C-3.56387903 23.17797327 -3.57071182 21.14769823 -3.5793457 19.11743164 C-3.59142092 16.20588278 -3.59713659 13.29438175 -3.6015625 10.3828125 C-3.60672379 9.46927505 -3.61188507 8.55573761 -3.61720276 7.61451721 C-3.61739793 5.44190198 -3.5660243 3.26938329 -3.50390625 1.09765625 C-2.50390625 0.09765625 -2.50390625 0.09765625 0 0 Z " fill="#676767" transform="translate(234.50390625,77.90234375)"/>
<path d="M0 0 C0.7734375 0.10441406 1.546875 0.20882812 2.34375 0.31640625 C2.34375 4.81492133 2.0056198 5.16463261 -0.90625 8.25390625 C-1.54304688 8.94871094 -2.17984375 9.64351562 -2.8359375 10.359375 C-3.43664062 11.00519531 -4.03734375 11.65101562 -4.65625 12.31640625 C-8.18214973 16.3372843 -8.18214973 16.3372843 -9.65625 21.31640625 C-8.18095397 23.796914 -6.70959719 25.97519731 -4.96875 28.25390625 C-4.29682617 29.1655957 -4.29682617 29.1655957 -3.61132812 30.09570312 C-1.58653494 32.82784764 0.47699051 35.47375057 2.67578125 38.0703125 C4.34375 40.31640625 4.34375 40.31640625 4.34375 43.31640625 C-0.5467523 44.14088574 -4.79718006 44.42576003 -9.65625 43.31640625 C-14.02321763 39.92837584 -16.86167327 35.00408335 -19.65625 30.31640625 C-18.66625 29.98640625 -17.67625 29.65640625 -16.65625 29.31640625 C-10.65625 37.31640625 -10.65625 37.31640625 -9.25 39.56640625 C-7.78741797 41.53209 -7.78741797 41.53209 -5.39453125 41.70703125 C-4.59402344 41.660625 -3.79351562 41.61421875 -2.96875 41.56640625 C-1.75638672 41.51226562 -1.75638672 41.51226562 -0.51953125 41.45703125 C0.09535156 41.410625 0.71023438 41.36421875 1.34375 41.31640625 C-1.03254089 37.16970586 -1.03254089 37.16970586 -4.65625 34.31640625 C-5.32291667 32.98307292 -5.98958333 31.64973958 -6.65625 30.31640625 C-7.96946858 28.63384495 -9.30238064 26.96643453 -10.65625 25.31640625 C-13.00274842 21.79665862 -12.77275335 20.87950065 -12.28125 16.81640625 C-11.94871682 13.93960758 -11.65625 11.21483616 -11.65625 8.31640625 C-12.64625 8.31640625 -13.63625 8.31640625 -14.65625 8.31640625 C-14.98625 9.30640625 -15.31625 10.29640625 -15.65625 11.31640625 C-16.31625 10.65640625 -16.97625 9.99640625 -17.65625 9.31640625 C-12.59701644 1.81683651 -9.16245855 -0.71439961 0 0 Z " fill="#6B6B6B" transform="translate(327.65625,77.68359375)"/>
<path d="M0 0 C2.75853875 2.60090796 3.58871632 4.32010198 4.1875 8.0625 C3.25 10.875 3.25 10.875 1.1875 13.0625 C-2.1875 14.1875 -2.1875 14.1875 -5.8125 14.0625 C-8.8125 12.0625 -8.8125 12.0625 -10.8125 9.0625 C-11.0625 5.4375 -11.0625 5.4375 -9.8125 2.0625 C-6.15798364 -0.32699146 -4.23432926 -1.41144309 0 0 Z " fill="#686868" transform="translate(240.8125,60.9375)"/>
<path d="M0 0 C2.8125 1.375 2.8125 1.375 4.8125 4.375 C4.62102432 7.43861086 4.23427804 9.64860449 2.6875 12.3125 C-0.45421287 14.09280396 -2.81522888 13.27828691 -6.1875 12.375 C-8.1875 10.6875 -8.1875 10.6875 -9.1875 8.375 C-9.1875 5.3125 -9.1875 5.3125 -8.1875 2.375 C-5.2029985 -0.35368709 -3.9954035 -0.78341245 0 0 Z " fill="#E43F3C" transform="translate(95.1875,34.625)"/>
<path d="M0 0 C3.125 0.3125 3.125 0.3125 4.9375 1.9375 C6.33233661 4.72717322 6.77429575 7.22630261 7.125 10.3125 C7.455 9.9825 7.785 9.6525 8.125 9.3125 C9.79117115 9.27186168 11.45888095 9.269779 13.125 9.3125 C11.805 9.6425 10.485 9.9725 9.125 10.3125 C9.16625 11.26125 9.2075 12.21 9.25 13.1875 C9.125 16.3125 9.125 16.3125 7.125 18.3125 C6.465 17.6525 5.805 16.9925 5.125 16.3125 C4.795 16.3125 4.465 16.3125 4.125 16.3125 C3.63 9.8775 3.63 9.8775 3.125 3.3125 C0.65 2.8175 0.65 2.8175 -1.875 2.3125 C-3.24038938 5.04327876 -3.00731826 7.26810367 -3 10.3125 C-3.00257812 11.385 -3.00515625 12.4575 -3.0078125 13.5625 C-3.0622341 16.27432052 -3.0622341 16.27432052 -1.875 18.3125 C-0.225 18.3125 1.425 18.3125 3.125 18.3125 C2.795 18.9725 2.465 19.6325 2.125 20.3125 C0.145 20.3125 -1.835 20.3125 -3.875 20.3125 C-3.875 19.3225 -3.875 18.3325 -3.875 17.3125 C-4.82375 17.498125 -5.7725 17.68375 -6.75 17.875 C-9.875 18.3125 -9.875 18.3125 -11.875 17.3125 C-12.0296875 18.2715625 -12.0296875 18.2715625 -12.1875 19.25 C-12.414375 19.930625 -12.64125 20.61125 -12.875 21.3125 C-13.865 21.6425 -14.855 21.9725 -15.875 22.3125 C-15.875 27.2625 -15.875 32.2125 -15.875 37.3125 C-16.205 37.3125 -16.535 37.3125 -16.875 37.3125 C-16.98345031 34.74885517 -17.06249744 32.18983721 -17.125 29.625 C-17.15851562 28.90376953 -17.19203125 28.18253906 -17.2265625 27.43945312 C-17.29678989 23.59450351 -17.10770206 21.70441927 -15.09375 18.3125 C-12.875 16.3125 -12.875 16.3125 -9.125 16 C-8.0525 16.103125 -6.98 16.20625 -5.875 16.3125 C-5.89820313 15.64863281 -5.92140625 14.98476562 -5.9453125 14.30078125 C-6.12684204 5.41880019 -6.12684204 5.41880019 -3.875 1.3125 C-2.875 0.3125 -2.875 0.3125 0 0 Z " fill="#D74743" transform="translate(46.875,60.6875)"/>
<path d="M0 0 C0.33 0 0.66 0 1 0 C1 1.98 1 3.96 1 6 C0.34 6 -0.32 6 -1 6 C-1 24.81 -1 43.62 -1 63 C-1.66 63 -2.32 63 -3 63 C-3.07627947 55.31370424 -3.12869635 47.6275067 -3.16479492 39.94091797 C-3.17984933 37.32792513 -3.2002973 34.71495742 -3.22631836 32.10205078 C-3.26284778 28.33880395 -3.2797604 24.57589225 -3.29296875 20.8125 C-3.30845261 19.65073242 -3.32393646 18.48896484 -3.33988953 17.29199219 C-3.34122813 10.79052155 -2.74128569 5.9189006 0 0 Z " fill="#CF4845" transform="translate(10,59)"/>
<path d="M0 0 C0.99 0 1.98 0 3 0 C3.87652965 4.52235333 4.12874756 8.80661623 4.1328125 13.41015625 C4.13376923 14.10008163 4.13472595 14.79000702 4.13571167 15.50083923 C4.13638839 16.9505116 4.13456975 18.40018708 4.13037109 19.84985352 C4.12500734 22.0594771 4.13033754 24.26889821 4.13671875 26.47851562 C4.13605804 27.89322961 4.13477702 29.30794347 4.1328125 30.72265625 C4.13168457 31.99890869 4.13055664 33.27516113 4.12939453 34.59008789 C4.01772446 37.53291025 3.68635621 40.14518074 3 43 C1.65808594 42.96519531 1.65808594 42.96519531 0.2890625 42.9296875 C-8.08950814 42.79971222 -8.08950814 42.79971222 -16.3125 44.1875 C-21.35349268 45.38098006 -25.45121802 44.44535888 -30 42 C-30.33 41.34 -30.66 40.68 -31 40 C-26.125 40.875 -26.125 40.875 -25 42 C-20.99860049 42.24498364 -17.53421051 41.97639262 -13.6875 40.9375 C-10 40 -10 40 -8 41 C-6.29636178 41.22622081 -4.58671299 41.40888473 -2.875 41.5625 C-1.96492188 41.64628906 -1.05484375 41.73007813 -0.1171875 41.81640625 C0.58148438 41.87699219 1.28015625 41.93757813 2 42 C1.90660525 36.48211662 1.80054369 30.96467935 1.68261719 25.44726562 C1.64428023 23.56940424 1.60943573 21.69146824 1.578125 19.81347656 C1.53257637 17.11756679 1.47456625 14.42217288 1.4140625 11.7265625 C1.40251129 10.88380768 1.39096008 10.04105286 1.37905884 9.17276001 C1.45806819 4.60979043 1.45806819 4.60979043 -1 1 C-0.67 0.67 -0.34 0.34 0 0 Z " fill="#4E4E4E" transform="translate(220,78)"/>
<path d="M0 0 C0.99 0.33 1.98 0.66 3 1 C2.2884375 1.61875 2.2884375 1.61875 1.5625 2.25 C-0.22395497 4.25082957 -0.64687276 5.36214873 -1 8 C0.47529603 10.48050775 1.94665281 12.65879106 3.6875 14.9375 C4.13544922 15.54529297 4.58339844 16.15308594 5.04492188 16.77929688 C7.06971506 19.51144139 9.13324051 22.15734432 11.33203125 24.75390625 C13 27 13 27 13 30 C8.1094977 30.82447949 3.85906994 31.10935378 -1 30 C-5.36696763 26.61196959 -8.20542327 21.6876771 -11 17 C-10.01 16.67 -9.02 16.34 -8 16 C-2 24 -2 24 -0.59375 26.25 C0.86883203 28.21568375 0.86883203 28.21568375 3.26171875 28.390625 C4.46248047 28.32101563 4.46248047 28.32101563 5.6875 28.25 C6.89986328 28.19585937 6.89986328 28.19585937 8.13671875 28.140625 C8.75160156 28.09421875 9.36648438 28.0478125 10 28 C7.62370911 23.85329961 7.62370911 23.85329961 4 21 C3.33333333 19.66666667 2.66666667 18.33333333 2 17 C0.68678142 15.3174387 -0.64613064 13.65002828 -2 12 C-4 9 -4 9 -3.8125 6.5625 C-2.95218569 3.84920103 -1.83477535 2.15386671 0 0 Z " fill="#565656" transform="translate(319,91)"/>
<path d="M0 0 C0.33 0 0.66 0 1 0 C1.33 1.98 1.66 3.96 2 6 C3.65 6.33 5.3 6.66 7 7 C6.01 8.485 6.01 8.485 5 10 C4.34 10 3.68 10 3 10 C3.33 11.32 3.66 12.64 4 14 C7.63 14 11.26 14 15 14 C15.28875 12.535625 15.5775 11.07125 15.875 9.5625 C16.3671875 7.06640625 16.3671875 7.06640625 17 5 C17.66 4.67 18.32 4.34 19 4 C19 7.96 19 11.92 19 16 C15.59709055 18.07494479 13.46208442 19 9.4375 19 C5.37697465 17.81875626 3.70824581 16.18617154 1 13 C0.67 12.67 0.34 12.34 0 12 C-0.07244053 9.98035801 -0.08377188 7.95832876 -0.0625 5.9375 C-0.05347656 4.83277344 -0.04445312 3.72804688 -0.03515625 2.58984375 C-0.02355469 1.73519531 -0.01195312 0.88054687 0 0 Z " fill="#E24442" transform="translate(50,116)"/>
<path d="M0 0 C1.32 0 2.64 0 4 0 C7.45279604 3.64461804 8.26114948 6.17715611 8.3125 11.1875 C8.2261999 14.14441383 7.94496268 16.16511195 7 19 C2.82030783 22.65723065 -0.48069653 23.65045842 -5.8828125 23.38671875 C-9.16247742 22.78766556 -10.80698839 21.4588312 -13 19 C-15.04836816 15.29342904 -15.34973495 12.1968194 -15 8 C-14 5.125 -14 5.125 -13 3 C-12.01 3.33 -11.02 3.66 -10 4 C-10.33 4.53625 -10.66 5.0725 -11 5.625 C-12.29617187 8.70340819 -12.39874003 10.67716638 -12 14 C-10.58961088 17.40726463 -10.58961088 17.40726463 -8 20 C-4.09137251 21.20812122 -1.99604956 21.39841982 1.8125 19.875 C4.45668746 17.60855361 5.24350212 16.40424045 6 13 C6.16443631 8.23134687 5.59140592 5.69237766 2.4375 2 C1.633125 1.34 0.82875 0.68 0 0 Z " fill="#535353" transform="translate(415,89)"/>
<path d="M0 0 C0.33 0 0.66 0 1 0 C1.66 7.26 2.32 14.52 3 22 C8.4140625 22.0928125 8.4140625 22.0928125 13.9375 22.1875 C15.05632568 22.21481201 16.17515137 22.24212402 17.32788086 22.27026367 C26.55276213 22.34609802 33.58605744 20.51293165 41 15 C41 15.99 41 16.98 41 18 C39.56429734 18.81567174 38.12636566 19.62742093 36.6875 20.4375 C35.48673828 21.11619141 35.48673828 21.11619141 34.26171875 21.80859375 C30.14420655 23.97757686 26.9609184 24.11773327 22.36328125 24.09765625 C21.06455078 24.09443359 19.76582031 24.09121094 18.42773438 24.08789062 C17.05598892 24.07953531 15.68424413 24.07107037 14.3125 24.0625 C12.92903805 24.05748335 11.54557437 24.05292073 10.16210938 24.04882812 C6.77472104 24.03702538 3.3873551 24.01908967 0 24 C0 16.08 0 8.16 0 0 Z " fill="#5B5B5B" transform="translate(336,97)"/>
<path d="M0 0 C0.66 0.33 1.32 0.66 2 1 C1.01 1.33 0.02 1.66 -1 2 C-1 2.66 -1 3.32 -1 4 C-1.66 4 -2.32 4 -3 4 C-3 4.66 -3 5.32 -3 6 C-3.66 6 -4.32 6 -5 6 C-5.144375 6.78375 -5.28875 7.5675 -5.4375 8.375 C-6 11 -6 11 -7 13 C-7.86264272 21.22240465 -7.79074378 27.51121465 -2.703125 34.23046875 C-0.93418818 36.06837788 0.91498872 37.53595947 3 39 C2.67 39.66 2.34 40.32 2 41 C-4.25695621 37.50774537 -7.73058234 32.80825298 -10 26 C-10.89820625 17.56969275 -9.90200712 11.02179398 -5 4 C-2.1875 1.375 -2.1875 1.375 0 0 Z " fill="#5A5A5A" transform="translate(259,80)"/>
<path d="M0 0 C0.9583374 0.00523682 1.9166748 0.01047363 2.90405273 0.01586914 C4.45576172 0.02070312 4.45576172 0.02070312 6.03881836 0.02563477 C7.12743164 0.03401367 8.21604492 0.04239258 9.33764648 0.05102539 C10.97636719 0.05779297 10.97636719 0.05779297 12.64819336 0.06469727 C15.35723144 0.07652713 18.06616248 0.09300996 20.77514648 0.11352539 C20.77514648 0.44352539 20.77514648 0.77352539 20.77514648 1.11352539 C13.43750942 2.28754732 6.19349231 2.20729662 -1.22485352 2.11352539 C-1.21325195 2.67297852 -1.20165039 3.23243164 -1.18969727 3.80883789 C-1.10561938 11.27975843 -1.62419242 18.66961825 -2.22485352 26.11352539 C-2.55485352 26.11352539 -2.88485352 26.11352539 -3.22485352 26.11352539 C-3.25372103 21.96770652 -3.27160679 17.82191323 -3.28735352 13.67602539 C-3.29573242 12.49202148 -3.30411133 11.30801758 -3.31274414 10.08813477 C-3.3159668 8.96342773 -3.31918945 7.8387207 -3.32250977 6.67993164 C-3.32774658 5.63780518 -3.3329834 4.59567871 -3.33837891 3.52197266 C-3.19081143 0.39132074 -3.12177875 0.1592919 0 0 Z " fill="#5F5F5F" transform="translate(339.224853515625,62.886474609375)"/>
<path d="M0 0 C0.99 0 1.98 0 3 0 C5.21827865 11.3906848 4.10058954 23.52242332 3 35 C2.67 35 2.34 35 2 35 C1.98018066 34.04109863 1.96036133 33.08219727 1.93994141 32.09423828 C1.86395855 28.54188447 1.7752307 24.98994424 1.68261719 21.43798828 C1.64429699 19.89965979 1.60944944 18.36124075 1.578125 16.82275391 C1.53253941 14.61327724 1.4745366 12.40442552 1.4140625 10.1953125 C1.40251129 9.50567413 1.39096008 8.81603577 1.37905884 8.10549927 C1.35048978 4.1079846 1.35048978 4.1079846 -1 1 C-0.67 0.67 -0.34 0.34 0 0 Z " fill="#3D3D3D" transform="translate(220,78)"/>
<path d="M0 0 C4.19360449 0.67097672 7.40334352 2.8558394 11 5 C9.75023244 8.65316671 9.32901247 9.78065836 6 12 C6.33 10.02 6.66 8.04 7 6 C4.69 5.01 2.38 4.02 0 3 C-0.33 3.99 -0.66 4.98 -1 6 C-3.31 6.33 -5.62 6.66 -8 7 C-8.33 6.34 -8.66 5.68 -9 5 C-8.071875 4.9175 -7.14375 4.835 -6.1875 4.75 C-2.91490121 4.29742448 -2.91490121 4.29742448 -1.125 1.9375 C-0.75375 1.298125 -0.3825 0.65875 0 0 Z " fill="#5B5B5B" transform="translate(279,105)"/>
<path d="M0 0 C1.65 0 3.3 0 5 0 C6.42540264 3.32593949 7.32860425 6.4511939 8 10 C8.33 10.66 8.66 11.32 9 12 C4.36392345 10.80786603 2.50173811 8.47097229 -0.1796875 4.75390625 C-1 3 -1 3 0 0 Z " fill="#F33B37" transform="translate(31,96)"/>
<path d="M0 0 C2.05078125 0.03255208 4.1015625 0.06510417 6.15234375 0.09765625 C5.82234375 0.75765625 5.49234375 1.41765625 5.15234375 2.09765625 C3.17234375 2.09765625 1.19234375 2.09765625 -0.84765625 2.09765625 C-1.17765625 10.34765625 -1.50765625 18.59765625 -1.84765625 27.09765625 C-2.17765625 27.09765625 -2.50765625 27.09765625 -2.84765625 27.09765625 C-2.87652162 22.78517016 -2.8944088 18.47270863 -2.91015625 14.16015625 C-2.91853516 12.92845703 -2.92691406 11.69675781 -2.93554688 10.42773438 C-2.93876953 9.25791016 -2.94199219 8.08808594 -2.9453125 6.8828125 C-2.95054932 5.7987915 -2.95578613 4.71477051 -2.96118164 3.59790039 C-2.80454695 0.14823187 -2.80454695 0.14823187 0 0 Z " fill="#5F5F5F" transform="translate(213.84765625,77.90234375)"/>
<path d="M0 0 C1.51400391 0.01740234 1.51400391 0.01740234 3.05859375 0.03515625 C4.07050781 0.04417969 5.08242187 0.05320312 6.125 0.0625 C7.29869141 0.07990234 7.29869141 0.07990234 8.49609375 0.09765625 C8.49609375 3.39765625 8.49609375 6.69765625 8.49609375 10.09765625 C8.16609375 10.09765625 7.83609375 10.09765625 7.49609375 10.09765625 C7.49609375 7.45765625 7.49609375 4.81765625 7.49609375 2.09765625 C4.52609375 2.09765625 1.55609375 2.09765625 -1.50390625 2.09765625 C-1.83390625 5.06765625 -2.16390625 8.03765625 -2.50390625 11.09765625 C-2.83390625 11.09765625 -3.16390625 11.09765625 -3.50390625 11.09765625 C-3.53078776 9.45191059 -3.55024748 7.80604212 -3.56640625 6.16015625 C-3.57800781 5.24363281 -3.58960938 4.32710938 -3.6015625 3.3828125 C-3.46380636 0.15931892 -3.23579438 0.12620103 0 0 Z " fill="#5E5E5E" transform="translate(234.50390625,77.90234375)"/>
<path d="M0 0 C4.24023501 3.39218801 5.22688296 6.82606288 6 12 C6.125 15.5 6.125 15.5 6 18 C5.34 18 4.68 18 4 18 C4.33 18.99 4.66 19.98 5 21 C4.34 21.33 3.68 21.66 3 22 C2.95101563 20.99839844 2.90203125 19.99679688 2.8515625 18.96484375 C2.77645921 17.62237241 2.70091474 16.2799257 2.625 14.9375 C2.55539062 13.62652344 2.48578125 12.31554687 2.4140625 10.96484375 C2.00194564 7.01863043 1.20243433 3.75882927 0 0 Z " fill="#434343" transform="translate(429,86)"/>
<path d="M0 0 C0 1.32 0 2.64 0 4 C-2 5.75 -2 5.75 -4 7 C-3.67 5.68 -3.34 4.36 -3 3 C-4.43655854 2.91868537 -5.8744483 2.86066441 -7.3125 2.8125 C-8.11300781 2.77769531 -8.91351563 2.74289063 -9.73828125 2.70703125 C-12.47851584 3.06198392 -13.29171079 3.89366282 -15 6 C-15.66 5.67 -16.32 5.34 -17 5 C-12.51340124 -1.4094268 -7.34182201 -0.52692502 0 0 Z " fill="#585858" transform="translate(330,78)"/>
<path d="M0 0 C0.66 0.33 1.32 0.66 2 1 C1.67 3.31 1.34 5.62 1 8 C0.443125 7.360625 -0.11375 6.72125 -0.6875 6.0625 C-3.31631851 3.71787809 -4.51088656 3.16614826 -8 3 C-11.24236568 3.85771342 -11.24236568 3.85771342 -14 5 C-14.33 3.68 -14.66 2.36 -15 1 C-13.25008666 0.97284617 -11.50005055 0.95353449 -9.75 0.9375 C-8.28820312 0.92009766 -8.28820312 0.92009766 -6.796875 0.90234375 C-4.34241322 0.98804423 -2.33831086 1.29293934 0 2 C0 1.34 0 0.68 0 0 Z " fill="#E44443" transform="translate(84,114)"/>
<path d="M0 0 C0.99 0 1.98 0 3 0 C3 0.66 3 1.32 3 2 C3.66 2 4.32 2 5 2 C5 2.66 5 3.32 5 4 C5.66 4 6.32 4 7 4 C9.68219822 9.36439644 10.3152595 13.01006953 10 19 C9.34 19.33 8.68 19.66 8 20 C7.92523438 19.2265625 7.85046875 18.453125 7.7734375 17.65625 C6.83402951 10.21466511 5.14312853 5.49894246 0 0 Z " fill="#5A5A5A" transform="translate(157,76)"/>
<path d="M0 0 C7.04186385 0.25606778 11.60809274 2.45888678 17 7 C20 10.53215078 20 10.53215078 20 13 C16.67479106 11.89159702 16.40959634 11.40634602 14.5 8.6875 C10.66832575 3.96112009 5.69198443 2.63062187 0 1 C0 0.67 0 0.34 0 0 Z " fill="#5B5B5B" transform="translate(361,64)"/>
<path d="M0 0 C3.66464055 0.4952217 5.70832354 1.0208206 8 4 C9.04976964 7.14930893 9.10131595 9.38814456 9.0625 12.6875 C9.05347656 13.68136719 9.04445313 14.67523438 9.03515625 15.69921875 C9.02355469 16.45847656 9.01195313 17.21773437 9 18 C8.34 17.67 7.68 17.34 7 17 C6.84772092 15.25464745 6.77810306 13.50175759 6.75 11.75 C6.53443117 7.66288661 6.53443117 7.66288661 4.60546875 4.1953125 C2.7809475 2.70527185 2.7809475 2.70527185 0 1 C0 0.67 0 0.34 0 0 Z " fill="#D34A47" transform="translate(56,77)"/>
<path d="M0 0 C0.33 0 0.66 0 1 0 C1.80917656 4.58533383 1.93391785 7.33041073 1 12 C-2.96 12 -6.92 12 -11 12 C-11 10.35 -11 8.7 -11 7 C-10.34 7.66 -9.68 8.32 -9 9 C-6.79749008 9.46006346 -6.79749008 9.46006346 -4.375 9.625 C-2.93125 9.74875 -1.4875 9.8725 0 10 C0 6.7 0 3.4 0 0 Z " fill="#575757" transform="translate(304,109)"/>
<path d="M0 0 C4.86744538 0.34157511 7.29487506 0.53678984 10.5625 4.25 C11.2225 4.91 11.8825 5.57 12.5625 6.25 C11.2425 6.58 9.9225 6.91 8.5625 7.25 C8.2325 6.26 7.9025 5.27 7.5625 4.25 C4.41319107 3.20023036 2.17435544 3.14868405 -1.125 3.1875 C-2.11886719 3.19652344 -3.11273438 3.20554687 -4.13671875 3.21484375 C-4.89597656 3.22644531 -5.65523438 3.23804687 -6.4375 3.25 C-4.12725196 0.5816284 -3.74944471 0.27268689 0 0 Z " fill="#5A5A5A" transform="translate(270.4375,86.75)"/>
<path d="M0 0 C0.309375 0.639375 0.61875 1.27875 0.9375 1.9375 C1.8345163 3.93610821 1.8345163 3.93610821 3 5 C4.66617115 5.04063832 6.33388095 5.042721 8 5 C6.68 5.33 5.36 5.66 4 6 C4.061875 7.423125 4.061875 7.423125 4.125 8.875 C4 12 4 12 2 14 C0 12 0 12 -1 10 C-0.9129796 8.28766312 -0.75902838 6.57824594 -0.5625 4.875 C-0.46066406 3.96492188 -0.35882813 3.05484375 -0.25390625 2.1171875 C-0.17011719 1.41851562 -0.08632813 0.71984375 0 0 Z " fill="#E74641" transform="translate(52,65)"/>
<path d="M0 0 C0.33 0 0.66 0 1 0 C1.10957031 0.94101563 1.21914063 1.88203125 1.33203125 2.8515625 C1.49058594 4.09679687 1.64914063 5.34203125 1.8125 6.625 C1.96332031 7.85476562 2.11414062 9.08453125 2.26953125 10.3515625 C3.00403689 14.02016288 4.17633885 16.75238425 6 20 C4.02 19.67 2.04 19.34 0 19 C0 12.73 0 6.46 0 0 Z " fill="#D84847" transform="translate(43,116)"/>
<path d="M0 0 C2.23452813 2.03736389 2.81906918 2.98016873 3.125 5.9375 C2.568125 5.256875 2.01125 4.57625 1.4375 3.875 C-0.69980171 1.67539712 -0.69980171 1.67539712 -3.4375 1.875 C-6.59025603 3.24927827 -7.27726294 4.97027404 -8.875 7.9375 C-9.535 7.9375 -10.195 7.9375 -10.875 7.9375 C-10.8125 5.125 -10.8125 5.125 -9.875 1.9375 C-6.14737553 -0.42810783 -4.24542901 -1.56896289 0 0 Z " fill="#575757" transform="translate(240.875,61.0625)"/>
<path d="M0 0 C0.66 0.33 1.32 0.66 2 1 C0.63016497 4.16115776 0.0109362 4.9927092 -3 7 C-5.69837212 7.41890051 -8.29762116 7.38846696 -11 7 C-13 5.5 -13 5.5 -14 4 C-12.35349928 4 -10.70468094 4.02143445 -9.0625 4.140625 C-6.9785193 4.25113913 -5.068302 4.29300945 -3 4 C-0.94729537 2.15811388 -0.94729537 2.15811388 0 0 Z " fill="#585858" transform="translate(210,105)"/>
<path d="M0 0 C0.66 0 1.32 0 2 0 C2.29132813 0.66386719 2.58265625 1.32773438 2.8828125 2.01171875 C5.53701471 7.72910401 7.81466243 11.38232262 13 15 C12.67 15.66 12.34 16.32 12 17 C6.60685155 13.98987063 3.72424802 10.54735988 1 5 C0.1875 2 0.1875 2 0 0 Z " fill="#545454" transform="translate(249,104)"/>
<path d="M0 0 C-0.53109375 0.23074219 -1.0621875 0.46148437 -1.609375 0.69921875 C-6.26383594 2.84808484 -8.94088015 4.7642956 -12 9 C-12.66 9 -13.32 9 -14 9 C-14 9.66 -14 10.32 -14 11 C-14.66 10.67 -15.32 10.34 -16 10 C-12.32363704 4.20694321 -7.72922318 -2.57077007 0 0 Z " fill="#5A5A5A" transform="translate(455,79)"/>
<path d="M0 0 C0.33 0.99 0.66 1.98 1 3 C0.505 3.433125 0.01 3.86625 -0.5 4.3125 C-2.33218192 5.99740483 -2.33218192 5.99740483 -2 9 C-2.99 9.495 -2.99 9.495 -4 10 C-4.73075648 12.3140622 -5.40138258 14.64828869 -6 17 C-6.66 17 -7.32 17 -8 17 C-7.50784387 10.60197029 -4.53442607 4.53442607 0 0 Z " fill="#5A5A5A" transform="translate(127,69)"/>
<path d="M0 0 C0.33 0.66 0.66 1.32 1 2 C2.32 1.67 3.64 1.34 5 1 C5.33 4.96 5.66 8.92 6 13 C2.47612355 8.88881081 0 5.53491888 0 0 Z " fill="#D64846" transform="translate(8,123)"/>
<path d="M0 0 C0.66 0.66 1.32 1.32 2 2 C-3.75445497 6.37338578 -8.49314299 9.44157982 -16 9 C-13.79478274 6.79478274 -12.62651748 6.46471928 -9.6875 5.625 C-5.75842386 4.38924218 -3.04567209 2.84917711 0 0 Z " fill="#4D4D4D" transform="translate(376,112)"/>
<path d="M0 0 C0.66 0 1.32 0 2 0 C2.66 1.65 3.32 3.3 4 5 C2.7636832 5.89422914 1.51028438 6.76487891 0.25 7.625 C-0.44609375 8.11226562 -1.1421875 8.59953125 -1.859375 9.1015625 C-4 10 -4 10 -6.203125 9.2734375 C-8 8 -8 8 -9 6 C-8.278125 6.2475 -7.55625 6.495 -6.8125 6.75 C-3.8205652 7.31737069 -3.8205652 7.31737069 -1.1875 5.0625 C-0.465625 4.381875 0.25625 3.70125 1 3 C0.67 2.01 0.34 1.02 0 0 Z " fill="#525252" transform="translate(474,84)"/>
<path d="M0 0 C6.37207951 0.2889832 10.75121239 1.28210878 16 5 C16.33 5.99 16.66 6.98 17 8 C15.68 7.67 14.36 7.34 13 7 C13 6.34 13 5.68 13 5 C12.31292969 4.80664062 11.62585938 4.61328125 10.91796875 4.4140625 C10.01691406 4.15367188 9.11585938 3.89328125 8.1875 3.625 C6.84751953 3.24214844 6.84751953 3.24214844 5.48046875 2.8515625 C3 2 3 2 0 0 Z " fill="#5C5C5C" transform="translate(270,77)"/>
<path d="M0 0 C0.33 0.66 0.66 1.32 1 2 C-0.36125 2.6496875 -0.36125 2.6496875 -1.75 3.3125 C-4.9218074 4.81818437 -4.9218074 4.81818437 -7.0625 6.6875 C-9.50754255 8.34381914 -11.1075375 8.24103854 -14 8 C-13.21625 7.38125 -12.4325 6.7625 -11.625 6.125 C-9.03162353 4.10141339 -9.03162353 4.10141339 -7 2 C-4.68234271 1.28072705 -2.34904126 0.6090107 0 0 Z " fill="#D54443" transform="translate(81,132)"/>
<path d="M0 0 C-0.556875 0.4125 -1.11375 0.825 -1.6875 1.25 C-2.8321875 2.11625 -2.8321875 2.11625 -4 3 C-5.2684375 3.928125 -5.2684375 3.928125 -6.5625 4.875 C-9.06929946 7.06041491 -10.45706998 9.07655364 -12 12 C-13 9 -13 9 -11.6875 6.3125 C-11.130625 5.549375 -10.57375 4.78625 -10 4 C-9.34 4 -8.68 4 -8 4 C-8 3.34 -8 2.68 -8 2 C-4.77208445 -0.1519437 -3.71599191 -0.20086443 0 0 Z " fill="#545454" transform="translate(144,74)"/>
<path d="M0 0 C0.99 0.33 1.98 0.66 3 1 C2.67 1.53625 2.34 2.0725 2 2.625 C0.32770065 6.59671095 0.65692484 9.97077453 2 14 C1.01 14 0.02 14 -1 14 C-2.51708428 4.58997722 -2.51708428 4.58997722 0 0 Z " fill="#4E4E4E" transform="translate(402,92)"/>
<path d="M0 0 C3.96 0 7.92 0 12 0 C12.66 1.32 13.32 2.64 14 4 C13.484375 3.690625 12.96875 3.38125 12.4375 3.0625 C9.33334577 1.70940713 6.34884993 1.38640576 3 1 C3.33 2.32 3.66 3.64 4 5 C3.01 4.67 2.02 4.34 1 4 C0.67 2.68 0.34 1.36 0 0 Z " fill="#585858" transform="translate(146,97)"/>
<path d="M0 0 C0.33 0 0.66 0 1 0 C0.58035466 14.14204809 0.58035466 14.14204809 -4 19 C-4.66 19 -5.32 19 -6 19 C-5.70222656 18.44183594 -5.40445312 17.88367188 -5.09765625 17.30859375 C-3.96273379 14.92162161 -3.18328615 12.59661104 -2.4375 10.0625 C-2.18871094 9.22847656 -1.93992187 8.39445312 -1.68359375 7.53515625 C-1.00996724 5.03696423 -0.47752966 2.54227694 0 0 Z " fill="#5E5E5E" transform="translate(383,94)"/>
<path d="M0 0 C1.9375 0.3125 1.9375 0.3125 4 1 C4.33 1.99 4.66 2.98 5 4 C4.34 4.66 3.68 5.32 3 6 C0.875 5.625 0.875 5.625 -1 5 C-0.67 3.35 -0.34 1.7 0 0 Z " fill="#DA413E" transform="translate(75,122)"/>
<path d="M0 0 C0.33 0 0.66 0 1 0 C1 2.31 1 4.62 1 7 C0.34 7 -0.32 7 -1 7 C-1 7.66 -1 8.32 -1 9 C-2.65 9 -4.3 9 -6 9 C-5.02501855 7.4972763 -4.04490611 5.99788037 -3.0625 4.5 C-2.51722656 3.6646875 -1.97195312 2.829375 -1.41015625 1.96875 C-0.94480469 1.3190625 -0.47945313 0.669375 0 0 Z " fill="#DA4740" transform="translate(68,102)"/>
<path d="M0 0 C0.99 0.33 1.98 0.66 3 1 C4.125 3.4375 4.125 3.4375 5 6 C5.33 6.66 5.66 7.32 6 8 C2.59679258 6.98823563 1.24274669 6.35156418 -0.8125 3.375 C-1.204375 2.59125 -1.59625 1.8075 -2 1 C-1.34 0.67 -0.68 0.34 0 0 Z " fill="#E24447" transform="translate(34,100)"/>
<path d="M0 0 C0.33 0 0.66 0 1 0 C1 1.98 1 3.96 1 6 C0.34 6 -0.32 6 -1 6 C-1 10.29 -1 14.58 -1 19 C-1.33 19 -1.66 19 -2 19 C-2.05411124 16.58303128 -2.09372278 14.16728213 -2.125 11.75 C-2.14175781 11.06808594 -2.15851562 10.38617188 -2.17578125 9.68359375 C-2.21213482 5.9391765 -2.07944349 3.17647273 0 0 Z " fill="#E14644" transform="translate(10,59)"/>
<path d="M0 0 C5.077359 1.13802874 9.46268561 2.34401109 14 5 C14.33 5.66 14.66 6.32 15 7 C10 5.33333333 5 3.66666667 0 2 C0 1.34 0 0.68 0 0 Z " fill="#545454" transform="translate(151,61)"/>
<path d="M0 0 C1.9375 0.6875 1.9375 0.6875 4 2 C4.75 4.625 4.75 4.625 5 7 C1.7 7 -1.6 7 -5 7 C-5 6.67 -5 6.34 -5 6 C-1.535 5.505 -1.535 5.505 2 5 C1.34 3.35 0.68 1.7 0 0 Z " fill="#525252" transform="translate(150,104)"/>
<path d="M0 0 C0.66 0.33 1.32 0.66 2 1 C0.9375 3.4375 0.9375 3.4375 -1 6 C-4.6875 6.8125 -4.6875 6.8125 -8 7 C-8.33 6.34 -8.66 5.68 -9 5 C-8.071875 4.9175 -7.14375 4.835 -6.1875 4.75 C-2.91490121 4.29742448 -2.91490121 4.29742448 -1.125 1.9375 C-0.75375 1.298125 -0.3825 0.65875 0 0 Z " fill="#4B4B4B" transform="translate(279,105)"/>
<path d="M0 0 C2.475 0.99 2.475 0.99 5 2 C4.6875 3.9375 4.6875 3.9375 4 6 C3.01 6.33 2.02 6.66 1 7 C0.67 4.69 0.34 2.38 0 0 Z " fill="#F6362D" transform="translate(87,37)"/>
<path d="M0 0 C0.99 0.33 1.98 0.66 3 1 C3 1.66 3 2.32 3 3 C1.88625 3.433125 1.88625 3.433125 0.75 3.875 C-1.56739797 4.82302644 -3.77917115 5.84845911 -6 7 C-6 6.34 -6 5.68 -6 5 C-3.1875 2.3125 -3.1875 2.3125 0 0 Z " fill="#575757" transform="translate(468,105)"/>
<path d="M0 0 C4.75481646 0.57634139 7.97048212 2.55068521 12 5 C10 6 10 6 7.87109375 5.29296875 C7.06800781 4.92816406 6.26492187 4.56335937 5.4375 4.1875 C4.63183594 3.83042969 3.82617188 3.47335938 2.99609375 3.10546875 C1 2 1 2 0 0 Z " fill="#D24645" transform="translate(69,41)"/>
<path d="M0 0 C0.99 0.66 1.98 1.32 3 2 C3 2.66 3 3.32 3 4 C1.02 4.99 -0.96 5.98 -3 7 C-1.125 1.125 -1.125 1.125 0 0 Z " fill="#585858" transform="translate(287,85)"/>
<path d="M0 0 C1.32 0 2.64 0 4 0 C4 0.66 4 1.32 4 2 C4.66 2 5.32 2 6 2 C6 2.66 6 3.32 6 4 C3.69 3.67 1.38 3.34 -1 3 C-0.67 2.01 -0.34 1.02 0 0 Z " fill="#E94038" transform="translate(62,140)"/>
<path d="M0 0 C1.11375 0.4640625 1.11375 0.4640625 2.25 0.9375 C4.50692176 1.8094925 6.6450153 2.47667007 9 3 C7.02 3.66 5.04 4.32 3 5 C1.5 3.625 1.5 3.625 0 2 C0 1.34 0 0.68 0 0 Z " fill="#4F4F4F" transform="translate(164,122)"/>
<path d="M0 0 C0.66 0 1.32 0 2 0 C1.75 2.375 1.75 2.375 1 5 C-1.0625 6.3125 -1.0625 6.3125 -3 7 C-3 3.47967572 -2.29648649 2.5614657 0 0 Z " fill="#5E5E5E" transform="translate(164,97)"/>
<path d="M0 0 C1.60875 0.556875 1.60875 0.556875 3.25 1.125 C3.25 1.785 3.25 2.445 3.25 3.125 C-0.38 2.465 -4.01 1.805 -7.75 1.125 C-3.75 -0.875 -3.75 -0.875 0 0 Z " fill="#535353" transform="translate(153.75,72.875)"/>
</svg>
