<?xml version="1.0" encoding="UTF-8"?>
<!DOCTYPE svg PUBLIC "-//W3C//DTD SVG 1.1//EN" "http://www.w3.org/Graphics/SVG/1.1/DTD/svg11.dtd">
<svg xmlns="http://www.w3.org/2000/svg" version="1.1" width="500px" height="200px" style="shape-rendering:geometricPrecision; text-rendering:geometricPrecision; image-rendering:optimizeQuality; fill-rule:evenodd; clip-rule:evenodd" xmlns:xlink="http://www.w3.org/1999/xlink">
<g><path style="opacity:1" fill="#e83c39" d="M 73.5,50.5 C 62.3512,48.7098 51.0179,48.0431 39.5,48.5C 40.9516,47.6981 42.6183,47.1981 44.5,47C 50.5,46.3333 56.5,46.3333 62.5,47C 66.4914,47.4985 70.158,48.6652 73.5,50.5 Z"/></g>
<g><path style="opacity:1" fill="#fe3131" d="M 38.5,48.5 C 38.8333,48.5 39.1667,48.5 39.5,48.5C 51.0179,48.0431 62.3512,48.7098 73.5,50.5C 75.8185,50.9925 77.8185,51.9925 79.5,53.5C 80.6338,56.0338 82.6338,57.3671 85.5,57.5C 85.8333,57.5 86.1667,57.5 86.5,57.5C 86.8333,59.8333 88.1667,61.1667 90.5,61.5C 91.0798,63.7488 92.4131,65.4154 94.5,66.5C 96.2624,67.2623 97.2624,68.5956 97.5,70.5C 96.4693,69.645 95.3026,68.9783 94,68.5C 93.9552,69.923 92.7885,70.923 90.5,71.5C 89.1585,69.9951 87.4918,69.3285 85.5,69.5C 85.2267,71.451 85.8934,72.951 87.5,74C 86.4366,75.1882 85.1033,75.6882 83.5,75.5C 84.0262,78.8078 82.6928,80.9745 79.5,82C 81.0662,84.6766 80.3995,86.0099 77.5,86C 76.6866,84.197 75.5199,82.697 74,81.5C 73.5,81.8333 73,82.1667 72.5,82.5C 73.4803,83.9814 74.647,85.3147 76,86.5C 76.018,89.9355 76.1847,93.2688 76.5,96.5C 75.8333,96.5 75.1667,96.5 74.5,96.5C 71.3472,93.7532 67.6806,91.7532 63.5,90.5C 63.1667,88.1667 61.8333,86.8333 59.5,86.5C 59.5,86.1667 59.5,85.8333 59.5,85.5C 59.539,82.911 58.539,80.911 56.5,79.5C 56.5,77.1667 56.5,74.8333 56.5,72.5C 54.5328,72.2606 52.6995,72.5939 51,73.5C 49.6467,77.4623 48.4801,81.4623 47.5,85.5C 46.1667,85.5 44.8333,85.5 43.5,85.5C 42.7106,88.4343 40.7106,90.2676 37.5,91C 38.3366,92.0113 38.67,93.1779 38.5,94.5C 38.1667,94.5 37.8333,94.5 37.5,94.5C 27.479,94.3705 17.479,94.7039 7.5,95.5C 6.64036,90.3418 6.30702,85.5084 6.5,81C 7.78138,78.5725 8.78138,76.0725 9.5,73.5C 14.0391,73.4089 15.0391,71.7423 12.5,68.5C 13.9634,66.7112 14.9634,64.7112 15.5,62.5C 18.0892,61.5806 20.0892,59.914 21.5,57.5C 23.6291,55.0499 26.2957,53.3833 29.5,52.5C 33.3603,52.9459 36.3603,51.6125 38.5,48.5 Z"/></g>
<g><path style="opacity:1" fill="#e93d3a" d="M 38.5,48.5 C 36.3603,51.6125 33.3603,52.9459 29.5,52.5C 32.0884,50.4082 35.0884,49.0749 38.5,48.5 Z"/></g>
<g><path style="opacity:0.992" fill="#df3d3b" d="M 79.5,53.5 C 81.8525,54.3403 83.8525,55.6736 85.5,57.5C 82.6338,57.3671 80.6338,56.0338 79.5,53.5 Z"/></g>
<g><path style="opacity:1" fill="#e73d3c" d="M 105.5,54.5 C 105.423,55.7498 104.756,56.5831 103.5,57C 96.4949,58.3236 93.9949,55.4902 96,48.5C 98.553,46.2711 101.386,45.9377 104.5,47.5C 106.553,49.7288 106.886,52.0621 105.5,54.5 Z"/></g>
<g><path style="opacity:1" fill="#fc3131" d="M 105.5,54.5 C 103.288,55.11 101.121,55.4433 99,55.5C 97.1147,55.1379 96.2814,53.9713 96.5,52C 96.5852,50.8926 96.9186,49.8926 97.5,49C 99.8098,48.5034 102.143,48.3367 104.5,48.5C 104.833,50.5 105.167,52.5 105.5,54.5 Z"/></g>
<g><path style="opacity:0.714" fill="#dd4c4c" d="M 86.5,57.5 C 88.1667,58.5 89.5,59.8333 90.5,61.5C 88.1667,61.1667 86.8333,59.8333 86.5,57.5 Z"/></g>
<g><path style="opacity:0.886" fill="#d53e40" d="M 21.5,57.5 C 20.0892,59.914 18.0892,61.5806 15.5,62.5C 16.9108,60.086 18.9108,58.4194 21.5,57.5 Z"/></g>
<g><path style="opacity:0.894" fill="#d3463e" d="M 90.5,61.5 C 92.5869,62.5846 93.9202,64.2512 94.5,66.5C 92.4131,65.4154 91.0798,63.7488 90.5,61.5 Z"/></g>
<g><path style="opacity:1" fill="#fe3131" d="M 97.5,70.5 C 97.5677,74.5443 99.2344,77.5443 102.5,79.5C 102.171,82.2282 102.837,84.5615 104.5,86.5C 104.5,89.1667 104.5,91.8333 104.5,94.5C 105.725,109.244 105.725,124.244 104.5,139.5C 104.646,141.942 103.813,142.609 102,141.5C 101.506,143.134 101.34,144.801 101.5,146.5C 100.167,146.5 98.8333,146.5 97.5,146.5C 97.5,147.833 97.5,149.167 97.5,150.5C 95.9582,151.301 94.2915,151.634 92.5,151.5C 80.5,151.5 68.5,151.5 56.5,151.5C 56.5,141.5 56.5,131.5 56.5,121.5C 57.9143,118.924 59.4143,116.257 61,113.5C 62.1711,112.107 63.6711,111.273 65.5,111C 64.6634,109.989 64.33,108.822 64.5,107.5C 66.4844,104.836 69.1511,103.169 72.5,102.5C 75.2062,102.425 77.8728,102.092 80.5,101.5C 81.2436,98.0504 79.9103,96.3838 76.5,96.5C 76.1847,93.2688 76.018,89.9355 76,86.5C 74.647,85.3147 73.4803,83.9814 72.5,82.5C 73,82.1667 73.5,81.8333 74,81.5C 75.5199,82.697 76.6866,84.197 77.5,86C 80.3995,86.0099 81.0662,84.6766 79.5,82C 82.6928,80.9745 84.0262,78.8078 83.5,75.5C 85.1033,75.6882 86.4366,75.1882 87.5,74C 85.8934,72.951 85.2267,71.451 85.5,69.5C 87.4918,69.3285 89.1585,69.9951 90.5,71.5C 92.7885,70.923 93.9552,69.923 94,68.5C 95.3026,68.9783 96.4693,69.645 97.5,70.5 Z"/></g>
<g><path style="opacity:0.925" fill="#e63b3c" d="M 56.5,79.5 C 55.6981,78.0484 55.1981,76.3817 55,74.5C 54.2825,73.5494 53.4491,73.3828 52.5,74C 51.7501,78.3236 50.0835,82.1569 47.5,85.5C 48.4801,81.4623 49.6467,77.4623 51,73.5C 52.6995,72.5939 54.5328,72.2606 56.5,72.5C 56.5,74.8333 56.5,77.1667 56.5,79.5 Z"/></g>
<g><path style="opacity:1" fill="#e63a3b" d="M 97.5,70.5 C 99.9236,73.0078 101.59,76.0078 102.5,79.5C 99.2344,77.5443 97.5677,74.5443 97.5,70.5 Z"/></g>
<g><path style="opacity:0.999" fill="#6f6f6f" d="M 136.5,76.5 C 146.172,76.3335 155.839,76.5002 165.5,77C 176.971,82.7393 180.137,91.5726 175,103.5C 167.723,110.909 158.89,113.575 148.5,111.5C 148.5,118.167 148.5,124.833 148.5,131.5C 144.5,131.5 140.5,131.5 136.5,131.5C 136.5,113.167 136.5,94.8333 136.5,76.5 Z M 148.5,85.5 C 153.267,85.1908 157.934,85.6908 162.5,87C 165.803,90.795 166.303,94.9617 164,99.5C 163.25,100.126 162.416,100.626 161.5,101C 157.179,101.499 152.846,101.666 148.5,101.5C 148.5,96.1667 148.5,90.8333 148.5,85.5 Z"/></g>
<g><path style="opacity:0.999" fill="#6b6b6b" d="M 365.5,75.5 C 373.845,75.6908 376.178,79.5241 372.5,87C 367.032,89.434 363.365,87.7673 361.5,82C 361.836,79.0795 363.17,76.9129 365.5,75.5 Z"/></g>
<g><path style="opacity:1" fill="#f73535" d="M 15.5,62.5 C 14.9634,64.7112 13.9634,66.7112 12.5,68.5C 15.0391,71.7423 14.0391,73.4089 9.5,73.5C 8.78138,76.0725 7.78138,78.5725 6.5,81C 6.30702,85.5084 6.64036,90.3418 7.5,95.5C 17.479,94.7039 27.479,94.3705 37.5,94.5C 35.1617,96.0395 32.4951,96.7062 29.5,96.5C 20.1667,96.5 10.8333,96.5 1.5,96.5C 1.5,94.1667 1.5,91.8333 1.5,89.5C 2.77385,78.6351 7.44052,69.6351 15.5,62.5 Z"/></g>
<g><path style="opacity:0.875" fill="#d94340" d="M 56.5,79.5 C 58.539,80.911 59.539,82.911 59.5,85.5C 57.461,84.089 56.461,82.089 56.5,79.5 Z"/></g>
<g><path style="opacity:0.965" fill="#d93e3a" d="M 102.5,79.5 C 103.924,81.5145 104.59,83.8478 104.5,86.5C 102.837,84.5615 102.171,82.2282 102.5,79.5 Z"/></g>
<g><path style="opacity:0.894" fill="#d54145" d="M 59.5,86.5 C 61.8333,86.8333 63.1667,88.1667 63.5,90.5C 61.8333,89.5 60.5,88.1667 59.5,86.5 Z"/></g>
<g><path style="opacity:0.999" fill="#727272" d="M 449.5,93.5 C 450.388,96.0545 450.721,98.7212 450.5,101.5C 447.833,101.5 445.167,101.5 442.5,101.5C 442.832,110.857 442.498,120.19 441.5,129.5C 438.916,130.393 436.249,130.726 433.5,130.5C 433.5,120.833 433.5,111.167 433.5,101.5C 430.552,101.777 427.719,101.444 425,100.5C 424.333,98.8333 424.333,97.1667 425,95.5C 426.948,94.8906 428.782,94.224 430.5,93.5C 432.446,88.6042 433.113,83.2709 432.5,77.5C 436.167,77.5 439.833,77.5 443.5,77.5C 443.5,82.8333 443.5,88.1667 443.5,93.5C 445.5,93.5 447.5,93.5 449.5,93.5 Z"/></g>
<g><path style="opacity:1" fill="#ee3736" d="M 47.5,85.5 C 45.5216,89.4784 42.5216,92.4784 38.5,94.5C 38.67,93.1779 38.3366,92.0113 37.5,91C 40.7106,90.2676 42.7106,88.4343 43.5,85.5C 44.8333,85.5 46.1667,85.5 47.5,85.5 Z"/></g>
<g><path style="opacity:0.999" fill="#707070" d="M 199.5,92.5 C 205.021,91.594 209.688,93.094 213.5,97C 211.041,99.4464 208.708,101.946 206.5,104.5C 202.69,101.662 199.19,101.995 196,105.5C 194.559,114.058 194.059,122.724 194.5,131.5C 190.833,131.5 187.167,131.5 183.5,131.5C 183.5,118.833 183.5,106.167 183.5,93.5C 187.673,92.9564 191.506,93.623 195,95.5C 196.652,94.6006 198.152,93.6006 199.5,92.5 Z"/></g>
<g><path style="opacity:1" fill="#6f6f6f" d="M 468.5,92.5 C 487.032,91.5304 495.532,100.197 494,118.5C 488.269,130.944 478.769,135.11 465.5,131C 454.811,125.119 451.311,116.286 455,104.5C 457.85,98.5144 462.35,94.5144 468.5,92.5 Z M 473.5,102.5 C 481.045,103.58 484.212,107.913 483,115.5C 480.646,121.095 476.479,122.928 470.5,121C 468.333,120.167 466.833,118.667 466,116.5C 464.124,109.241 466.624,104.574 473.5,102.5 Z"/></g>
<g><path style="opacity:1" fill="#e63c3e" d="M 63.5,90.5 C 67.6806,91.7532 71.3472,93.7532 74.5,96.5C 70.0666,95.7855 66.4,93.7855 63.5,90.5 Z"/></g>
<g><path style="opacity:1" fill="#6f6f6f" d="M 346.5,92.5 C 349.187,92.3359 351.854,92.5026 354.5,93C 356.813,93.6409 358.48,94.9743 359.5,97C 357.888,99.6162 355.888,101.95 353.5,104C 351.822,103.888 350.155,103.388 348.5,102.5C 346.226,102.97 344.226,103.97 342.5,105.5C 341.529,114.112 341.196,122.779 341.5,131.5C 337.833,131.5 334.167,131.5 330.5,131.5C 330.5,118.833 330.5,106.167 330.5,93.5C 334.571,93.2338 338.571,93.5672 342.5,94.5C 344.026,94.0057 345.359,93.339 346.5,92.5 Z"/></g>
<g><path style="opacity:1" fill="#707070" d="M 362.5,93.5 C 366.167,93.5 369.833,93.5 373.5,93.5C 373.5,106.167 373.5,118.833 373.5,131.5C 369.833,131.5 366.167,131.5 362.5,131.5C 362.5,118.833 362.5,106.167 362.5,93.5 Z"/></g>
<g><path style="opacity:0.118" fill="#cb3b3b" d="M 1.5,89.5 C 1.5,91.8333 1.5,94.1667 1.5,96.5C 10.8333,96.5 20.1667,96.5 29.5,96.5C 20.0144,97.4938 10.3478,97.8271 0.5,97.5C 0.1936,94.6146 0.526933,91.9479 1.5,89.5 Z"/></g>
<g><path style="opacity:0.71" fill="#dc3f3c" d="M 104.5,86.5 C 106.054,90.5667 106.72,94.9 106.5,99.5C 105.069,98.2196 104.402,96.5529 104.5,94.5C 104.5,91.8333 104.5,89.1667 104.5,86.5 Z"/></g>
<g><path style="opacity:1" fill="#707070" d="M 227.5,92.5 C 244.521,91.5209 252.521,99.5209 251.5,116.5C 242.475,116.168 233.475,116.502 224.5,117.5C 225.305,119.472 226.639,120.972 228.5,122C 231.833,122.667 235.167,122.667 238.5,122C 240.055,120.711 241.721,120.044 243.5,120C 245.557,121.719 247.224,123.719 248.5,126C 244.553,130.379 239.553,132.545 233.5,132.5C 217.566,131.061 210.732,122.395 213,106.5C 215.774,99.5569 220.607,94.8903 227.5,92.5 Z M 231.5,101.5 C 235.728,101.773 238.728,103.773 240.5,107.5C 234.863,108.663 229.196,108.83 223.5,108C 225.279,104.626 227.946,102.46 231.5,101.5 Z"/></g>
<g><path style="opacity:1" fill="#e73c3a" d="M 74.5,96.5 C 75.1667,96.5 75.8333,96.5 76.5,96.5C 79.9103,96.3838 81.2436,98.0504 80.5,101.5C 77.8728,102.092 75.2062,102.425 72.5,102.5C 74.7917,101.66 77.125,100.66 79.5,99.5C 78.0531,98.0652 76.3864,97.0652 74.5,96.5 Z"/></g>
<g><path style="opacity:0.4" fill="#686868" d="M 430.5,93.5 C 428.782,94.224 426.948,94.8906 425,95.5C 424.333,97.1667 424.333,98.8333 425,100.5C 427.719,101.444 430.552,101.777 433.5,101.5C 433.5,111.167 433.5,120.833 433.5,130.5C 436.249,130.726 438.916,130.393 441.5,129.5C 442.498,120.19 442.832,110.857 442.5,101.5C 445.167,101.5 447.833,101.5 450.5,101.5C 450.721,98.7212 450.388,96.0545 449.5,93.5C 450.5,93.5 451.5,93.5 452.5,93.5C 452.5,96.8333 452.5,100.167 452.5,103.5C 449.5,103.5 446.5,103.5 443.5,103.5C 443.5,112.833 443.5,122.167 443.5,131.5C 439.833,131.5 436.167,131.5 432.5,131.5C 432.5,122.167 432.5,112.833 432.5,103.5C 429.5,103.5 426.5,103.5 423.5,103.5C 423.5,100.167 423.5,96.8333 423.5,93.5C 425.833,93.5 428.167,93.5 430.5,93.5 Z"/></g>
<g><path style="opacity:1" fill="#e83c3c" d="M 37.5,103.5 C 41.1463,105.482 44.1463,108.149 46.5,111.5C 45.448,111.649 44.448,111.483 43.5,111C 42.6242,108.624 40.9575,107.124 38.5,106.5C 37.8728,105.583 37.5394,104.583 37.5,103.5 Z"/></g>
<g><path style="opacity:0.999" fill="#6f6f6f" d="M 398.5,92.5 C 416.121,92.293 423.621,100.96 421,118.5C 418.517,127.647 412.517,132.313 403,132.5C 399.456,132.596 396.289,131.596 393.5,129.5C 392.504,135.463 392.171,141.463 392.5,147.5C 388.833,147.5 385.167,147.5 381.5,147.5C 381.5,129.5 381.5,111.5 381.5,93.5C 385.673,92.9564 389.506,93.623 393,95.5C 394.876,94.3913 396.709,93.3913 398.5,92.5 Z M 400.5,102.5 C 410.052,104.943 412.552,110.61 408,119.5C 403.057,123.369 398.39,123.036 394,118.5C 390.451,110.639 392.617,105.306 400.5,102.5 Z"/></g>
<g><path style="opacity:1" fill="#fd3131" d="M 37.5,103.5 C 37.5394,104.583 37.8728,105.583 38.5,106.5C 40.9575,107.124 42.6242,108.624 43.5,111C 44.448,111.483 45.448,111.649 46.5,111.5C 47.1667,111.5 47.5,111.833 47.5,112.5C 47.1663,115.491 48.1663,117.824 50.5,119.5C 50.5,120.5 50.5,121.5 50.5,122.5C 50.5,132.167 50.5,141.833 50.5,151.5C 38.5,151.5 26.5,151.5 14.5,151.5C 12.1016,151.741 10.1016,151.074 8.5,149.5C 4.81541,146.117 2.14874,142.117 0.5,137.5C 0.5,125.5 0.5,113.5 0.5,101.5C 11.1719,101.333 21.8385,101.5 32.5,102C 34.2475,102.352 35.9142,102.852 37.5,103.5 Z"/></g>
<g><path style="opacity:0.998" fill="#6e6e6e" d="M 265.5,92.5 C 273.652,91.1631 280.652,93.3297 286.5,99C 284.317,101.35 281.984,103.517 279.5,105.5C 275.359,101.586 271.026,101.086 266.5,104C 267.551,105.385 268.884,106.385 270.5,107C 284.802,108.945 288.802,116.278 282.5,129C 271.798,134.666 262.132,133.333 253.5,125C 255.683,122.65 258.016,120.483 260.5,118.5C 264.451,122.062 269.117,123.395 274.5,122.5C 274.703,120.61 274.037,119.11 272.5,118C 267.874,117.094 263.54,115.427 259.5,113C 258.299,112.097 257.465,110.931 257,109.5C 254.588,100.99 257.421,95.3229 265.5,92.5 Z"/></g>
<g><path style="opacity:1" fill="#ec3a3b" d="M 64.5,107.5 C 64.33,108.822 64.6634,109.989 65.5,111C 63.6711,111.273 62.1711,112.107 61,113.5C 59.4143,116.257 57.9143,118.924 56.5,121.5C 56.6342,115.215 59.3009,110.548 64.5,107.5 Z"/></g>
<g><path style="opacity:0.736" fill="#f73836" d="M 104.5,94.5 C 104.402,96.5529 105.069,98.2196 106.5,99.5C 106.5,112.5 106.5,125.5 106.5,138.5C 105.833,138.833 105.167,139.167 104.5,139.5C 105.725,124.244 105.725,109.244 104.5,94.5 Z"/></g>
<g><path style="opacity:1" fill="#6e6e6e" d="M 304.5,92.5 C 311.771,91.4094 318.271,93.0761 324,97.5C 324.667,98.5 324.667,99.5 324,100.5C 322,102.5 320,104.5 318,106.5C 309.435,100.411 303.602,102.411 300.5,112.5C 301.979,120.467 306.646,123.3 314.5,121C 315.931,120.535 317.097,119.701 318,118.5C 320.5,121 323,123.5 325.5,126C 316.904,133.327 307.571,134.327 297.5,129C 289.535,122.077 287.368,113.577 291,103.5C 294.213,98.1075 298.713,94.4408 304.5,92.5 Z"/></g>
<g><path style="opacity:1" fill="#d94143" d="M 47.5,112.5 C 49.0652,114.509 50.0652,116.843 50.5,119.5C 48.1663,117.824 47.1663,115.491 47.5,112.5 Z"/></g>
<g><path style="opacity:1" fill="#e23b3a" d="M 106.5,138.5 C 105.766,144.23 102.766,148.23 97.5,150.5C 97.5,149.167 97.5,147.833 97.5,146.5C 98.8333,146.5 100.167,146.5 101.5,146.5C 101.34,144.801 101.506,143.134 102,141.5C 103.813,142.609 104.646,141.942 104.5,139.5C 105.167,139.167 105.833,138.833 106.5,138.5 Z"/></g>
<g><path style="opacity:0.51" fill="#d73c3e" d="M 0.5,137.5 C 2.14874,142.117 4.81541,146.117 8.5,149.5C 3.36092,147.24 0.694253,143.24 0.5,137.5 Z"/></g>
<g><path style="opacity:0.106" fill="#c5443f" d="M 50.5,122.5 C 51.494,132.319 51.8274,142.319 51.5,152.5C 38.9887,152.829 26.6554,152.495 14.5,151.5C 26.5,151.5 38.5,151.5 50.5,151.5C 50.5,141.833 50.5,132.167 50.5,122.5 Z"/></g>
<g><path style="opacity:0.106" fill="#c04140" d="M 56.5,121.5 C 56.5,131.5 56.5,141.5 56.5,151.5C 68.5,151.5 80.5,151.5 92.5,151.5C 80.3446,152.495 68.0113,152.829 55.5,152.5C 55.1724,141.986 55.5058,131.653 56.5,121.5 Z"/></g>
</svg>
