<?xml version="1.0" encoding="UTF-8"?>
<svg version="1.1" xmlns="http://www.w3.org/2000/svg" width="529" height="525">
<path d="M0 0 C2.94789849 0.01611407 5.89442686 0.00000699 8.84228516 -0.01904297 C30.19396843 -0.04302928 50.80299283 3.0335161 71.44775391 8.39111328 C72.69371338 8.71354004 72.69371338 8.71354004 73.96484375 9.04248047 C113.86419112 19.62430937 150.72426702 40.70592549 180.76416016 68.89501953 C183.05060364 71.0217115 185.37762475 73.06183889 187.76025391 75.07861328 C191.02368069 77.91228839 193.84054822 80.96683166 196.62744141 84.26611328 C197.84867854 85.69176349 199.10504491 87.08800013 200.39306641 88.45361328 C246.84896926 137.82372407 267.08793547 206.85067418 265.57958984 273.44873047 C264.349242 310.2406877 254.70893435 346.42597981 238.44775391 379.39111328 C237.91480713 380.48359375 237.91480713 380.48359375 237.37109375 381.59814453 C229.27700694 398.03058414 219.00305247 413.19900564 207.44775391 427.39111328 C207.01060059 427.93123047 206.57344727 428.47134766 206.12304688 429.02783203 C194.64423351 443.10260427 181.87895925 456.33288197 167.44775391 467.39111328 C166.01689453 468.54740234 166.01689453 468.54740234 164.55712891 469.72705078 C128.83747806 498.17712445 85.4103579 515.63835877 40.44775391 522.39111328 C39.72152832 522.50825684 38.99530273 522.62540039 38.24707031 522.74609375 C12.71070017 526.75682353 -15.17468995 525.7116184 -40.55224609 521.39111328 C-41.98455566 521.15763184 -41.98455566 521.15763184 -43.44580078 520.91943359 C-87.57487433 513.50290698 -130.6575493 493.62094697 -164.55224609 464.39111328 C-165.68012647 463.44587741 -166.80910141 462.50194661 -167.93896484 461.55908203 C-178.24903943 452.9075359 -187.95060939 443.77601614 -196.55224609 433.39111328 C-196.97054687 432.89192383 -197.38884766 432.39273437 -197.81982422 431.87841797 C-210.09256612 417.17331763 -220.69467585 401.37615278 -229.55224609 384.39111328 C-229.97860352 383.58174316 -230.40496094 382.77237305 -230.84423828 381.93847656 C-262.68147863 320.77384311 -267.41449643 248.37097393 -247.61328125 182.68603516 C-242.91501439 168.0961112 -236.84229084 153.83880382 -229.59277344 140.33203125 C-228.86864929 138.98130696 -228.1534754 137.62576204 -227.4453125 136.26660156 C-211.62196889 105.91120622 -187.84440649 77.20774245 -160.55224609 56.39111328 C-159.88628418 55.87581055 -159.22032227 55.36050781 -158.53417969 54.82958984 C-128.46559702 31.64497343 -93.80943625 15.01107376 -56.86474609 6.20361328 C-55.88755615 5.96562012 -54.91036621 5.72762695 -53.90356445 5.48242188 C-36.1289037 1.42248736 -18.20203565 -0.11762707 0 0 Z " fill="#C8D2E4" transform="translate(260.55224609375,-0.39111328125)"/>
<path d="M0 0 C0.94101562 0.77859375 1.88203125 1.5571875 2.8515625 2.359375 C26.63624322 22.86109979 41.51591786 55.02450441 45 86 C45.27307686 91.71165154 45.29122112 97.40806517 45.25 103.125 C45.24656586 103.90068329 45.24313171 104.67636658 45.23959351 105.47555542 C45.1461096 123.4599577 43.56247607 139.8035631 38 157 C37.75652832 157.76957031 37.51305664 158.53914062 37.26220703 159.33203125 C30.23981756 181.14530029 18.09559561 198.58917104 3.32739258 215.83862305 C-24.92107176 249.04905196 -26.85293369 269.82321478 -28 318 C-73.21 318 -118.42 318 -165 318 C-165.33 301.17 -165.66 284.34 -166 267 C-168.50056593 262.02378257 -168.50056593 262.02378257 -172 260 C-174.77348009 259.58805 -174.77348009 259.58805 -177.91796875 259.47265625 C-179.67657227 259.36727539 -179.67657227 259.36727539 -181.47070312 259.25976562 C-183.92888625 259.12929978 -186.38722057 259.00164925 -188.84570312 258.87695312 C-196.74119391 258.39778447 -203.48596106 257.95498729 -209.75 252.6875 C-210.4925 251.800625 -211.235 250.91375 -212 250 C-213.0828125 248.7625 -213.0828125 248.7625 -214.1875 247.5 C-218.84377375 238.50857482 -218.54460844 226.52261948 -219.5 216.5625 C-219.62745605 215.26658936 -219.75491211 213.97067871 -219.88623047 212.63549805 C-220.48419729 206.51444421 -221.06014148 200.39194147 -221.6015625 194.265625 C-221.69115234 193.25298584 -221.78074219 192.24034668 -221.87304688 191.19702148 C-222.03706275 189.31926217 -222.19741035 187.44117764 -222.35351562 185.56274414 C-222.42505859 184.73379639 -222.49660156 183.90484863 -222.5703125 183.05078125 C-222.62977051 182.33575439 -222.68922852 181.62072754 -222.75048828 180.8840332 C-222.96903087 178.77800854 -222.96903087 178.77800854 -224 176 C-226.12140702 175.10205269 -226.12140702 175.10205269 -228.734375 174.5703125 C-229.70117188 174.33183594 -230.66796875 174.09335937 -231.6640625 173.84765625 C-233.70481088 173.36975948 -235.74647033 172.89573498 -237.7890625 172.42578125 C-243.6464169 170.97309521 -247.280946 169.85977224 -251 165 C-252.66276055 161.6744789 -252.6077433 158.58005553 -252 155 C-250.31063517 150.95883365 -248.1100911 147.26089998 -245.875 143.5 C-245.24988525 142.4171875 -244.62477051 141.334375 -243.98071289 140.21875 C-242.00355227 136.80264346 -240.002887 133.40107393 -238 130 C-236.70824344 127.78206012 -235.4178509 125.56332518 -234.12890625 123.34375 C-231.7823406 119.30641144 -229.42511062 115.27567001 -227.05859375 111.25 C-226.54337158 110.35756592 -226.02814941 109.46513184 -225.49731445 108.5456543 C-224.53720742 106.91333144 -223.54335906 105.30012618 -222.50854492 103.71411133 C-218.72652062 97.68099394 -218.37183381 92.71321161 -218.4375 85.6875 C-217.87275018 53.64719604 -206.115768 24.62324453 -183 2 C-132.96485388 -41.32470335 -50.810391 -43.31824219 0 0 Z " fill="#F6DDCD" transform="translate(367,127)"/>
<path d="M0 0 C5.4926514 2.3871908 8.76048342 6.29245498 11.78125 11.3828125 C12.9390006 14.85606431 12.84991652 17.74348698 12.78125 21.3828125 C14.43125 21.0528125 16.08125 20.7228125 17.78125 20.3828125 C17.69423828 19.47789062 17.69423828 19.47789062 17.60546875 18.5546875 C17.4659907 16.08393356 17.43451105 13.83535632 17.78125 11.3828125 C21.47599046 7.38849849 25.14438513 6.22513352 30.46875 6.0078125 C36.82970983 6.08199279 40.83012706 8.51429097 45.31640625 12.875 C48.56944047 16.535849 50.864081 19.7496587 50.70703125 24.7421875 C50.32259087 29.00254322 49.75416508 33.21317646 48.78125 37.3828125 C51.21044865 37.51722028 51.21044865 37.51722028 53.78125 36.3828125 C55.16418093 33.82763153 55.99916649 31.17415121 56.78125 28.3828125 C63.2323658 28.99720448 67.52615989 31.57497248 71.65625 36.5078125 C74.62648165 40.86351962 74.24113595 45.3036277 73.78125 50.3828125 C71.14125 50.3828125 68.50125 50.3828125 65.78125 50.3828125 C66.11125 52.0328125 66.44125 53.6828125 66.78125 55.3828125 C67.36132812 55.51816406 67.94140625 55.65351563 68.5390625 55.79296875 C75.67625907 57.75981995 79.14210708 61.01738089 82.921875 67.26953125 C84.99621711 72.37052708 84.36731795 78.47809166 82.78125 83.6328125 C78.64668316 89.3178419 73.785028 93.80696245 66.78125 95.3828125 C66.78125 96.7028125 66.78125 98.0228125 66.78125 99.3828125 C68.76125 99.3828125 70.74125 99.3828125 72.78125 99.3828125 C75.22944174 103.78560893 75.66000349 107.42633449 74.78125 112.3828125 C72.20523986 118.44976052 68.93342383 123.60830273 62.78125 126.3828125 C59.7827259 126.94903626 56.82810452 127.24739674 53.78125 127.3828125 C53.57822266 126.5475 53.57822266 126.5475 53.37109375 125.6953125 C51.78900214 120.08693984 49.58167191 116.64858408 45.6328125 112.4140625 C41.43565729 107.80958843 37.41766506 103.29265051 37.40625 96.8203125 C37.53 95.6859375 37.65375 94.5515625 37.78125 93.3828125 C35.02483584 93.88037342 35.02483584 93.88037342 32.78125 95.3828125 C31.75716076 102.29541484 33.88534749 106.01500924 37.76171875 111.69140625 C40.15842438 114.88546849 42.68392154 117.89668024 45.3984375 120.82421875 C48.70193978 124.54765776 48.05067115 128.65327389 47.98828125 133.40625 C47.59906946 139.00208749 45.42203823 141.97573302 41.40625 145.6328125 C36.76407194 149.33492528 32.98666451 150.87174202 26.90234375 150.69921875 C21.65869784 149.91701743 17.80168916 147.50529558 14.28125 143.6328125 C13.78625 142.8903125 13.29125 142.1478125 12.78125 141.3828125 C13.214375 140.76535156 13.6475 140.14789063 14.09375 139.51171875 C18.09810617 133.4217604 19.48533843 129.65839299 18.78125 122.3828125 C16.79790813 122.52091403 16.79790813 122.52091403 14.78125 123.3828125 C13.85326841 125.4696624 13.85326841 125.4696624 13.40625 128.0078125 C11.58940971 134.83561554 8.561338 138.75672329 2.46875 142.3203125 C-3.20430036 143.95492023 -7.88465687 144.23565422 -13.46875 142.1953125 C-18.71553127 138.73720666 -23.00223115 134.36142282 -25.21875 128.3828125 C-26.08490321 122.448059 -24.87336846 117.07056345 -23.21875 111.3828125 C-25.67099694 111.48895086 -25.67099694 111.48895086 -28.21875 112.3828125 C-30.15668115 116.09718054 -30.57052827 119.5514496 -30.84375 123.6953125 C-30.91851562 124.76394531 -30.99328125 125.83257812 -31.0703125 126.93359375 C-31.14378906 128.14595703 -31.14378906 128.14595703 -31.21875 129.3828125 C-36.51292738 131.70482012 -41.58575802 132.6565308 -47.1796875 130.6953125 C-52.16718446 128.08177697 -55.63311633 124.3675347 -58.28125 119.3828125 C-58.17948544 116.12634646 -56.02499948 114.01008447 -54.21875 111.3828125 C-54.21875 110.0628125 -54.21875 108.7428125 -54.21875 107.3828125 C-55.53875 107.3828125 -56.85875 107.3828125 -58.21875 107.3828125 C-59.60317 109.34779572 -60.93078834 111.35329715 -62.21875 113.3828125 C-67.39548148 118.16133387 -71.96849063 119.88820953 -78.94921875 119.69140625 C-85.1883393 118.84305767 -89.21323309 114.86749339 -93 110.09375 C-96.64576867 104.97565168 -96.76859631 99.48357959 -97.21875 93.3828125 C-99.19875 93.8778125 -99.19875 93.8778125 -101.21875 94.3828125 C-101.54875 96.0328125 -101.87875 97.6828125 -102.21875 99.3828125 C-107.28504061 99.73525011 -109.50357112 98.32444622 -113.34765625 95.20703125 C-118.03735234 90.63482233 -119.43840115 86.11431159 -119.59375 79.6328125 C-119.54153328 75.97764193 -119.0683176 73.54927223 -117.21875 70.3828125 C-114.42844817 71.61054531 -112.18042963 73.15866313 -109.78125 75.0078125 C-106.83311727 77.17443591 -104.96229708 77.9500166 -101.21875 77.3828125 C-101.21875 76.0628125 -101.21875 74.7428125 -101.21875 73.3828125 C-102.83864126 72.01691085 -102.83864126 72.01691085 -104.96875 71.0078125 C-109.91713028 68.17015726 -112.406154 64.8206005 -114.21875 59.3828125 C-114.98838307 53.44007613 -114.88306266 48.62022748 -111.65625 43.4453125 C-107.841964 38.50709535 -104.63249581 35.87250845 -98.38671875 34.9765625 C-92.07029986 34.65875526 -87.94063644 35.33921794 -82.9375 39.2890625 C-80.9958508 40.74072949 -80.9958508 40.74072949 -77.21875 40.3828125 C-77.17364639 38.00384247 -77.17364639 38.00384247 -78.21875 35.3828125 C-83.22587646 31.73178279 -88.16739672 30.4256761 -94.21875 29.3828125 C-93.89573017 24.05298532 -90.92157243 20.91970657 -87.21875 17.3828125 C-82.10119776 13.69341437 -76.33497205 13.61328783 -70.21875 14.3828125 C-68.21875 16.3828125 -68.21875 16.3828125 -68.0234375 18.328125 C-68.08854167 20.34635417 -68.15364583 22.36458333 -68.21875 24.3828125 C-66.89875 24.3828125 -65.57875 24.3828125 -64.21875 24.3828125 C-64.12078125 23.80273438 -64.0228125 23.22265625 -63.921875 22.625 C-62.45424737 14.95791082 -59.75211848 9.95617044 -53.21875 5.3828125 C-48.44652622 2.52562273 -43.62275953 2.90228104 -38.21875 3.3828125 C-32.44259629 5.16009056 -28.40688671 9.34404234 -25.21875 14.3828125 C-24.1497074 17.69354796 -23.56590022 20.92547973 -23.21875 24.3828125 C-21.89875 24.3828125 -20.57875 24.3828125 -19.21875 24.3828125 C-18.858896 18.38524588 -19.33534729 14.77352191 -22.21875 9.3828125 C-22.21875 7.2578125 -22.21875 7.2578125 -21.21875 5.3828125 C-14.82794269 -0.48982125 -8.49754402 -2.36375344 0 0 Z " fill="#FC3536" transform="translate(295.21875,135.6171875)"/>
<path d="M0 0 C2.80257348 2.63124828 5.35630219 5.46478647 7.81591797 8.41699219 C12.53594773 14.02419591 17.32778696 16.31765244 24.609375 16.94921875 C28.47903624 17.03141744 32.17095202 16.54700685 36 16 C34.13433512 12.37206002 34.13433512 12.37206002 31 10 C31 8.68 31 7.36 31 6 C35.26290179 6.47365575 37.21548958 8.92238322 40 12 C42.55459078 15.83188618 43.50149366 19.39121983 42.61328125 24.01171875 C42.13274008 25.69190881 41.57280176 27.34898316 41 29 C39.02 28.505 39.02 28.505 37 28 C37.33 25.36 37.66 22.72 38 20 C37.071875 20.33 36.14375 20.66 35.1875 21 C26.39143921 23.40213708 19.06848739 22.51301325 11.04296875 18.18359375 C6.84646834 15.17224108 3.72883014 11.51357462 0.36181641 7.62939453 C-4.6248166 2.00901977 -9.22790339 -0.37516433 -16.71484375 -1.35546875 C-23.41667284 -1.7032495 -29.18450574 -0.3757209 -35 3 C-39.56309304 7.1747447 -42.02708608 11.93044524 -43 18 C-42.94580033 22.37539164 -42.5565271 26.6617707 -42 31 C-43.32 31 -44.64 31 -46 31 C-48.02844688 27.63535398 -48.26984677 25.02488988 -48.25 21.125 C-48.25773437 19.61292969 -48.25773437 19.61292969 -48.265625 18.0703125 C-48 15 -48 15 -46 9 C-51.61 9 -57.22 9 -63 9 C-63.99 11.475 -63.99 11.475 -65 14 C-65.6590148 15.50337751 -66.32551982 17.0034971 -67 18.5 C-68.40544265 21.64126921 -69.75736112 24.78984956 -71 28 C-72.32 28 -73.64 28 -75 28 C-74.62677718 22.27725008 -72.80800613 18.25030013 -70.05859375 13.234375 C-68.78592287 10.96022363 -68.78592287 10.96022363 -69 8 C-69.61488281 7.68546875 -70.22976562 7.3709375 -70.86328125 7.046875 C-72.07564453 6.40492188 -72.07564453 6.40492188 -73.3125 5.75 C-74.11300781 5.33234375 -74.91351563 4.9146875 -75.73828125 4.484375 C-78.13190204 2.91343217 -79.43301591 1.3732963 -81 -1 C-80.01 -1.66 -79.02 -2.32 -78 -3 C-77.27296875 -2.49339844 -77.27296875 -2.49339844 -76.53125 -1.9765625 C-68.41140282 3.42625889 -60.74374829 5.02766095 -51 4 C-43.88353396 2.44746908 -37.83633669 0.18131125 -31.81640625 -3.890625 C-21.561629 -10.15375777 -9.19086448 -6.3941494 0 0 Z " fill="#BCCBE1" transform="translate(283,195)"/>
<path d="M0 0 C0.99 0 1.98 0 3 0 C3.20753906 0.7734375 3.41507812 1.546875 3.62890625 2.34375 C6.02783303 10.45392924 8.74795418 17.01746405 16.359375 21.33984375 C21.26221276 23.47912545 25.84780868 24.46680848 31.1875 24.62890625 C33 25 33 25 35 28 C34.34 28.66 33.68 29.32 33 30 C30.3984375 29.9765625 30.3984375 29.9765625 27.375 29.625 C26.37210937 29.51414063 25.36921875 29.40328125 24.3359375 29.2890625 C23.17964844 29.14597656 23.17964844 29.14597656 22 29 C22.04640625 29.556875 22.0928125 30.11375 22.140625 30.6875 C22.43676823 36.94881396 21.14498342 40.59455975 18 46 C17.01 46 16.02 46 15 46 C14.67 45.34 14.34 44.68 14 44 C14.474375 42.845 14.94875 41.69 15.4375 40.5 C17.39715889 35.65429802 17.28523785 31.15541009 17 26 C15.9790625 25.690625 15.9790625 25.690625 14.9375 25.375 C7.62084909 21.95018468 3.01046269 16.45089515 0 9 C-0.67248087 6.22601643 -0.89722384 3.87773236 -1 1 C-0.67 0.67 -0.34 0.34 0 0 Z " fill="#BCCBE1" transform="translate(271,215)"/>
<path d="M0 0 C0.99 0 1.98 0 3 0 C3.20753906 0.72445312 3.41507812 1.44890625 3.62890625 2.1953125 C6.33421871 10.68478676 9.48123672 14.56681977 17.25 18.75 C22.09628199 20.36542733 26.95907711 21.2251746 32 22 C32 23.32 32 24.64 32 26 C27.22118033 26.29867623 23.21510532 26.31216254 18.75 24.4375 C16.29682395 23.42222516 15.02025766 23 12.3125 23 C9.15337573 24.36610779 7.40225645 26.54187712 5 29 C2.40287494 30.78794617 -0.27679804 32.41202863 -3 34 C-3.99 33.01 -4.98 32.02 -6 31 C-4.96939453 30.29423828 -4.96939453 30.29423828 -3.91796875 29.57421875 C-3.01691406 28.95160156 -2.11585938 28.32898438 -1.1875 27.6875 C0.15248047 26.76517578 0.15248047 26.76517578 1.51953125 25.82421875 C5.1458396 23.15731166 7.22031559 21.52216956 8 17 C7.34 17 6.68 17 6 17 C1.8269859 12.11856972 -0.86544476 7.45865165 -1 1 C-0.67 0.67 -0.34 0.34 0 0 Z " fill="#BCCBE1" transform="translate(293,159)"/>
<path d="M0 0 C5.15252009 1.6862793 8.79305932 5.16470779 12.4375 9.125 C12.4375 9.785 12.4375 10.445 12.4375 11.125 C13.0975 11.125 13.7575 11.125 14.4375 11.125 C17.17946981 19.00816321 17.77370879 25.963358 14.1875 33.6875 C12.05650521 37.90344958 12.05650521 37.90344958 9.265625 38.90234375 C8.66234375 38.97582031 8.0590625 39.04929688 7.4375 39.125 C6.75 37.3125 6.75 37.3125 6.4375 35.125 C7.8125 33.5625 7.8125 33.5625 9.4375 32.125 C11.42516827 26.16199518 11.3439274 19.37136357 9 13.5625 C8.484375 12.758125 7.96875 11.95375 7.4375 11.125 C7.1075 10.135 6.7775 9.145 6.4375 8.125 C4.40211053 7.21095895 4.40211053 7.21095895 2 6.625 C-2.34332192 5.45376712 -2.34332192 5.45376712 -4.5625 2.125 C-2.5625 0.125 -2.5625 0.125 0 0 Z " fill="#C0CBE0" transform="translate(336.5625,189.875)"/>
<path d="M0 0 C0 1.32 0 2.64 0 4 C-0.94875 3.835 -1.8975 3.67 -2.875 3.5 C-14.56636807 1.92706494 -24.43724764 3.76332254 -34 11 C-34.66 10.01 -35.32 9.02 -36 8 C-26.3065126 -1.27203143 -12.94270958 -6.0706893 0 0 Z " fill="#BCCBE1" transform="translate(270,167)"/>
</svg>
