<?xml version="1.0" encoding="UTF-8"?>
<svg version="1.1" xmlns="http://www.w3.org/2000/svg" width="529" height="525">
<path d="M0 0 C1.4303231 -0.01469078 1.4303231 -0.01469078 2.88954163 -0.02967834 C23.81020745 -0.20029505 44.16879243 -0.12004561 64.7265625 4.23828125 C65.75104492 4.45258789 66.77552734 4.66689453 67.83105469 4.88769531 C108.40221691 13.64984195 146.88709236 31.45971454 178.7265625 58.23828125 C179.22800781 58.65094238 179.72945313 59.06360352 180.24609375 59.48876953 C193.98578703 70.79778318 206.86640614 83.1077369 217.7265625 97.23828125 C218.5103125 98.21667969 219.2940625 99.19507812 220.1015625 100.203125 C256.65491448 146.12138533 275.26143739 203.45835925 275.0390625 261.86328125 C275.03690735 262.88151978 275.0347522 263.8997583 275.03253174 264.94885254 C274.98284061 279.56953404 274.68173245 293.87132295 271.7265625 308.23828125 C271.52788574 309.24552246 271.32920898 310.25276367 271.12451172 311.29052734 C266.43249431 334.61705884 259.21433549 356.87379673 248.7265625 378.23828125 C248.36449707 378.97626953 248.00243164 379.71425781 247.62939453 380.47460938 C216.90192814 442.2886047 161.41545233 489.21936233 96.34375 511.4609375 C81.38068949 516.37451812 66.27023919 519.76578419 50.7265625 522.23828125 C49.54562012 522.43526611 49.54562012 522.43526611 48.34082031 522.63623047 C-1.16773556 530.58301127 -55.53512604 521.10970651 -100.2734375 499.23828125 C-101.08844727 498.84302246 -101.90345703 498.44776367 -102.74316406 498.04052734 C-127.39959801 485.95596954 -149.54816086 470.29205911 -169.2734375 451.23828125 C-170.20470459 450.33988525 -170.20470459 450.33988525 -171.15478516 449.42333984 C-179.05633925 441.75912905 -186.59870827 434.01700121 -193.2734375 425.23828125 C-193.67949219 424.71395508 -194.08554688 424.18962891 -194.50390625 423.64941406 C-213.36521156 399.22317408 -228.21216424 371.77660512 -237.2734375 342.23828125 C-237.53705078 341.40167969 -237.80066406 340.56507813 -238.07226562 339.703125 C-242.23690748 326.39634162 -245.21660667 313.02676092 -247.2734375 299.23828125 C-247.39203125 298.45791504 -247.510625 297.67754883 -247.6328125 296.87353516 C-257.1235669 231.15853485 -239.26633034 160.40799309 -199.60546875 107.2734375 C-193.82796317 99.75397044 -187.76741816 92.55834499 -181.37109375 85.55859375 C-179.55636309 83.55123805 -177.81952063 81.50260516 -176.0859375 79.42578125 C-133.93802424 31.25673752 -63.49490332 0.54211269 0 0 Z " fill="#C6D1E3" transform="translate(251.2734375,-0.23828125)"/>
<path d="M0 0 C4.41204054 4.11087737 7.67194841 8.06038889 10 13.625 C13.28088724 20.04170124 20.70713306 21.75763255 27.04199219 24.21337891 C42.5442905 30.4413596 56.50565849 42.14013069 67 55 C67.7734375 55.93585938 68.546875 56.87171875 69.34375 57.8359375 C75.947806 66.00533256 81.21735058 74.65870169 86 84 C86.55558594 85.0725 87.11117188 86.145 87.68359375 87.25 C98.12935554 109.38958862 101.27540459 135.7216772 100.9296875 159.95703125 C100.91819672 160.91988037 100.90670593 161.88272949 100.89486694 162.87475586 C100.83059197 167.72517245 100.72049023 172.56808668 100.53857422 177.41552734 C100.498717 179.21840357 100.4597774 181.02130037 100.421875 182.82421875 C100.37618378 183.64614212 100.33049255 184.46806549 100.28341675 185.31489563 C100.23738325 188.87193942 100.32125302 191.10891403 102.52163696 193.99766541 C104.35681567 195.85168532 104.35681567 195.85168532 106.2762146 197.4392395 C109.07185645 199.97048694 110.26504762 202.78582642 111.875 206.1875 C112.16890625 206.79013672 112.4628125 207.39277344 112.765625 208.01367188 C117.33047395 217.55169341 117.54085833 228.6170943 114.046875 238.62109375 C111.11177863 245.2907717 107.50632077 251.16518177 102 256 C101.18015625 256.75410156 101.18015625 256.75410156 100.34375 257.5234375 C97.58145523 260.00707973 95.4085409 261.82981799 91.93359375 263.27734375 C88.10863735 265.52342334 87.73597031 267.23800996 86.5 271.4375 C78.46359877 296.53624845 60.11441613 318.34592728 37 331 C35.906875 331.62003906 34.81375 332.24007813 33.6875 332.87890625 C18.46263718 341.0376001 2.06918476 345.03512394 -15 347 C-15.78157471 347.0942627 -16.56314941 347.18852539 -17.3684082 347.28564453 C-26.28831453 348.2376689 -35.22669713 348.24351566 -44.1875 348.25 C-45.02737457 348.25067474 -45.86724915 348.25134949 -46.73257446 348.25204468 C-86.63789449 348.20129205 -121.78644974 339.95535867 -151.5 311.875 C-163.05864329 299.94416426 -172.48521051 285.45492052 -176.9375 269.375 C-178.5576575 264.03715968 -180.82984995 261.91493359 -185.68359375 259.28125 C-194.48801027 254.41135351 -199.71836266 245.29797245 -203 236 C-205.98624611 224.3264925 -204.05169801 212.95253052 -198.0625 202.6875 C-196.48551916 200.14330425 -195.04833517 198.04796109 -192.91796875 195.93408203 C-190.22111389 191.80847082 -190.54575879 188.54698017 -190.71484375 183.73046875 C-190.74398569 181.86499036 -190.77311949 179.99951184 -190.80224609 178.1340332 C-190.82502625 177.1624527 -190.8478064 176.19087219 -190.87127686 175.18984985 C-190.98208816 170.16601236 -191.01280406 165.14209874 -191.03515625 160.1171875 C-191.03954712 159.13617569 -191.04393799 158.15516388 -191.04846191 157.14442444 C-191.08986274 114.67955057 -176.99494294 75.16921294 -147 45 C-134.24203214 32.22203532 -117.06637944 21.17951912 -99.07421875 17.8984375 C-96.76562845 17.16708806 -96.76562845 17.16708806 -95.87109375 14.65625 C-95.58363281 13.7796875 -95.29617187 12.903125 -95 12 C-86.1566287 -2.36343746 -71.82209824 -9.70665226 -56 -14 C-36.17237009 -17.34670186 -15.99109763 -12.25164095 0 0 Z " fill="#F6DDCD" transform="translate(311,110)"/>
<path d="M0 0 C10.57616545 10.19094088 15.05479368 21.22882649 15.53051758 35.77929688 C15.70427333 52.93734615 11.92778463 65.03851979 0.19921875 77.98828125 C-11.73435267 89.51299369 -29.10100229 94.29891497 -45.24804688 94.31469727 C-56.92201955 94.1037369 -66.44417155 91.04247874 -75 83 C-75.62390625 82.47664063 -76.2478125 81.95328125 -76.890625 81.4140625 C-83.20606859 75.78508017 -87.74137865 67.73077178 -88.9375 59.3125 C-88.958125 58.219375 -88.97875 57.12625 -89 56 C-88 55 -88 55 -85.73046875 54.76171875 C-82.48497896 55.04494461 -80.99096791 55.99291271 -78.3125 57.8125 C-68.31208047 64.01510625 -57.62947174 65.66254063 -46 64 C-38.20768003 61.73688397 -33.13466728 58.12023702 -28.98828125 51.1484375 C-25.81639383 44.25303008 -25.53223649 34.67536376 -27.80078125 27.44921875 C-31.3640583 21.14307552 -37.5033639 17.25399557 -44.19140625 14.85546875 C-48.73181366 13.83562339 -52.92471341 13.65914634 -57.5625 13.6875 C-58.46419922 13.68951416 -59.36589844 13.69152832 -60.29492188 13.69360352 C-72.26031112 13.86574514 -84.30039206 15.48945913 -96 18 C-96.33 17.01 -96.66 16.02 -97 15 C-89.39117052 0.02177972 -74.92908118 -8.02208439 -59.61328125 -13.01953125 C-39.1715678 -18.56641782 -16.60165436 -12.78225535 0 0 Z " fill="#FD3334" transform="translate(311,110)"/>
<path d="M0 0 C1.66736438 0.71925522 3.33339946 1.44255818 4.98120117 2.20556641 C12.87765223 5.31296171 21.64042731 5.31446971 30 5.25 C31.50433594 5.26160156 31.50433594 5.26160156 33.0390625 5.2734375 C41.1046004 5.25259632 49.39546662 4.80942869 56.8125 1.375 C60.25650478 -0.11064912 62.29946962 -0.57563806 66 0 C68.4375 1.5625 68.4375 1.5625 70 4 C70.2735971 7.62516152 69.89500216 9.85001147 67.62890625 12.76171875 C57.02243785 22.91199496 41.59592838 28.55813272 27.10302734 28.49023438 C14.59292467 28.00760515 1.57048221 21.1854352 -7.75 13 C-10 10 -10 10 -10.625 6.3125 C-10 3 -10 3 -8.375 1.0625 C-5.27574542 -0.32400863 -3.3808161 -0.39774307 0 0 Z " fill="#474646" transform="translate(237,376)"/>
<path d="M0 0 C4.979817 3.39532977 7.78748792 7.08634459 9 13 C9.72509497 19.67087373 9.49971421 24.74364823 5.5 30.27734375 C1.69090679 34.65184923 -1.89724988 37.66468227 -7.85546875 38.30859375 C-14.64293436 38.57118034 -19.22314318 38.41051388 -24.4140625 33.7890625 C-29.22966118 28.35668764 -31.38274668 22.62049484 -31.27734375 15.40625 C-30.48928838 8.56903723 -26.26346188 3.18872359 -21 -1 C-14.32881725 -4.9666492 -6.51484293 -3.50799235 0 0 Z " fill="#332E2E" transform="translate(211,299)"/>
<path d="M0 0 C5.09242128 2.28179646 8.6839881 5.72855633 11.78125 10.34765625 C13.87110698 16.6172272 13.96207397 24.64399639 11.34375 30.78515625 C8.53106906 35.38506154 4.76612217 38.35081341 -0.21875 40.34765625 C-6.761876 41.54466818 -12.49846705 41.31542065 -18.28125 37.84765625 C-23.49596788 33.71614264 -25.81247457 29.80313567 -26.58984375 23.19140625 C-26.84855378 16.35518982 -26.49944316 11.75484761 -22.21875 6.34765625 C-15.73817058 -0.11559542 -9.0008593 -2.64637941 0 0 Z " fill="#322E2E" transform="translate(341.21875,296.65234375)"/>
<path d="M0 0 C8.06986744 6.51123178 14.0777893 14.57200696 16 25 C17.11513054 38.18022346 14.59024177 48.20370191 7 59 C4.5625 61.75 4.5625 61.75 2 64 C1.4534375 64.51433594 0.906875 65.02867187 0.34375 65.55859375 C-3.24300384 68.83858575 -6.17058272 70.82209335 -11 72 C-10.88317871 71.42967041 -10.76635742 70.85934082 -10.64599609 70.27172852 C-5.92473225 46.97351924 -2.6450277 23.60782566 0 0 Z " fill="#ECC392" transform="translate(411,302)"/>
<path d="M0 0 C2.73324387 2.73324387 2.49522249 4.63944016 2.89453125 8.46484375 C3.04432099 9.82375187 3.19431355 11.18263764 3.34448242 12.54150391 C3.42056732 13.25864563 3.49665222 13.97578735 3.57504272 14.71466064 C5.18454414 29.78121556 7.57356214 44.55422079 10.51318359 59.42285156 C11.11453361 62.60632738 11.58589697 65.78728854 12 69 C0.99708979 64.96559959 -4.81483196 57.07798979 -10.0625 46.94921875 C-14.37015257 37.60906823 -14.33540398 26.10462307 -11.05078125 16.453125 C-8.35269085 10.15423738 -4.98482106 4.71566226 0 0 Z " fill="#ECC392" transform="translate(120,304)"/>
<path d="M0 0 C1.05049278 -0.00287018 1.05049278 -0.00287018 2.12220764 -0.00579834 C3.60418049 -0.00715993 5.08616527 -0.0034653 6.56811523 0.00488281 C8.8353971 0.01556723 11.10188374 0.00499547 13.36914062 -0.0078125 C14.8085955 -0.00649059 16.24804988 -0.00392753 17.6875 0 C18.99968506 0.00225586 20.31187012 0.00451172 21.66381836 0.00683594 C24.91015625 0.265625 24.91015625 0.265625 27.91015625 2.265625 C28.56468464 5.39281621 28.47058338 7.35661605 26.7734375 10.109375 C23.05357064 14.717714 19.46533309 17.87788682 13.3671875 18.54296875 C6.53006569 18.77873157 0.44577461 18.26370824 -4.9140625 13.71875 C-7.68781485 10.79628832 -8.97956811 8.99620111 -9.58984375 4.953125 C-8.52413906 -0.7750377 -5.05771167 0.00870251 0 0 Z " fill="#DBA689" transform="translate(258.08984375,333.734375)"/>
</svg>
