<?xml version="1.0" encoding="UTF-8"?>
<svg version="1.1" xmlns="http://www.w3.org/2000/svg" width="500" height="200">
<path d="M0 0 C2.34618824 0.00851567 4.68993939 -0.0203298 7.03588867 -0.05200195 C15.32079512 -0.09039284 22.49782032 0.36779298 29.91674805 4.44604492 C30.57642578 4.80384033 31.23610352 5.16163574 31.91577148 5.53027344 C38.82582179 9.5338263 43.50547199 18.02673399 45.91674805 25.44604492 C46.67808081 30.63497955 47.0523595 35.6476388 47.09375 40.90014648 C47.1003212 41.59714661 47.1068924 42.29414673 47.11366272 43.01226807 C47.13315637 45.28707014 47.14499532 47.56180746 47.1550293 49.83666992 C47.15910482 50.61868523 47.16318035 51.40070053 47.16737938 52.20641327 C47.18812379 56.3347903 47.20248309 60.4631351 47.21191406 64.59155273 C47.22303926 68.85097194 47.25754125 73.10987749 47.29708576 77.36911392 C47.32319458 80.65306583 47.33160005 83.93689306 47.33519554 87.22093964 C47.34006533 88.79184241 47.35169061 90.36273947 47.37023354 91.93354034 C47.3945359 94.1259574 47.39367895 96.31701151 47.38671875 98.50952148 C47.39258499 99.75558167 47.39845123 101.00164185 47.40449524 102.28546143 C46.91674805 105.44604492 46.91674805 105.44604492 45.23860168 107.847229 C42.37249835 109.82081233 40.76061943 109.95250438 37.29711914 109.96362305 C36.16849457 109.97623169 35.03987 109.98884033 33.87704468 110.00183105 C32.66038116 109.99373413 31.44371765 109.98563721 30.19018555 109.97729492 C28.93219147 109.98112183 27.67419739 109.98494873 26.37808228 109.9888916 C23.71284149 109.99161534 21.04906488 109.98623841 18.3840332 109.9675293 C14.99477917 109.94487764 11.60680196 109.95777297 8.21759605 109.98181915 C4.95841632 109.99990825 1.69938213 109.98716459 -1.55981445 109.97729492 C-3.36659164 109.98944031 -3.36659164 109.98944031 -5.20986938 110.00183105 C-16.67902129 109.87581301 -24.5498629 106.87280119 -32.88012695 98.96166992 C-38.06871032 93.03711729 -41.17937934 85.994016 -41.26025391 78.12353516 C-41.27308914 77.03487656 -41.28592438 75.94621796 -41.29914856 74.8245697 C-41.30653549 73.64649246 -41.31392242 72.46841522 -41.3215332 71.25463867 C-41.32960495 70.03962173 -41.3376767 68.8246048 -41.34599304 67.57276917 C-41.3598363 64.9962812 -41.37055737 62.41977488 -41.37841797 59.84326172 C-41.39557754 55.92338678 -41.43945734 52.00436687 -41.48364258 48.0847168 C-41.49377434 45.57886361 -41.50228893 43.07300326 -41.5090332 40.56713867 C-41.52654129 39.40323105 -41.54404938 38.23932343 -41.56208801 37.04014587 C-41.53388899 26.3340795 -38.64852488 17.29182555 -31.14575195 9.41088867 C-21.75181965 0.42467913 -12.52317954 -0.06927549 0 0 Z M-3.08325195 22.44604492 C-5.38108801 25.89279901 -5.38080078 27.37932604 -5.39575195 31.44604492 C-5.41250977 32.49791992 -5.42926758 33.54979492 -5.4465332 34.63354492 C-5.31317424 37.45224068 -5.31317424 37.45224068 -3.6965332 39.33276367 C-2.11604418 40.67669473 -2.11604418 40.67669473 0.04174805 40.25854492 C2.10638937 39.60248832 2.10638937 39.60248832 2.91674805 37.44604492 C3.03919093 35.28193808 3.09225947 33.11357969 3.10424805 30.94604492 C3.12551758 29.19807617 3.12551758 29.19807617 3.1472168 27.41479492 C3.23118518 24.32697775 3.23118518 24.32697775 0.91674805 22.44604492 C-0.40325195 22.44604492 -1.72325195 22.44604492 -3.08325195 22.44604492 Z M-19.08325195 34.44604492 C-23.68282667 39.5566835 -24.2844273 43.50706803 -24.33325195 50.19604492 C-24.35387695 50.88698242 -24.37450195 51.57791992 -24.39575195 52.28979492 C-24.45125968 59.6723231 -21.89145377 65.34470541 -16.9777832 70.86791992 C-13.50312533 73.76227411 -9.3473776 75.08927767 -5.08325195 76.44604492 C-4.9852832 77.38706055 -4.88731445 78.32807617 -4.78637695 79.29760742 C-3.47332156 90.58032917 -3.47332156 90.58032917 3.79174805 98.75854492 C9.04859482 101.59724218 12.41475944 101.75673193 18.10424805 100.19604492 C21.60998747 99.14386811 21.60998747 99.14386811 24.43237305 96.92651367 C26.79227465 94.57282234 29.70105444 94.21171862 32.8581543 93.38745117 C35.0486794 92.59920359 35.0486794 92.59920359 36.20581055 90.56713867 C37.30682123 87.28225516 36.6896867 84.7756268 35.91674805 81.44604492 C34.40993452 78.58309923 33.5796237 77.69026227 30.54174805 76.57104492 C27.34542225 76.41883893 25.68861935 76.84127733 22.91674805 78.44604492 C20.71391496 80.86916132 19.89888127 82.47799048 19.9597168 85.77416992 C20.20317184 88.01819028 20.51517329 90.22528813 20.91674805 92.44604492 C16.16908384 94.41458862 12.90561786 94.80664578 7.91674805 93.44604492 C4.97924805 91.63354492 4.97924805 91.63354492 2.91674805 88.44604492 C2.50694386 84.4110499 2.62676416 80.48648713 2.91674805 76.44604492 C3.87774414 76.15213867 3.87774414 76.15213867 4.8581543 75.85229492 C12.43498529 73.23258585 17.16984119 69.42598149 21.06518555 62.36401367 C24.35445932 54.95560347 23.67560415 45.82081025 20.8894043 38.39526367 C19.40062372 35.41172347 17.83115203 34.03571982 14.91674805 32.44604492 C11.22700004 31.64382341 11.22700004 31.64382341 7.91674805 31.44604492 C7.91674805 33.42604492 7.91674805 35.40604492 7.91674805 37.44604492 C8.67987305 37.67291992 9.44299805 37.89979492 10.22924805 38.13354492 C13.57839713 39.76917587 14.29411092 41.12616665 15.91674805 44.44604492 C16.91463255 50.96375899 16.49218409 57.0862143 13.12768555 62.82495117 C10.56565166 66.25477072 7.93826218 68.10554021 3.91674805 69.44604492 C-2.48952197 70.24256162 -6.98379448 69.58451904 -12.3918457 66.02807617 C-15.78128608 62.85781438 -17.23061709 59.9836848 -17.48168945 55.37963867 C-17.48959815 53.88094126 -17.48140535 52.38208434 -17.45825195 50.88354492 C-17.46985352 50.12879883 -17.48145508 49.37405273 -17.4934082 48.59643555 C-17.47597464 45.2985866 -17.33755814 42.89519979 -15.6965332 39.99682617 C-13.94619809 38.31430066 -12.31951209 37.37139394 -10.08325195 36.44604492 C-10.08325195 34.79604492 -10.08325195 33.14604492 -10.08325195 31.44604492 C-14.4707182 31.44604492 -15.62397401 31.93806841 -19.08325195 34.44604492 Z " fill="#F83B38" transform="translate(48.083251953125,39.553955078125)"/>
<path d="M0 0 C7.51929041 7.12353829 10.39045179 13.66930954 10.75 24.0625 C10.63214739 32.57508462 8.44680645 38.4875914 3.375 45.25 C5.355 48.22 7.335 51.19 9.375 54.25 C3.515625 58.3515625 3.515625 58.3515625 1.375 59.25 C-2.09021947 58.09492684 -3.6248546 56.2502181 -5.625 53.25 C-6.17027344 53.394375 -6.71554688 53.53875 -7.27734375 53.6875 C-17.43091093 56.18683961 -26.81441293 56.24540004 -36.08203125 50.80859375 C-41.67311316 46.81231464 -44.86977221 42.50135718 -47.625 36.25 C-48.2746875 34.8578125 -48.2746875 34.8578125 -48.9375 33.4375 C-51.1355851 23.24637817 -49.49328762 14.94013877 -44.33984375 6.02734375 C-39.7584932 -0.8000171 -32.88527448 -4.86438414 -24.85546875 -6.53125 C-15.14894528 -7.48320326 -7.94148055 -5.29432037 0 0 Z M-33 12.6875 C-36.20774066 17.74586027 -37.524096 22.22272681 -36.625 28.25 C-34.48958426 34.61007605 -31.21660971 38.3596791 -25.25 41.5 C-21.97121723 42.43679508 -19.01692456 42.38301665 -15.625 42.25 C-15.295 41.59 -14.965 40.93 -14.625 40.25 C-15.25728516 39.43595703 -15.25728516 39.43595703 -15.90234375 38.60546875 C-16.45019531 37.89003906 -16.99804688 37.17460938 -17.5625 36.4375 C-18.10777344 35.72980469 -18.65304688 35.02210937 -19.21484375 34.29296875 C-20.625 32.25 -20.625 32.25 -21.625 29.25 C-19.70747047 29.31029967 -17.79082574 29.39916707 -15.875 29.5 C-14.80765625 29.54640625 -13.7403125 29.5928125 -12.640625 29.640625 C-9.10094492 30.35589714 -7.88618038 31.50584905 -5.625 34.25 C-2.53772767 29.23318247 -1.71264445 25.00485808 -2.625 19.25 C-4.29060731 14.89379627 -6.97443318 11.14897953 -10.625 8.25 C-19.17385652 4.53310586 -26.54300357 6.06058261 -33 12.6875 Z " fill="#686868" transform="translate(167.625,67.75)"/>
<path d="M0 0 C1.05638672 -0.020625 2.11277344 -0.04125 3.20117188 -0.0625 C12.67406753 -0.10919326 21.23995028 1.23464475 28.73828125 7.39453125 C34.13607177 12.88478927 37.3035259 18.95637715 37.59375 26.68359375 C37.5834375 27.53050781 37.573125 28.37742187 37.5625 29.25 C37.5728125 30.14847656 37.583125 31.04695313 37.59375 31.97265625 C37.34881942 39.22872479 35.25504888 44.67942743 30.5625 50.25 C24.20727832 55.64467851 18.11648408 58.5191981 9.73046875 58.4453125 C8.56539795 58.44031738 7.40032715 58.43532227 6.19995117 58.43017578 C4.7166333 58.41184932 3.23331641 58.39344399 1.75 58.375 C-0.78083693 58.35201214 -3.31168062 58.32976101 -5.8425293 58.30810547 C-8.04085286 58.28873698 -10.23917643 58.26936849 -12.4375 58.25 C-12.46062883 50.83540058 -12.47841785 43.42080889 -12.48931217 36.00618076 C-12.49453982 32.56359652 -12.50163531 29.12103688 -12.51293945 25.6784668 C-12.52584235 21.72444957 -12.53072918 17.77044244 -12.53515625 13.81640625 C-12.54031754 12.57476212 -12.54547882 11.33311798 -12.55079651 10.05384827 C-12.55087204 8.91274094 -12.55094757 7.77163361 -12.55102539 6.59594727 C-12.553246 5.585569 -12.55546661 4.57519073 -12.55775452 3.53419495 C-12.26153225 -2.09244953 -4.29577592 0.020299 0 0 Z M1.5625 12.25 C0.14574835 15.08350329 0.43271534 17.48348195 0.4296875 20.6484375 C0.42839844 21.93234375 0.42710937 23.21625 0.42578125 24.5390625 C0.42787598 25.20969727 0.4299707 25.88033203 0.43212891 26.57128906 C0.43746104 28.61010241 0.43218949 30.64869368 0.42578125 32.6875 C0.42707031 33.97398438 0.42835938 35.26046875 0.4296875 36.5859375 C0.43081543 37.76720215 0.43194336 38.9484668 0.43310547 40.16552734 C0.54058269 42.72754095 0.80696473 44.8168313 1.5625 47.25 C11.95234409 47.22378161 11.95234409 47.22378161 20.5625 42.25 C24.33326999 37.04893795 24.98708812 32.61882181 24.5625 26.25 C23.25873645 20.75776773 21.49845299 17.30558994 16.5625 14.25 C11.83183625 11.54676357 6.84784873 12.06526936 1.5625 12.25 Z " fill="#6D6D6D" transform="translate(348.4375,62.75)"/>
<path d="M0 0 C0.16975572 3.49985722 0.33523723 6.99990446 0.5 10.5 C0.54769531 11.48226562 0.59539062 12.46453125 0.64453125 13.4765625 C0.90191812 18.99199533 1.05258434 24.47864465 1 30 C1.33 29.34 1.66 28.68 2 28 C2.66 28 3.32 28 4 28 C4.27070313 27.42765625 4.54140625 26.8553125 4.8203125 26.265625 C6.9484401 22.17849252 9.21884605 18.71467463 13 16 C17.08858416 15.32622583 20.89684282 15.51489767 25 16 C25 20.70715465 24.39201702 21.08447886 21.25 24.3125 C16.28881146 29.62478694 16.28881146 29.62478694 13 36 C15.86727308 41.85401588 19.77131832 46.96697599 23.640625 52.18945312 C27 56.79359654 27 56.79359654 27 59 C22.14333074 59.74611704 17.82849917 60.02376407 13 59 C9.08832282 55.45031505 6.73857165 51.51592279 4 47 C2.39230225 45.18991957 2.39230225 45.18991957 1 44 C1.01160156 44.91523437 1.02320313 45.83046875 1.03515625 46.7734375 C1.04417969 47.96195313 1.05320312 49.15046875 1.0625 50.375 C1.07410156 51.55835938 1.08570313 52.74171875 1.09765625 53.9609375 C1 57 1 57 0 59 C-3.96 59 -7.92 59 -12 59 C-12 39.53 -12 20.06 -12 0 C-4.125 -1.125 -4.125 -1.125 0 0 Z " fill="#6B6B6B" transform="translate(305,62)"/>
<path d="M0 0 C5.81459532 4.61438827 9.17586987 9.46801375 10.875 16.75 C11.49568068 23.82036257 9.18710212 29.99105708 4.75 35.4375 C-0.59114151 40.92269719 -4.94638941 42.15237122 -12.4375 42.4375 C-18.11815941 42.27463706 -22.53544399 41.66296527 -27 38 C-33.29926157 31.13435745 -34.36863012 25.76273429 -34.2734375 16.51953125 C-33.76428852 9.96605647 -31.38443574 6.03618434 -26.625 1.625 C-18.86970329 -4.42150252 -8.5244452 -4.93063633 0 0 Z M-21 14 C-22.48766436 18.76052595 -22.52577779 21.92897116 -20.3125 26.4375 C-17.61778642 29.50949493 -17.61778642 29.50949493 -14 31 C-10.12592754 30.91757293 -8.3267171 30.23959254 -5.1875 27.9375 C-2.24099329 23.98076242 -2 21.9293083 -2 17 C-3.1191794 14.16140195 -3.1191794 14.16140195 -5 12 C-5.391875 11.401875 -5.78375 10.80375 -6.1875 10.1875 C-11.93055988 6.42480559 -17.51743052 8.82891198 -21 14 Z " fill="#696969" transform="translate(424,80)"/>
<path d="M0 0 C1.50046875 0.00386719 1.50046875 0.00386719 3.03125 0.0078125 C4.0315625 0.00523438 5.031875 0.00265625 6.0625 0 C8.53125 0.1328125 8.53125 0.1328125 9.53125 1.1328125 C9.66518795 3.09610545 9.73481086 5.06385337 9.77734375 7.03125 C9.81021484 8.23265625 9.84308594 9.4340625 9.87695312 10.671875 C9.93796202 13.22126792 9.99527691 15.77075202 10.04882812 18.3203125 C10.10006836 20.12628906 10.10006836 20.12628906 10.15234375 21.96875 C10.1773999 23.07782715 10.20245605 24.1869043 10.22827148 25.32958984 C10.33515592 28.33925722 10.33515592 28.33925722 12.53125 31.1328125 C16.60335885 31.66354503 16.60335885 31.66354503 20.53125 31.1328125 C23.6264013 27.9214804 23.92610264 25.46796417 24.0078125 21.08984375 C24.03875 19.93419922 24.0696875 18.77855469 24.1015625 17.58789062 C24.11960938 16.38583984 24.13765625 15.18378906 24.15625 13.9453125 C24.20700751 11.55590287 24.26148436 9.1665683 24.3203125 6.77734375 C24.33787598 5.71878174 24.35543945 4.66021973 24.37353516 3.56958008 C24.53125 1.1328125 24.53125 1.1328125 25.53125 0.1328125 C27.17355364 0.0082639 28.82177276 -0.04287274 30.46875 -0.0546875 C31.36464844 -0.06886719 32.26054687 -0.08304687 33.18359375 -0.09765625 C35.53125 0.1328125 35.53125 0.1328125 37.53125 2.1328125 C37.71889772 4.79967327 37.78688289 7.3607027 37.76171875 10.02734375 C37.76126053 10.8117131 37.76080231 11.59608246 37.7603302 12.40422058 C37.75730628 14.0661266 37.74941581 15.72802974 37.73706055 17.38989258 C37.71889737 19.92474505 37.71655026 22.45923011 37.71679688 24.99414062 C37.71187784 26.60937814 37.70604784 28.22461318 37.69921875 29.83984375 C37.69810593 30.59521927 37.6969931 31.35059479 37.69584656 32.12886047 C37.66198944 35.91751775 37.44123679 39.44884104 36.53125 43.1328125 C35.18933594 43.09800781 35.18933594 43.09800781 33.8203125 43.0625 C25.44174186 42.93252472 25.44174186 42.93252472 17.21875 44.3203125 C12.07309748 45.49670345 8.11972664 44.74833469 3.53125 42.1328125 C-0.03284185 38.92598045 -2.36013491 35.72403554 -2.68994141 30.89233398 C-2.73856788 29.51303062 -2.78165387 28.13352497 -2.8203125 26.75390625 C-2.85504166 25.66300438 -2.85504166 25.66300438 -2.89047241 24.55006409 C-2.93809722 23.01269441 -2.9833331 21.47524916 -3.02636719 19.93774414 C-3.09358677 17.57604742 -3.17129691 15.21485436 -3.25 12.85351562 C-3.29490358 11.36199808 -3.33919535 9.87046197 -3.3828125 8.37890625 C-3.40671051 7.66850693 -3.43060852 6.9581076 -3.45523071 6.22618103 C-3.49899702 4.52894974 -3.48926647 2.83048402 -3.46875 1.1328125 C-2.46875 0.1328125 -2.46875 0.1328125 0 0 Z " fill="#6C6C6C" transform="translate(186.46875,77.8671875)"/>
<path d="M0 0 C3.73722721 2.06840248 6.40007151 4.0705748 8.625 7.8125 C8.625 8.4725 8.625 9.1325 8.625 9.8125 C7.015625 11.171875 7.015625 11.171875 4.875 12.5625 C4.17890625 13.03171875 3.4828125 13.5009375 2.765625 13.984375 C0.625 14.8125 0.625 14.8125 -1.453125 14.078125 C-3.09749422 12.99524771 -4.73677488 11.90465008 -6.375 10.8125 C-10.79496204 10.23954196 -12.65573636 10.26523419 -16.25 13 C-18.45856355 15.92309882 -19.28878333 17.19139986 -19.375 20.8125 C-18.95833333 24.47916667 -18.95833333 24.47916667 -17.375 27.8125 C-14.14051547 30.16485238 -12.24538992 30.8299078 -8.25 30.75 C-5.00326934 29.69128348 -3.54822881 28.40365742 -1.375 25.8125 C2.21891114 27.14738128 5.37990696 28.77272723 8.625 30.8125 C7.88053115 35.37991702 5.52576638 37.37436135 2.0703125 40.25390625 C-3.26677297 43.65565881 -9.5212971 44.47261686 -15.6875 43.1875 C-21.64711094 40.96527219 -27.05840622 37.61650085 -30.43359375 32.07421875 C-32.99352977 25.92399902 -33.14509955 18.14278115 -31.1875 11.8125 C-28.40473175 5.06490265 -24.66160966 1.80668188 -18.0859375 -1.23046875 C-11.54280389 -3.54036462 -6.24178194 -2.88293447 0 0 Z " fill="#6A6A6A" transform="translate(469.375,79.1875)"/>
<path d="M0 0 C2.68311327 1.80179869 4.4881617 3.65835719 6.140625 6.4375 C6.140625 7.0975 6.140625 7.7575 6.140625 8.4375 C4.53125 9.796875 4.53125 9.796875 2.390625 11.1875 C1.69453125 11.65671875 0.9984375 12.1259375 0.28125 12.609375 C-1.859375 13.4375 -1.859375 13.4375 -3.9375 12.703125 C-5.58186922 11.62024771 -7.22114988 10.52965008 -8.859375 9.4375 C-10.81316999 9.15964568 -10.81316999 9.15964568 -12.859375 9.25 C-13.8803125 9.25966797 -13.8803125 9.25966797 -14.921875 9.26953125 C-17.07695709 9.38052254 -17.07695709 9.38052254 -19.859375 10.4375 C-22.28312097 15.28499194 -22.32421838 20.2761391 -20.859375 25.4375 C-18.77878751 28.10040935 -17.89426295 28.42845497 -14.484375 29.3125 C-10.45780789 29.45134714 -8.97125972 28.90870257 -5.859375 26.4375 C-5.529375 25.7775 -5.199375 25.1175 -4.859375 24.4375 C-0.85478669 25.05359051 1.97082169 26.98810653 5.140625 29.4375 C5.140625 33.02633446 4.02065077 34.38792837 1.66796875 37.0078125 C-3.58665819 41.92646585 -9.74696634 42.03370438 -16.6328125 41.84375 C-22.447691 41.11161033 -26.77342149 39.01485602 -30.484375 34.4296875 C-34.89751807 27.63445016 -35.72821641 21.47184244 -34.859375 13.4375 C-32.34666633 5.77425987 -28.69505506 1.54336356 -21.671875 -2.3125 C-13.92613488 -5.33032083 -7.1044204 -3.93200626 0 0 Z " fill="#6B6B6B" transform="translate(283.859375,80.5625)"/>
<path d="M0 0 C4.23016995 0.27738819 6.40801133 0.71642704 9.8125 3.25 C10.92411158 5.94658885 11.33512538 8.33801483 11.8125 11.25 C12.1425 9.6 12.4725 7.95 12.8125 6.25 C18.22788462 5.01923077 18.22788462 5.01923077 21.1875 6.1875 C21.72375 6.538125 22.26 6.88875 22.8125 7.25 C22.8125 9.89 22.8125 12.53 22.8125 15.25 C23.8025 14.92 24.7925 14.59 25.8125 14.25 C25.8125 11.94 25.8125 9.63 25.8125 7.25 C31.10480769 5.03461538 31.10480769 5.03461538 34.6875 6.125 C35.38875 6.49625 36.09 6.8675 36.8125 7.25 C36.5340625 8.3328125 36.5340625 8.3328125 36.25 9.4375 C35.64432862 12.22825769 35.64432862 12.22825769 36.375 14.875 C36.8125 17.25 36.8125 17.25 34.8125 20.25 C32.9375 20.54296875 32.9375 20.54296875 30.8125 20.4375 C30.11125 20.41042969 29.41 20.38335937 28.6875 20.35546875 C27.759375 20.30326172 27.759375 20.30326172 26.8125 20.25 C25.24049225 20.25 23.66847907 20.29444398 22.09765625 20.35546875 C21.03417969 20.38253906 19.97070312 20.40960938 18.875 20.4375 C17.81410156 20.47230469 16.75320313 20.50710937 15.66015625 20.54296875 C12.8125 20.25 12.8125 20.25 10.93359375 18.73828125 C10.56363281 18.24714844 10.19367188 17.75601563 9.8125 17.25 C9.26078125 17.74113281 8.7090625 18.23226562 8.140625 18.73828125 C5.34879931 20.55109424 3.85064259 20.5672951 0.5625 20.4375 C-0.32953125 20.41042969 -1.2215625 20.38335937 -2.140625 20.35546875 C-2.81609375 20.32066406 -3.4915625 20.28585938 -4.1875 20.25 C-4.21638514 17.10418577 -4.23425923 13.95840531 -4.25 10.8125 C-4.25837891 9.91466797 -4.26675781 9.01683594 -4.27539062 8.09179688 C-4.27861328 7.23779297 -4.28183594 6.38378906 -4.28515625 5.50390625 C-4.29301147 4.31776733 -4.29301147 4.31776733 -4.30102539 3.10766602 C-4.1030671 -0.13161271 -3.31261058 0.25981259 0 0 Z M1.8125 7.25 C1.8125 9.56 1.8125 11.87 1.8125 14.25 C2.4725 14.25 3.1325 14.25 3.8125 14.25 C4.81467064 10.66672247 4.81467064 10.66672247 3.8125 7.25 C3.1525 7.25 2.4925 7.25 1.8125 7.25 Z " fill="#60605F" transform="translate(290.1875,131.75)"/>
<path d="M0 0 C1.51400391 0.01740234 1.51400391 0.01740234 3.05859375 0.03515625 C4.07050781 0.04417969 5.08242187 0.05320312 6.125 0.0625 C7.29869141 0.07990234 7.29869141 0.07990234 8.49609375 0.09765625 C10.15312342 3.4117156 9.6377208 7.11143673 9.62890625 10.75390625 C9.62986298 11.61197876 9.6308197 12.47005127 9.63180542 13.35412598 C9.63248647 15.16984124 9.63063742 16.98555893 9.62646484 18.80126953 C9.62111553 21.58631846 9.62641236 24.37120611 9.6328125 27.15625 C9.63215171 28.91796911 9.63087051 30.67968811 9.62890625 32.44140625 C9.63093048 33.27788696 9.63295471 34.11436768 9.63504028 34.97619629 C9.61105292 40.86773791 9.61105292 40.86773791 8.49609375 43.09765625 C4.53609375 43.09765625 0.57609375 43.09765625 -3.50390625 43.09765625 C-3.52855199 37.13452459 -3.54674025 31.1714223 -3.55883789 25.20825195 C-3.56387903 23.17797327 -3.57071182 21.14769823 -3.5793457 19.11743164 C-3.59142092 16.20588278 -3.59713659 13.29438175 -3.6015625 10.3828125 C-3.60672379 9.46927505 -3.61188507 8.55573761 -3.61720276 7.61451721 C-3.61739793 5.44190198 -3.5660243 3.26938329 -3.50390625 1.09765625 C-2.50390625 0.09765625 -2.50390625 0.09765625 0 0 Z " fill="#646464" transform="translate(234.50390625,77.90234375)"/>
<path d="M0 0 C1.98 0 3.96 0 6 0 C6 1.65 6 3.3 6 5 C6.969375 5.28875 7.93875 5.5775 8.9375 5.875 C12 7 12 7 13 9 C13.391875 8.525625 13.78375 8.05125 14.1875 7.5625 C16.51758675 5.55380452 17.93072068 5.14615616 21 5 C23.8125 5.8125 23.8125 5.8125 26 8 C26.60110455 11.39315092 26.69590564 14.61905844 26 18 C22.29584707 20.46943529 20.37855495 20.46913089 16 20 C14.0625 18 14.0625 18 13 16 C12.690625 16.66 12.38125 17.32 12.0625 18 C9.56615423 20.42069893 8.75304553 20.2963885 5.375 20.3125 C1.1836394 20.1836394 1.1836394 20.1836394 0 19 C-0.08651611 17.58429877 -0.10704904 16.164405 -0.09765625 14.74609375 C-0.09443359 13.89208984 -0.09121094 13.03808594 -0.08789062 12.15820312 C-0.07951172 11.26037109 -0.07113281 10.36253906 -0.0625 9.4375 C-0.05798828 8.53580078 -0.05347656 7.63410156 -0.04882812 6.70507812 C-0.03700225 4.46998686 -0.0205222 2.23502563 0 0 Z M6 11 C7 15 7 15 7 15 Z M19 11 C19 11.99 19 12.98 19 14 C19.66 14 20.32 14 21 14 C21 13.01 21 12.02 21 11 C20.34 11 19.68 11 19 11 Z " fill="#5C5C5A" transform="translate(341,132)"/>
<path d="M0 0 C1.98 0 3.96 0 6 0 C6 4.95 6 9.9 6 15 C6.66 15 7.32 15 8 15 C7.67 16.65 7.34 18.3 7 20 C5.23050905 20.10815225 3.45912513 20.18566083 1.6875 20.25 C0.70136719 20.29640625 -0.28476562 20.3428125 -1.30078125 20.390625 C-4 20 -4 20 -5.84375 18.15625 C-7.22017189 15.58940917 -7.23931382 13.87176585 -7 11 C-7.99 11 -8.98 11 -10 11 C-10 13.97 -10 16.94 -10 20 C-11.98 20 -13.96 20 -16 20 C-16.06058594 19.39671875 -16.12117188 18.7934375 -16.18359375 18.171875 C-16.26738281 17.37265625 -16.35117187 16.5734375 -16.4375 15.75 C-16.51871094 14.96109375 -16.59992188 14.1721875 -16.68359375 13.359375 C-16.97634993 11.17635361 -17.42064419 9.1226818 -18 7 C-17.01 6.34 -16.02 5.68 -15 5 C-14.01 5.33 -13.02 5.66 -12 6 C-11.01 5.67 -10.02 5.34 -9 5 C-8.01 5.99 -7.02 6.98 -6 8 C-3.46115547 6.84434349 -3.46115547 6.84434349 -1 5 C-0.11341534 2.40877257 -0.11341534 2.40877257 0 0 Z M-1 11 C0 15 0 15 0 15 Z " fill="#5F5F5E" transform="translate(399,132)"/>
<path d="M0 0 C0.33 0 0.66 0 1 0 C1.77496667 4.82032991 2.13861305 9.46031597 2.17700195 14.34057617 C2.18685875 15.38585732 2.18685875 15.38585732 2.19691467 16.45225525 C2.21644899 18.73249447 2.22825797 21.01266888 2.23828125 23.29296875 C2.24235678 24.07590113 2.2464323 24.8588335 2.25063133 25.6654911 C2.27139531 29.80034742 2.28574514 33.93517138 2.29516602 38.07006836 C2.30628222 42.33736342 2.34076854 46.60414449 2.38033772 50.87125683 C2.40644976 54.15949993 2.4148524 57.44761853 2.41844749 60.73595619 C2.42331815 62.30964998 2.43494588 63.88333804 2.45348549 65.45693016 C2.47778991 67.65424495 2.47693025 69.85019988 2.4699707 72.04760742 C2.47583694 73.29668381 2.48170319 74.54576019 2.48774719 75.83268738 C2 79 2 79 0.33177185 81.40614319 C-2.59189877 83.40458585 -4.2527788 83.48475845 -7.77832031 83.45410156 C-9.51967255 83.45364838 -9.51967255 83.45364838 -11.29620361 83.45318604 C-12.54423767 83.43254089 -13.79227173 83.41189575 -15.078125 83.390625 C-16.35983582 83.38496521 -17.64154663 83.37930542 -18.96209717 83.37347412 C-22.36213628 83.35823468 -25.76148694 83.31896916 -29.16125488 83.2746582 C-32.63345019 83.23366799 -36.10575724 83.21545521 -39.578125 83.1953125 C-46.38569866 83.152472 -53.19281624 83.08424212 -60 83 C-60 82.67 -60 82.34 -60 82 C-40.53 81.67 -21.06 81.34 -1 81 C-0.67 54.27 -0.34 27.54 0 0 Z " fill="#CE4D4A" transform="translate(93,66)"/>
<path d="M0 0 C8 0 8 0 12 2 C13.87643761 3.87643761 13.17984987 6.49805701 13.23046875 8.9921875 C13 11 13 11 11 14 C8.375 14.6875 8.375 14.6875 6 15 C6 16.65 6 18.3 6 20 C4.02 20 2.04 20 0 20 C0 13.4 0 6.8 0 0 Z M6 6 C7 9 7 9 7 9 Z " fill="#646463" transform="translate(413,132)"/>
<path d="M0 0 C0.66 0.33 1.32 0.66 2 1 C1.16855469 1.77923828 1.16855469 1.77923828 0.3203125 2.57421875 C-0.76636719 3.62029297 -0.76636719 3.62029297 -1.875 4.6875 C-2.59429687 5.37199219 -3.31359375 6.05648437 -4.0546875 6.76171875 C-6.08335887 9.09591291 -7.02992733 11.08467634 -8 14 C-8.66 14 -9.32 14 -10 14 C-10.74160582 18.0066188 -11.14399333 21.834275 -11.20874023 25.90673828 C-11.23767616 27.6197966 -11.23767616 27.6197966 -11.26719666 29.36746216 C-11.32545586 34.57857959 -11.37449037 39.78962517 -11.4050293 45.00097656 C-11.42278767 47.74006434 -11.45753288 50.47811193 -11.50756836 53.21679688 C-11.5800063 57.18875261 -11.60208159 61.16022639 -11.62109375 65.1328125 C-11.64892441 66.34260773 -11.67675507 67.55240295 -11.70542908 68.79885864 C-11.67698033 80.70282448 -7.12677462 89.48623611 1 98 C-2.15622033 96.61569284 -4.19511799 95.05632368 -6.5 92.5 C-7.0671875 91.8915625 -7.634375 91.283125 -8.21875 90.65625 C-13.66301976 82.53760211 -14.59929942 74.72233762 -14.53125 65.125 C-14.5350769 63.9198877 -14.53890381 62.71477539 -14.54284668 61.47314453 C-14.54555502 58.93846801 -14.53826995 56.40376302 -14.52148438 53.86914062 C-14.50006152 50.01107895 -14.5213253 46.15487942 -14.546875 42.296875 C-14.54423154 39.8229126 -14.53910618 37.34895134 -14.53125 34.875 C-14.53934692 33.73305176 -14.54744385 32.59110352 -14.55578613 31.41455078 C-14.42335301 19.98553 -10.86670416 10.81791734 -2.75 2.625 C-1.38875 1.325625 -1.38875 1.325625 0 0 Z " fill="#D14948" transform="translate(21,45)"/>
<path d="M0 0 C1.65 0 3.3 0 5 0 C5 1.98 5 3.96 5 6 C5.78375 5.938125 6.5675 5.87625 7.375 5.8125 C8.674375 5.9053125 8.674375 5.9053125 10 6 C13.04424687 10.56637031 12.12783166 14.56715459 12 20 C8.04 20 4.08 20 0 20 C0 13.4 0 6.8 0 0 Z " fill="#6B6B69" transform="translate(328,132)"/>
<path d="M0 0 C1.2065625 0.0309375 1.2065625 0.0309375 2.4375 0.0625 C2.1075 0.7225 1.7775 1.3825 1.4375 2.0625 C0.4475 2.0625 -0.5425 2.0625 -1.5625 2.0625 C-1.5625 20.2125 -1.5625 38.3625 -1.5625 57.0625 C0.9125 56.5675 0.9125 56.5675 3.4375 56.0625 C5.0473044 55.94530044 6.66007793 55.86412262 8.2734375 55.81640625 C9.17320312 55.78353516 10.07296875 55.75066406 11 55.71679688 C12.86707202 55.65585772 14.73426575 55.59853474 16.6015625 55.54492188 C26.44801666 55.2556982 26.44801666 55.2556982 34.75 50.4375 C37.4375 48.0625 37.4375 48.0625 39.4375 48.0625 C39.4375 48.7225 39.4375 49.3825 39.4375 50.0625 C37.64453125 51.5 37.64453125 51.5 35.25 53.0625 C34.47269531 53.578125 33.69539063 54.09375 32.89453125 54.625 C28.00210552 57.48734129 24.29534499 58.30794357 18.60546875 58.2578125 C17.44039795 58.25281738 16.27532715 58.24782227 15.07495117 58.24267578 C13.5916333 58.22434932 12.10831641 58.20594399 10.625 58.1875 C8.09416307 58.16451214 5.56331938 58.14226101 3.0324707 58.12060547 C0.83414714 58.10123698 -1.36417643 58.08186849 -3.5625 58.0625 C-3.58562883 50.64790058 -3.60341785 43.23330889 -3.61431217 35.81868076 C-3.61953982 32.37609652 -3.62663531 28.93353688 -3.63793945 25.4909668 C-3.65084235 21.53694957 -3.65572918 17.58294244 -3.66015625 13.62890625 C-3.66531754 12.38726212 -3.67047882 11.14561798 -3.67579651 9.86634827 C-3.67587204 8.72524094 -3.67594757 7.58413361 -3.67602539 6.40844727 C-3.678246 5.398069 -3.68046661 4.38769073 -3.68275452 3.34669495 C-3.51134914 0.09090619 -3.27957149 0.07998955 0 0 Z " fill="#5D5D5D" transform="translate(339.5625,62.9375)"/>
<path d="M0 0 C2.42194927 1.53390121 2.88729401 2.69408374 3.875 5.375 C4.04466185 8.93789883 3.36604164 10.33820316 1 13 C-2.375 14.125 -2.375 14.125 -6 14 C-9.14799562 11.72272657 -10.72101232 10.27094386 -11.5625 6.4375 C-10.09828976 0.09258896 -5.95457584 -0.75785511 0 0 Z " fill="#676767" transform="translate(241,61)"/>
<path d="M0 0 C3 1 3 1 4 3 C4.07065617 5.04055005 4.08421976 7.08334257 4.0625 9.125 C4.05347656 10.22070312 4.04445313 11.31640625 4.03515625 12.4453125 C4.02355469 13.28835937 4.01195312 14.13140625 4 15 C2.35 15 0.7 15 -1 15 C-1.33 12.36 -1.66 9.72 -2 7 C-2.33 9.64 -2.66 12.28 -3 15 C-4.65 15 -6.3 15 -8 15 C-8 12.03 -8 9.06 -8 6 C-8.66 6 -9.32 6 -10 6 C-10 4.35 -10 2.7 -10 1 C-6.85658007 -0.57170996 -3.44228549 -0.23175783 0 0 Z " fill="#585856" transform="translate(450,137)"/>
<path d="M0 0 C0 2.64 0 5.28 0 8 C0.66 8 1.32 8 2 8 C2 9.65 2 11.3 2 13 C0.04233719 13.08082094 -1.91626728 13.13910778 -3.875 13.1875 C-4.96554687 13.22230469 -6.05609375 13.25710937 -7.1796875 13.29296875 C-8.11039062 13.19628906 -9.04109375 13.09960938 -10 13 C-12 10 -12 10 -11.6875 7.125 C-11.460625 6.09375 -11.23375 5.0625 -11 4 C-10.814375 3.05125 -10.62875 2.1025 -10.4375 1.125 C-10.293125 0.42375 -10.14875 -0.2775 -10 -1 C-6.18510326 -2.46726798 -3.70988378 -1.43336419 0 0 Z " fill="#5F5F5E" transform="translate(438,139)"/>
<path d="M0 0 C1.93139795 1.93139795 1.64084066 5.39609481 2 8 C2.33 8.99 2.66 9.98 3 11 C2.67 11.66 2.34 12.32 2 13 C0.20866022 13.05391993 -1.58313899 13.09275571 -3.375 13.125 C-4.37273437 13.14820313 -5.37046875 13.17140625 -6.3984375 13.1953125 C-9 13 -9 13 -11 11 C-11.25 8 -11.25 8 -11 5 C-10.34 4.34 -9.68 3.68 -9 3 C-9 1.68 -9 0.36 -9 -1 C-5.38104084 -2.34035524 -3.41377728 -1.66075651 0 0 Z " fill="#666665" transform="translate(379,139)"/>
<path d="M0 0 C0.02686553 1.97909398 0.04633375 3.95828971 0.0625 5.9375 C0.07410156 7.03964844 0.08570313 8.14179688 0.09765625 9.27734375 C0 12 0 12 -1 13 C-8.08571429 13.45714286 -8.08571429 13.45714286 -11 12 C-12.62222327 8.75555346 -12.55531749 5.54662771 -12 2 C-8.69027386 -2.88578621 -4.96232517 -1.87465617 0 0 Z " fill="#5E5E5D" transform="translate(467,139)"/>
<path d="M0 0 C0.66 0.33 1.32 0.66 2 1 C2 5.62 2 10.24 2 15 C2.66 15 3.32 15 4 15 C4 16.32 4 17.64 4 19 C2.20866022 19.05391993 0.41686101 19.09275571 -1.375 19.125 C-2.37273437 19.14820313 -3.37046875 19.17140625 -4.3984375 19.1953125 C-7 19 -7 19 -9 17 C-9.50871036 12.42160679 -8.88050491 9.62730248 -6 6 C-5.01 6 -4.02 6 -3 6 C-2.01 4.02 -1.02 2.04 0 0 Z M-4 10 C-3 14 -3 14 -3 14 Z " fill="#6B6B69" transform="translate(402,133)"/>
<path d="M0 0 C2.8125 1.375 2.8125 1.375 4.8125 4.375 C5.31701649 7.65435719 5.08772753 8.95665416 3.25 11.75 C0.8125 13.375 0.8125 13.375 -2.75 13.375 C-6.1875 12.375 -6.1875 12.375 -8.1875 10.6875 C-9.58958688 7.4451741 -9.31894192 5.69861065 -8.1875 2.375 C-5.2029985 -0.35368709 -3.9954035 -0.78341245 0 0 Z " fill="#EA3D34" transform="translate(95.1875,34.625)"/>
<path d="M0 0 C3.48300042 1.56735019 4.60944108 3.88404185 6.5 7.125 C7.95966059 8.58466059 9.63252633 8.98290644 11.5625 9.6875 C12.29597656 9.95691406 13.02945313 10.22632812 13.78515625 10.50390625 C14.35105469 10.70886719 14.91695312 10.91382812 15.5 11.125 C12.8333581 12.45832095 11.33319697 11.79602033 8.5 11.125 C8.5 13.105 8.5 15.085 8.5 17.125 C6.85 16.795 5.2 16.465 3.5 16.125 C3.17 12.165 2.84 8.205 2.5 4.125 C0.85 3.795 -0.8 3.465 -2.5 3.125 C-3.85827701 5.84155403 -3.6323445 8.03289406 -3.625 11.0625 C-3.62757812 12.12339844 -3.63015625 13.18429688 -3.6328125 14.27734375 C-3.62569346 17.20073057 -3.62569346 17.20073057 -2.5 20.125 C-8.25 18.375 -8.25 18.375 -10.5 16.125 C-10.125 13.5 -10.125 13.5 -9.5 11.125 C-10.82 10.795 -12.14 10.465 -13.5 10.125 C-11.19 10.125 -8.88 10.125 -6.5 10.125 C-6.5825 9.2175 -6.665 8.31 -6.75 7.375 C-6.5 4.125 -6.5 4.125 -4.8125 1.6875 C-2.5 0.125 -2.5 0.125 0 0 Z " fill="#DF4443" transform="translate(47.5,59.875)"/>
<path d="M0 0 C1.65 0 3.3 0 5 0 C5 6.6 5 13.2 5 20 C3.02 20 1.04 20 -1 20 C-1.02888514 16.85418577 -1.04675923 13.70840531 -1.0625 10.5625 C-1.07087891 9.66466797 -1.07925781 8.76683594 -1.08789062 7.84179688 C-1.09111328 6.98779297 -1.09433594 6.13378906 -1.09765625 5.25390625 C-1.10551147 4.06776733 -1.10551147 4.06776733 -1.11352539 2.85766602 C-1 1 -1 1 0 0 Z " fill="#696969" transform="translate(469,132)"/>
<path d="M0 0 C0.66 0 1.32 0 2 0 C2 1.65 2 3.3 2 5 C3.98 5 5.96 5 8 5 C10.21538462 10.29230769 10.21538462 10.29230769 9.125 13.875 C8.75375 14.57625 8.3825 15.2775 8 16 C4.04 16.495 4.04 16.495 0 17 C0 16.34 0 15.68 0 15 C-0.66 14.67 -1.32 14.34 -2 14 C-1.85866501 12.22880197 -1.71176792 10.45804713 -1.5625 8.6875 C-1.48128906 7.70136719 -1.40007812 6.71523437 -1.31640625 5.69921875 C-1 3 -1 3 0 0 Z M4 9 C5 13 5 13 5 13 Z " fill="#6D6D6C" transform="translate(343,134)"/>
<path d="M0 0 C1.62463842 -0.05395478 3.24978541 -0.09277195 4.875 -0.125 C5.77992188 -0.14820312 6.68484375 -0.17140625 7.6171875 -0.1953125 C10 0 10 0 12 2 C12.18764772 4.66686077 12.25563289 7.2278902 12.23046875 9.89453125 C12.22978142 11.07108528 12.22978142 11.07108528 12.2290802 12.27140808 C12.22605628 13.9333141 12.21816581 15.59521724 12.20581055 17.25708008 C12.18764737 19.79193255 12.18530026 22.32641761 12.18554688 24.86132812 C12.18062784 26.47656564 12.17479784 28.09180068 12.16796875 29.70703125 C12.16685593 30.46240677 12.1657431 31.21778229 12.16459656 31.99604797 C12.12996727 35.87111139 11.76757291 39.16213544 11 43 C6.71 43 2.42 43 -2 43 C-1.67 42.01 -1.34 41.02 -1 40 C-0.34 40.33 0.32 40.66 1 41 C3.97 41.33 6.94 41.66 10 42 C10 28.8 10 15.6 10 2 C6.7 2 3.4 2 0 2 C-0.33 2.99 -0.66 3.98 -1 5 C-0.67 3.35 -0.34 1.7 0 0 Z " fill="#383838" transform="translate(212,78)"/>
<path d="M0 0 C4.00458831 0.61609051 6.83019669 2.55060653 10 5 C10 8.58883446 8.88002577 9.95042837 6.52734375 12.5703125 C1.26898755 17.49245667 -4.86771876 17.56487457 -11.75390625 17.4375 C-16.56611569 16.78892304 -20.10665329 14.81689168 -24 12 C-24 11.34 -24 10.68 -24 10 C-21.24753081 11.05241469 -18.74543671 12.14708101 -16.1875 13.625 C-9.25873261 16.61388005 -3.84731142 14.90076885 2.8984375 12.36328125 C5.60946726 10.60463927 6.12299461 9.05988146 7 6 C7 5.34 7 4.68 7 4 C2.59806418 3.68434242 2.59806418 3.68434242 -1.3125 5.5 C-5.16621614 7.65091133 -8.68040809 7.25409364 -13 7 C-13 6.34 -13 5.68 -13 5 C-11.948125 5.061875 -10.89625 5.12375 -9.8125 5.1875 C-5.81612976 4.9909572 -4.13100094 4.39429484 -1 2 C-0.67 1.34 -0.34 0.68 0 0 Z " fill="#535353" transform="translate(279,105)"/>
<path d="M0 0 C8.625 -0.25 8.625 -0.25 12 2 C12.1875 4.625 12.1875 4.625 12 7 C11.01 7.33 10.02 7.66 9 8 C8.34 6.68 7.68 5.36 7 4 C5.68 4 4.36 4 3 4 C3.28359887 5.4391134 3.57721399 6.87625518 3.875 8.3125 C4.11863281 9.51326172 4.11863281 9.51326172 4.3671875 10.73828125 C4.94478999 13.25301118 4.94478999 13.25301118 7 16 C2.25 17.125 2.25 17.125 0 16 C0 10.72 0 5.44 0 0 Z " fill="#6E6E6D" transform="translate(287,134)"/>
<path d="M0 0 C3.0625 0.125 3.0625 0.125 5.0625 1.125 C5.4765625 3.62890625 5.4765625 3.62890625 5.6875 6.6875 C5.76226562 7.69941406 5.83703125 8.71132812 5.9140625 9.75390625 C5.96304687 10.53636719 6.01203125 11.31882813 6.0625 12.125 C2.7625 12.125 -0.5375 12.125 -3.9375 12.125 C-4.5975 10.475 -5.2575 8.825 -5.9375 7.125 C-4.6175 5.805 -3.2975 4.485 -1.9375 3.125 C-2.5975 2.465 -3.2575 1.805 -3.9375 1.125 C-2.9375 0.125 -2.9375 0.125 0 0 Z " fill="#6C6C6A" transform="translate(307.9375,138.875)"/>
<path d="M0 0 C6.75 1.625 6.75 1.625 9 5 C8.625 8.6875 8.625 8.6875 8 12 C5.1875 12.6875 5.1875 12.6875 2 13 C-0.44750313 11.48086012 -0.90602723 10.30541149 -1.75 7.5625 C-1.99783857 5.02215464 -1.85277638 3.38777385 -1 1 C-0.67 0.67 -0.34 0.34 0 0 Z M3 5 C3 5.99 3 6.98 3 8 C3.66 8 4.32 8 5 8 C5 7.01 5 6.02 5 5 C4.34 5 3.68 5 3 5 Z " fill="#646462" transform="translate(357,138)"/>
<path d="M0 0 C-1.423125 0.7734375 -1.423125 0.7734375 -2.875 1.5625 C-6.72130387 4.56261702 -7.35059023 6.21060295 -8 11 C-7.68538352 14.76884604 -7.68538352 14.76884604 -6 18 C-2.76551547 20.35235238 -0.87038992 21.0174078 3.125 20.9375 C6.37173066 19.87878348 7.82677119 18.59115742 10 16 C13.59391114 17.33488128 16.75490696 18.96022723 20 21 C19.52797514 25.24822374 17.03344482 27.19989709 14 30 C13.34 29.67 12.68 29.34 12 29 C12.66 28.4225 13.32 27.845 14 27.25 C16.44290923 25.00346023 16.44290923 25.00346023 16 21 C14.02 20.01 12.04 19.02 10 18 C9.67 18.99 9.34 19.98 9 21 C4.96839035 23.68773977 1.73576122 23.67415933 -3 23 C-6.05898964 21.24270808 -7.513863 19.77339977 -9.375 16.8125 C-10.58425924 11.3708334 -9.86478722 5.81284253 -7 1 C-4.0449252 -1.00182486 -3.50436101 -1.16812034 0 0 Z " fill="#535353" transform="translate(458,89)"/>
<path d="M0 0 C8.36472538 1.32773419 14.54308838 3.87630581 20.0859375 10.48828125 C26.38425454 19.57585298 26.36366117 27.15917351 25.44921875 37.84765625 C25.30097656 38.55792969 25.15273438 39.26820312 25 40 C24.01 40.495 24.01 40.495 23 41 C23.03480469 39.69804688 23.06960938 38.39609375 23.10546875 37.0546875 C23.13361901 35.32813796 23.16091784 33.60157439 23.1875 31.875 C23.21263672 31.0190625 23.23777344 30.163125 23.26367188 29.28125 C23.32453837 24.00615389 22.75890012 20.64885532 20 16 C20 15.34 20 14.68 20 14 C19.34 13.67 18.68 13.34 18 13 C17.6596875 11.7934375 17.6596875 11.7934375 17.3125 10.5625 C16.18433223 7.63993042 16.18433223 7.63993042 12.6875 6.8125 C10.8621875 6.4103125 10.8621875 6.4103125 9 6 C8.071875 5.608125 7.14375 5.21625 6.1875 4.8125 C5.465625 4.544375 4.74375 4.27625 4 4 C3.01 4.495 3.01 4.495 2 5 C1.34 3.35 0.68 1.7 0 0 Z " fill="#515151" transform="translate(360,63)"/>
<path d="M0 0 C2.475 0.495 2.475 0.495 5 1 C5 1.99 5 2.98 5 4 C5.66 4 6.32 4 7 4 C8.40234375 5.609375 8.40234375 5.609375 9.9375 7.75 C10.44152344 8.44609375 10.94554687 9.1421875 11.46484375 9.859375 C12.4940167 11.29445586 13.48258574 12.75947919 14.4296875 14.25 C15.84662079 16.18442085 15.84662079 16.18442085 18.04296875 16.390625 C18.75066406 16.34421875 19.45835937 16.2978125 20.1875 16.25 C22.0746875 16.12625 22.0746875 16.12625 24 16 C23.67 14.35 23.34 12.7 23 11 C23.66 11 24.32 11 25 11 C28 15.38461538 28 15.38461538 28 18 C23.14333074 18.74611704 18.82849917 19.02376407 14 18 C10.08832282 14.45031505 7.73857165 10.51592279 5 6 C4.01 5.01 3.02 4.02 2 3 C2 7.29 2 11.58 2 16 C1.34 16 0.68 16 0 16 C0 10.72 0 5.44 0 0 Z " fill="#4E4F4F" transform="translate(304,103)"/>
<path d="M0 0 C0.99 0.495 0.99 0.495 2 1 C2 12.22 2 23.44 2 35 C5.3 35 8.6 35 12 35 C12 35.66 12 36.32 12 37 C8.04 37 4.08 37 0 37 C0 24.79 0 12.58 0 0 Z " fill="#626262" transform="translate(293,84)"/>
<path d="M0 0 C0 1.32 0 2.64 0 4 C-2 5.75 -2 5.75 -4 7 C-3.67 5.68 -3.34 4.36 -3 3 C-6.10108788 2.57436049 -8.91745049 2.38452451 -12 3 C-13.78062189 4.69159079 -14.84110499 6.32586708 -16.02734375 8.46875 C-16.34832031 8.9740625 -16.66929687 9.479375 -17 10 C-17.66 10 -18.32 10 -19 10 C-19.2475 10.969375 -19.495 11.93875 -19.75 12.9375 C-21 16 -21 16 -23.0625 16.9375 C-23.701875 16.958125 -24.34125 16.97875 -25 17 C-26 16 -26 16 -26.09765625 14.15234375 C-26.06510417 12.1015625 -26.03255208 10.05078125 -26 8 C-25.67 8 -25.34 8 -25 8 C-24.67 9.98 -24.34 11.96 -24 14 C-23.67 13.34 -23.34 12.68 -23 12 C-22.34 12 -21.68 12 -21 12 C-20.72929687 11.42765625 -20.45859375 10.8553125 -20.1796875 10.265625 C-15.25308021 0.80392888 -10.5563106 -1.24803672 0 0 Z " fill="#5E5E5E" transform="translate(330,78)"/>
<path d="M0 0 C1.65 0 3.3 0 5 0 C5 1.98 5 3.96 5 6 C6.65 6 8.3 6 10 6 C10.33 6.66 10.66 7.32 11 8 C8.69 7.67 6.38 7.34 4 7 C3.67 6.01 3.34 5.02 3 4 C3.33 3.34 3.66 2.68 4 2 C3.01 2 2.02 2 1 2 C1 7.61 1 13.22 1 19 C1.99 19 2.98 19 4 19 C4 16.03 4 13.06 4 10 C4.99 10 5.98 10 7 10 C8 11 8 11 8.0625 14.5625 C8.041875 15.696875 8.02125 16.83125 8 18 C9.32 18 10.64 18 12 18 C12 18.66 12 19.32 12 20 C8.04 20 4.08 20 0 20 C0 13.4 0 6.8 0 0 Z " fill="#5E5E5D" transform="translate(328,132)"/>
<path d="M0 0 C6.72 0.72 6.72 0.72 8 2 C8.125 4.5 8.125 4.5 8 7 C7 8 7 8 3.9375 8.0625 C2.968125 8.041875 1.99875 8.02125 1 8 C0.67 8.99 0.34 9.98 0 11 C-2 9 -2 9 -2.01171875 7.08984375 C-1.11111111 1.11111111 -1.11111111 1.11111111 0 0 Z " fill="#656563" transform="translate(458,138)"/>
<path d="M0 0 C1.95766281 -0.08082094 3.91626728 -0.13910778 5.875 -0.1875 C7.51082031 -0.23970703 7.51082031 -0.23970703 9.1796875 -0.29296875 C10.11039063 -0.19628906 11.04109375 -0.09960938 12 0 C12.66 0.99 13.32 1.98 14 3 C10.7 2.67 7.4 2.34 4 2 C3.67 2.66 3.34 3.32 3 4 C3.99 4.33 4.98 4.66 6 5 C8.46552067 8.37867647 9 9.70558202 9 14 C3.58264203 14.93402724 0.19548425 15.20808081 -5 13 C-1.32589215 11.82428549 2.16929183 11.92633254 6 12 C5.38125 10.88625 4.7625 9.7725 4.125 8.625 C3.77695313 7.99851562 3.42890625 7.37203125 3.0703125 6.7265625 C1.99102726 4.8387386 1.99102726 4.8387386 0 3 C0 2.01 0 1.02 0 0 Z " fill="#555555" transform="translate(146,97)"/>
<path d="M0 0 C2.14762184 3.22143276 2.561068 4.2595467 2 8 C0 9.8125 0 9.8125 -2 11 C-2 10.34 -2 9.68 -2 9 C-2.66 8.67 -3.32 8.34 -4 8 C-3.67 7.67 -3.34 7.34 -3 7 C-3.40929986 4.94603274 -3.40929986 4.94603274 -4 3 C-6.31 3 -8.62 3 -11 3 C-10.1875 1.0625 -10.1875 1.0625 -9 -1 C-5.18652885 -2.27115705 -3.64026964 -1.54905091 0 0 Z " fill="#E63B39" transform="translate(98,36)"/>
<path d="M0 0 C1.81242052 -0.02687279 3.62495233 -0.04633715 5.4375 -0.0625 C6.44683594 -0.07410156 7.45617187 -0.08570312 8.49609375 -0.09765625 C11 0 11 0 12 1 C12.13393795 2.96329295 12.20356086 4.93104087 12.24609375 6.8984375 C12.27896484 8.09984375 12.31183594 9.30125 12.34570312 10.5390625 C12.40671202 13.08845542 12.46402691 15.63793952 12.51757812 18.1875 C12.56881836 19.99347656 12.56881836 19.99347656 12.62109375 21.8359375 C12.6461499 22.94501465 12.67120605 24.0540918 12.69702148 25.19677734 C12.80390592 28.20644472 12.80390592 28.20644472 15 31 C17.05925139 31.72382467 17.05925139 31.72382467 19 32 C19 32.66 19 33.32 19 34 C16.6875 34.25 16.6875 34.25 14 34 C11.62313223 31.68258031 11.03341229 30.29671067 10.65942383 26.97558594 C10.67513428 25.82348633 10.69084473 24.67138672 10.70703125 23.484375 C10.71669922 22.23398438 10.72636719 20.98359375 10.73632812 19.6953125 C10.76146484 18.39335938 10.78660156 17.09140625 10.8125 15.75 C10.82603516 14.43257812 10.83957031 13.11515625 10.85351562 11.7578125 C10.88887191 8.505034 10.94267848 5.25246557 11 2 C7.04 2 3.08 2 -1 2 C-0.67 1.34 -0.34 0.68 0 0 Z " fill="#5A5A5A" transform="translate(184,78)"/>
<path d="M0 0 C0.99 0.66 1.98 1.32 3 2 C3 2.66 3 3.32 3 4 C1.390625 5.359375 1.390625 5.359375 -0.75 6.75 C-1.79414063 7.45382813 -1.79414063 7.45382813 -2.859375 8.171875 C-5 9 -5 9 -7.078125 8.265625 C-8.72249422 7.18274771 -10.36177488 6.09215008 -12 5 C-13.95379499 4.72214568 -13.95379499 4.72214568 -16 4.8125 C-17.0209375 4.82216797 -17.0209375 4.82216797 -18.0625 4.83203125 C-20.21758209 4.94302254 -20.21758209 4.94302254 -23 6 C-24.03038956 8.56042066 -24.03038956 8.56042066 -24.6875 11.5625 C-24.93886719 12.57441406 -25.19023437 13.58632812 -25.44921875 14.62890625 C-25.63097656 15.41136719 -25.81273437 16.19382812 -26 17 C-26.33 17 -26.66 17 -27 17 C-27.4560284 11.29964499 -26.60412752 8.45215753 -23 4 C-20.43435275 2.71717637 -18.48966931 2.79608047 -15.625 2.75 C-14.66851562 2.72421875 -13.71203125 2.6984375 -12.7265625 2.671875 C-9.585431 3.04989083 -8.44846635 4.10424652 -6 6 C-2.77825456 5.28776153 -2.77825456 5.28776153 0 4 C-0.33 3.01 -0.66 2.02 -1 1 C-0.67 0.67 -0.34 0.34 0 0 Z " fill="#545454" transform="translate(287,85)"/>
<path d="M0 0 C2.97 0 5.94 0 9 0 C9.33 0.99 9.66 1.98 10 3 C8.35 3 6.7 3 5 3 C5 6.3 5 9.6 5 13 C3.68 12.67 2.36 12.34 1 12 C0.83126522 10.56274129 0.66509263 9.12518162 0.5 7.6875 C0.4071875 6.88699219 0.314375 6.08648437 0.21875 5.26171875 C0 3 0 3 0 0 Z " fill="#6A6A68" transform="translate(442,139)"/>
<path d="M0 0 C0.33 0 0.66 0 1 0 C1.05819473 4.06243957 1.09366215 8.12477146 1.125 12.1875 C1.14175781 13.33798828 1.15851563 14.48847656 1.17578125 15.67382812 C1.18222656 16.78564453 1.18867188 17.89746094 1.1953125 19.04296875 C1.20578613 20.06414795 1.21625977 21.08532715 1.22705078 22.13745117 C0.98504135 25.1885916 0.41353455 27.29067651 -1 30 C-4 32 -4 32 -8 32 C-8 31.34 -8 30.68 -8 30 C-6.34467377 28.98133771 -4.67739862 27.98189187 -3 27 C-1.77909555 24.55819109 -1.81138685 22.82576232 -1.71875 20.09765625 C-1.68136719 19.12505859 -1.64398438 18.15246094 -1.60546875 17.15039062 C-1.55326172 15.62188477 -1.55326172 15.62188477 -1.5 14.0625 C-1.4311112 12.05324328 -1.3583642 10.0441141 -1.28125 8.03515625 C-1.23581055 6.69529663 -1.23581055 6.69529663 -1.18945312 5.32836914 C-1 3 -1 3 0 0 Z " fill="#616161" transform="translate(212,80)"/>
<path d="M0 0 C0.66 0 1.32 0 2 0 C1.87603022 5.95054947 0.048595 8.98876004 -4.0625 13.265625 C-9.88727762 18.47974045 -15.38223572 18.32761674 -22.9140625 18.30078125 C-25.97941879 18.00200602 -28.22326641 17.29546493 -31 16 C-31 15.67 -31 15.34 -31 15 C-29.865625 15.11859375 -28.73125 15.2371875 -27.5625 15.359375 C-17.13941378 16.65018481 -17.13941378 16.65018481 -7.51171875 13.37109375 C-3.38849294 9.63142383 -0.51573712 5.67310832 0 0 Z " fill="#565656" transform="translate(431,104)"/>
<path d="M0 0 C1.98 0 3.96 0 6 0 C6 4.95 6 9.9 6 15 C6.66 15 7.32 15 8 15 C7.67 16.32 7.34 17.64 7 19 C7 18.01 7 17.02 7 16 C6.34 16 5.68 16 5 16 C3.95023036 12.85069107 3.89868405 10.61185544 3.9375 7.3125 C3.94652344 6.31863281 3.95554687 5.32476562 3.96484375 4.30078125 C3.97644531 3.54152344 3.98804688 2.78226563 4 2 C1.92806846 3.83784924 1.92806846 3.83784924 1.0625 6.0625 C0 8 0 8 -3 9 C-3.99 9.495 -3.99 9.495 -5 10 C-5.65772428 13.02934491 -5.65772428 13.02934491 -6 16 C-6.33 16 -6.66 16 -7 16 C-7 14.35 -7 12.7 -7 11 C-7.66 11 -8.32 11 -9 11 C-8.67 9.35 -8.34 7.7 -8 6 C-7.34 6.66 -6.68 7.32 -6 8 C-3.46115547 6.84434349 -3.46115547 6.84434349 -1 5 C-0.11341534 2.40877257 -0.11341534 2.40877257 0 0 Z " fill="#5A5A58" transform="translate(399,132)"/>
<path d="M0 0 C2.475 0.495 2.475 0.495 5 1 C6.1577506 4.47325181 6.06866652 7.36067448 6 11 C6.66 11 7.32 11 8 11 C8.33 15.62 8.66 20.24 9 25 C8.01 25.33 7.02 25.66 6 26 C6 26.99 6 27.98 6 29 C5.34 29 4.68 29 4 29 C4.2475 27.2984375 4.2475 27.2984375 4.5 25.5625 C5.62115728 16.19753921 5.39276444 8.08914666 0 0 Z " fill="#DD4644" transform="translate(65,73)"/>
<path d="M0 0 C0.66 0.33 1.32 0.66 2 1 C1.67 1.53625 1.34 2.0725 1 2.625 C-0.29617187 5.70340819 -0.39874003 7.67716638 0 11 C1.41038912 14.40726463 1.41038912 14.40726463 4 17 C7.93614223 18.05432381 11.13017715 18.39313623 15 17 C14.67 17.99 14.34 18.98 14 20 C5.10535406 20.62176166 5.10535406 20.62176166 1 18.3125 C-2.11122293 14.71514848 -2.89757559 12.16763826 -3.3125 7.4375 C-2.98698209 3.85680296 -2.44524544 2.54713067 0 0 Z " fill="#4B4B4B" transform="translate(403,92)"/>
<path d="M0 0 C1.66611905 -0.042721 3.33382885 -0.04063832 5 0 C6.93139795 1.93139795 6.64084066 5.39609481 7 8 C7.33 8.99 7.66 9.98 8 11 C7.67 11.66 7.34 12.32 7 13 C5.68 13 4.36 13 3 13 C2.690625 12.05125 2.38125 11.1025 2.0625 10.125 C1.12605258 7.13919592 1.12605258 7.13919592 0 5 C0.33 4.01 0.66 3.02 1 2 C0.67 1.34 0.34 0.68 0 0 Z " fill="#686867" transform="translate(374,139)"/>
<path d="M0 0 C1.65 0.33 3.3 0.66 5 1 C6.25 8.625 6.25 8.625 4 12 C1.69 11.67 -0.62 11.34 -3 11 C-3.33 10.01 -3.66 9.02 -4 8 C-2.68 8.33 -1.36 8.66 0 9 C0.84454356 5.62182575 1.10844919 3.32534757 0 0 Z " fill="#656564" transform="translate(321,140)"/>
<path d="M0 0 C0.33 0 0.66 0 1 0 C1.14287106 3.95099279 1.28527574 7.90200208 1.42724609 11.85302734 C1.4994264 13.85905842 1.57197734 15.86507615 1.64453125 17.87109375 C1.68964844 19.12792969 1.73476563 20.38476562 1.78125 21.6796875 C1.82314453 22.84226074 1.86503906 24.00483398 1.90820312 25.20263672 C1.96066045 26.80119006 2 28.40058618 2 30 C1.34 30 0.68 30 0 30 C-0.93403708 26.83197255 -1.12878554 23.98080846 -1.1328125 20.68359375 C-1.13410156 19.67232422 -1.13539063 18.66105469 -1.13671875 17.61914062 C-1.13285156 16.56919922 -1.12898438 15.51925781 -1.125 14.4375 C-1.12886719 13.38369141 -1.13273437 12.32988281 -1.13671875 11.24414062 C-1.13542969 10.23416016 -1.13414062 9.22417969 -1.1328125 8.18359375 C-1.13168457 7.26118896 -1.13055664 6.33878418 -1.12939453 5.38842773 C-1 3 -1 3 0 0 Z " fill="#515151" transform="translate(348,78)"/>
<path d="M0 0 C3.66464055 0.4952217 5.70832354 1.0208206 8 4 C10.10963665 10.32890996 10.06876909 17.64675451 7.125 23.6875 C5 27 5 27 3 28 C4.875 22.125 4.875 22.125 6 21 C6.18063984 18.54507499 6.27801743 16.14495751 6.3125 13.6875 C6.34150391 13.01009766 6.37050781 12.33269531 6.40039062 11.63476562 C6.44436831 8.1740601 6.30500004 6.37920624 4.10546875 3.64453125 C3.41066406 3.10183594 2.71585938 2.55914062 2 2 C1.34 1.34 0.68 0.68 0 0 Z " fill="#C54B4A" transform="translate(56,77)"/>
<path d="M0 0 C0.66 0 1.32 0 2 0 C1.67 0.886875 1.34 1.77375 1 2.6875 C-0.81057407 9.07009924 -1.66309518 17.68019888 1.5625 23.6875 C2.036875 24.450625 2.51125 25.21375 3 26 C2.67 26.66 2.34 27.32 2 28 C-2.94717257 20.81862046 -3.66633391 15.6179186 -3 7 C-2.24976079 4.38288648 -1.31158028 2.40456385 0 0 Z " fill="#5B5B5B" transform="translate(252,87)"/>
<path d="M0 0 C0.99 0 1.98 0 3 0 C3 3.63 3 7.26 3 11 C1.68 11.33 0.36 11.66 -1 12 C-2.87643761 10.12356239 -2.17984987 7.50194299 -2.23046875 5.0078125 C-2 3 -2 3 0 0 Z " fill="#6B6B6B" transform="translate(471,134)"/>
<path d="M0 0 C0.66 0 1.32 0 2 0 C2 0.66 2 1.32 2 2 C2.66 2 3.32 2 4 2 C4 4.31 4 6.62 4 9 C2.68 8.67 1.36 8.34 0 8 C0 9.32 0 10.64 0 12 C0.66 12.33 1.32 12.66 2 13 C-1.875 12.125 -1.875 12.125 -3 11 C-3.41935884 6.38705274 -2.82918336 3.69970132 0 0 Z M2 4 C3 8 3 8 3 8 Z " fill="#656564" transform="translate(396,139)"/>
<path d="M0 0 C1.32 0.33 2.64 0.66 4 1 C3.67 1.66 3.34 2.32 3 3 C3.598125 2.79375 4.19625 2.5875 4.8125 2.375 C7 2 7 2 10 4 C9.67 4.99 9.34 5.98 9 7 C6.03 7 3.06 7 0 7 C-0.66 5.68 -1.32 4.36 -2 3 C-1.34 2.01 -0.68 1.02 0 0 Z " fill="#6D6D6C" transform="translate(429,144)"/>
<path d="M0 0 C0.33 0.99 0.66 1.98 1 3 C0.01 3.495 0.01 3.495 -1 4 C-1.46523063 5.89533342 -1.46523063 5.89533342 -1.625 8.0625 C-1.810625 10.0115625 -1.810625 10.0115625 -2 12 C-3.32 12.33 -4.64 12.66 -6 13 C-6 9.37 -6 5.74 -6 2 C-4.02 1.34 -2.04 0.68 0 0 Z " fill="#6D6D6B" transform="translate(390,138)"/>
<path d="M0 0 C0.66 0.33 1.32 0.66 2 1 C1.67 3.31 1.34 5.62 1 8 C-1.8125 8.6875 -1.8125 8.6875 -5 9 C-6.875 7.6875 -6.875 7.6875 -8 6 C-8 5.34 -8 4.68 -8 4 C-7.01 3.67 -6.02 3.34 -5 3 C-4.34 3.66 -3.68 4.32 -3 5 C-2.01 3.35 -1.02 1.7 0 0 Z " fill="#6C6C6B" transform="translate(364,142)"/>
<path d="M0 0 C0.12375 0.639375 0.2475 1.27875 0.375 1.9375 C0.58125 2.618125 0.7875 3.29875 1 4 C1.66 4.33 2.32 4.66 3 5 C3 5.66 3 6.32 3 7 C0.36 6.67 -2.28 6.34 -5 6 C-5 6.66 -5 7.32 -5 8 C-7.97 7.505 -7.97 7.505 -11 7 C-11 6.34 -11 5.68 -11 5 C-10.37351563 4.80664062 -9.74703125 4.61328125 -9.1015625 4.4140625 C-8.28429687 4.15367187 -7.46703125 3.89328125 -6.625 3.625 C-5.81289062 3.36976563 -5.00078125 3.11453125 -4.1640625 2.8515625 C-1.83540815 2.10145717 -1.83540815 2.10145717 0 0 Z " fill="#E53F3A" transform="translate(73,135)"/>
<path d="M0 0 C0.99 0.33 1.98 0.66 3 1 C4.78302868 5.62538617 4.65937404 11.1550342 4 16 C1.625 19.1875 1.625 19.1875 -1 21 C-1.66 21 -2.32 21 -3 21 C-2.67 19.68 -2.34 18.36 -2 17 C-1.67 17.33 -1.34 17.66 -1 18 C1.92941173 12.32426477 1.71183038 6.03933757 0 0 Z " fill="#5A5A5A" transform="translate(163,83)"/>
<path d="M0 0 C-0.99 0.33 -1.98 0.66 -3 1 C-2.67 1.66 -2.34 2.32 -2 3 C-2.33 3.66 -2.66 4.32 -3 5 C-5.5625 5.625 -5.5625 5.625 -8 6 C-8.33 7.65 -8.66 9.3 -9 11 C-9.33 11 -9.66 11 -10 11 C-10.125 8.125 -10.125 8.125 -10 5 C-9.34 4.34 -8.68 3.68 -8 3 C-8 1.68 -8 0.36 -8 -1 C-4.59745511 -2.2151946 -3.06748874 -1.86240388 0 0 Z " fill="#5F5F5F" transform="translate(378,139)"/>
<path d="M0 0 C0.99 0.66 1.98 1.32 3 2 C3.1875 5.125 3.1875 5.125 3 8 C0 8 0 8 -2 7 C-3.32 7 -4.64 7 -6 7 C-5.67 5.35 -5.34 3.7 -5 2 C-3.68 2 -2.36 2 -1 2 C-0.67 1.34 -0.34 0.68 0 0 Z M-4 3 C-3 6 -3 6 -3 6 Z " fill="#646462" transform="translate(423,135)"/>
<path d="M0 0 C0 0.99 0 1.98 0 3 C-5.625 6 -5.625 6 -9 6 C-9 9.3 -9 12.6 -9 16 C-9.66 16 -10.32 16 -11 16 C-11 12.37 -11 8.74 -11 5 C-7.37 3.35 -3.74 1.7 0 0 Z " fill="#DB4D47" transform="translate(61,111)"/>
<path d="M0 0 C1.08667969 0.02707031 2.17335938 0.05414063 3.29296875 0.08203125 C4.54013672 0.13423828 4.54013672 0.13423828 5.8125 0.1875 C5.8125 1.5075 5.8125 2.8275 5.8125 4.1875 C3.8125 5.9375 3.8125 5.9375 1.8125 7.1875 C2.1425 5.8675 2.4725 4.5475 2.8125 3.1875 C2.19761719 3.1875 1.58273437 3.1875 0.94921875 3.1875 C-2.4296875 3.1875 -5.80859375 3.1875 -9.1875 3.1875 C-6.54246503 -0.34849411 -4.24021315 -0.13678107 0 0 Z " fill="#5A5A5A" transform="translate(324.1875,77.8125)"/>
<path d="M0 0 C0.99 0.33 1.98 0.66 3 1 C3 2.65 3 4.3 3 6 C2.360625 6.12375 1.72125 6.2475 1.0625 6.375 C0.0415625 6.684375 0.0415625 6.684375 -1 7 C-1.33 7.66 -1.66 8.32 -2 9 C-2.99 8.34 -3.98 7.68 -5 7 C-3.75023244 3.34683329 -3.32901247 2.21934164 0 0 Z M1 2 C2 6 2 6 2 6 Z " fill="#656563" transform="translate(346,141)"/>
<path d="M0 0 C0.66 0 1.32 0 2 0 C2.66 1.65 3.32 3.3 4 5 C2.7636832 5.89422914 1.51028438 6.76487891 0.25 7.625 C-0.44609375 8.11226562 -1.1421875 8.59953125 -1.859375 9.1015625 C-4 10 -4 10 -6.03125 9.25 C-6.6809375 8.8375 -7.330625 8.425 -8 8 C-9.24552495 7.44812106 -10.49535229 6.90581249 -11.75 6.375 C-13.35875 5.694375 -13.35875 5.694375 -15 5 C-15 4.67 -15 4.34 -15 4 C-10.94393835 4.46800711 -7.53411321 4.87953208 -4 7 C-2.35 5.68 -0.7 4.36 1 3 C0.67 2.01 0.34 1.02 0 0 Z " fill="#565656" transform="translate(474,84)"/>
<path d="M0 0 C1.51400391 0.01740234 1.51400391 0.01740234 3.05859375 0.03515625 C4.07050781 0.04417969 5.08242187 0.05320312 6.125 0.0625 C7.29869141 0.07990234 7.29869141 0.07990234 8.49609375 0.09765625 C8.82609375 2.07765625 9.15609375 4.05765625 9.49609375 6.09765625 C9.16609375 5.10765625 8.83609375 4.11765625 8.49609375 3.09765625 C5.19609375 2.76765625 1.89609375 2.43765625 -1.50390625 2.09765625 C-1.83390625 4.40765625 -2.16390625 6.71765625 -2.50390625 9.09765625 C-2.83390625 9.09765625 -3.16390625 9.09765625 -3.50390625 9.09765625 C-3.6015625 2.9453125 -3.6015625 2.9453125 -3.50390625 1.09765625 C-2.50390625 0.09765625 -2.50390625 0.09765625 0 0 Z " fill="#5D5D5D" transform="translate(234.50390625,77.90234375)"/>
<path d="M0 0 C2.02045442 0.60183749 4.02111039 1.27306096 6 2 C6.33 2.66 6.66 3.32 7 4 C9.41645782 4.16687448 9.41645782 4.16687448 12 4 C12.66 3.34 13.32 2.68 14 2 C14 2.66 14 3.32 14 4 C14.66 4.33 15.32 4.66 16 5 C13.32207206 6.820991 11.8595082 6.9974456 8.5625 6.9375 C4.37410924 5.8352919 2.72476534 4.30274587 0 1 C0 0.67 0 0.34 0 0 Z " fill="#DF4543" transform="translate(51,128)"/>
<path d="M0 0 C0.33 1.65 0.66 3.3 1 5 C-2 5 -2 5 -4.8125 3.875 C-8.63182425 2.82655805 -10.42074166 3.46603214 -14 5 C-14.33 3.68 -14.66 2.36 -15 1 C-12.8750734 0.83240016 -10.75005624 0.66594799 -8.625 0.5 C-7.44164063 0.4071875 -6.25828125 0.314375 -5.0390625 0.21875 C-3.36213157 0.09804546 -1.68126944 0 0 0 Z " fill="#E44341" transform="translate(84,114)"/>
<path d="M0 0 C5.875 1.875 5.875 1.875 7 3 C7.203125 5.21484375 7.203125 5.21484375 7.25 7.9375 C7.28867187 9.28134766 7.28867187 9.28134766 7.328125 10.65234375 C7.21984375 11.42707031 7.1115625 12.20179688 7 13 C3.3558226 15.4294516 1.28758728 15.16179575 -3 15 C-3 14.67 -3 14.34 -3 14 C-0.36 13.67 2.28 13.34 5 13 C5.29562367 7.67829506 5.29562367 7.67829506 3 3 C0.94996045 1.80767387 0.94996045 1.80767387 -1 1 C-0.67 0.67 -0.34 0.34 0 0 Z " fill="#565654" transform="translate(360,137)"/>
<path d="M0 0 C0 0.99 0 1.98 0 3 C-1.32 2.67 -2.64 2.34 -4 2 C-3.04134491 4.33075929 -3.04134491 4.33075929 0 6 C-0.804375 5.814375 -1.60875 5.62875 -2.4375 5.4375 C-3.283125 5.293125 -4.12875 5.14875 -5 5 C-5.33 5.33 -5.66 5.66 -6 6 C-7.66617115 6.04063832 -9.33388095 6.042721 -11 6 C-11.33 5.34 -11.66 4.68 -12 4 C-9.525 4.495 -9.525 4.495 -7 5 C-7.33 3.68 -7.66 2.36 -8 1 C-4.93251126 -0.86240388 -3.40254489 -1.2151946 0 0 Z " fill="#5D5D5C" transform="translate(321,146)"/>
<path d="M0 0 C-2.12508202 1.06990273 -4.25572301 2.12224807 -6.40234375 3.1484375 C-11.02081622 5.38295269 -15.15219229 7.53697306 -19 11 C-19 10.01 -19 9.02 -19 8 C-13.4497575 2.58748064 -7.79122412 -0.36238252 0 0 Z " fill="#545454" transform="translate(145,62)"/>
<path d="M0 0 C0.99 0.2165625 0.99 0.2165625 2 0.4375 C8.06432432 1.57456081 13.84757004 2.12817562 20 2 C15.97205956 4.32381179 12.28791902 5.52447313 7.6484375 4.4609375 C5.35666503 3.74066615 3.16815638 3.03615052 1 2 C0.67 1.34 0.34 0.68 0 0 Z " fill="#525252" transform="translate(189,118)"/>
<path d="M0 0 C0.33 0 0.66 0 1 0 C1.04898437 1.0621875 1.09796875 2.124375 1.1484375 3.21875 C1.68360215 13.74501287 1.68360215 13.74501287 4 24 C3.34 24 2.68 24 2 24 C-0.16926659 20.74610012 -0.24080049 19.86604043 -0.1953125 16.11328125 C-0.18886719 15.17548828 -0.18242187 14.23769531 -0.17578125 13.27148438 C-0.15902344 12.29501953 -0.14226563 11.31855469 -0.125 10.3125 C-0.11597656 9.32443359 -0.10695313 8.33636719 -0.09765625 7.31835938 C-0.0740843 4.87866235 -0.04118022 2.43945303 0 0 Z " fill="#DC4543" transform="translate(23,82)"/>
<path d="M0 0 C2.25056722 0.11433363 4.50046674 0.24186436 6.75 0.375 C8.62945312 0.47941406 8.62945312 0.47941406 10.546875 0.5859375 C13.60998121 0.95323304 15.41974266 1.39711286 18 3 C18 3.66 18 4.32 18 5 C17.071875 4.67 16.14375 4.34 15.1875 4 C10.19095127 2.54010305 5.1566642 2.83215198 0 3 C0 2.01 0 1.02 0 0 Z " fill="#595959" transform="translate(349,73)"/>
<path d="M0 0 C2 2 2 2 2.1953125 3.9453125 C2.13020833 5.96354167 2.06510417 7.98177083 2 10 C0.68 9.67 -0.64 9.34 -2 9 C-2.25 3.375 -2.25 3.375 0 0 Z " fill="#686866" transform="translate(452,142)"/>
<path d="M0 0 C0.66 0.33 1.32 0.66 2 1 C1.88512252 2.58409994 1.75765492 4.16728963 1.625 5.75 C1.55539062 6.63171875 1.48578125 7.5134375 1.4140625 8.421875 C0.99277258 11.04500089 0.46429303 12.78861868 -1 15 C-1.99 15.33 -2.98 15.66 -4 16 C-3.79503906 15.43152344 -3.59007812 14.86304687 -3.37890625 14.27734375 C-1.70907331 9.4915546 -0.53623064 5.04056799 0 0 Z " fill="#575757" transform="translate(373,89)"/>
<path d="M0 0 C2.19093909 0.46948695 3.8517089 0.90467001 5.75 2.125 C9.29418039 3.50329237 12.2839796 2.61933673 16 2 C15.67 2.99 15.34 3.98 15 5 C6.22421525 5.76681614 6.22421525 5.76681614 3.22265625 3.88671875 C1.875 2.5 1.875 2.5 0 0 Z " fill="#575757" transform="translate(402,107)"/>
<path d="M0 0 C-0.66 1.32 -1.32 2.64 -2 4 C-4.31 4 -6.62 4 -9 4 C-8.1875 2.0625 -8.1875 2.0625 -7 0 C-3.86650268 -1.04449911 -3.01031744 -0.93423645 0 0 Z " fill="#D9453E" transform="translate(96,35)"/>
<path d="M0 0 C1.2065625 0.0309375 1.2065625 0.0309375 2.4375 0.0625 C2.4375 0.7225 2.4375 1.3825 2.4375 2.0625 C1.4475 2.3925 0.4575 2.7225 -0.5625 3.0625 C-2.03070301 6.73300752 -2.1077025 11.16423575 -2.5625 15.0625 C-2.8925 15.0625 -3.2225 15.0625 -3.5625 15.0625 C-3.58935412 12.75006208 -3.60882841 10.4375373 -3.625 8.125 C-3.63660156 6.83722656 -3.64820313 5.54945313 -3.66015625 4.22265625 C-3.53232863 0.08615436 -3.53232863 0.08615436 0 0 Z " fill="#595959" transform="translate(471.5625,131.9375)"/>
<path d="M0 0 C0.66 1.32 1.32 2.64 2 4 C5.3 4 8.6 4 12 4 C12 4.66 12 5.32 12 6 C8.04 6 4.08 6 0 6 C0 4.02 0 2.04 0 0 Z " fill="#5A5A5A" transform="translate(293,115)"/>
<path d="M0 0 C2.0625 0.4375 2.0625 0.4375 4 1 C4 2.32 4 3.64 4 5 C2.68 5.33 1.36 5.66 0 6 C-0.38218767 4.34385343 -0.71395102 2.67542976 -1 1 C-0.67 0.67 -0.34 0.34 0 0 Z " fill="#DA4443" transform="translate(75,122)"/>
<path d="M0 0 C0.66 0.66 1.32 1.32 2 2 C0.7636832 2.89422914 -0.48971562 3.76487891 -1.75 4.625 C-2.44609375 5.11226563 -3.1421875 5.59953125 -3.859375 6.1015625 C-6 7 -6 7 -8.265625 6.1484375 C-8.83796875 5.76945312 -9.4103125 5.39046875 -10 5 C-9.46375 4.9175 -8.9275 4.835 -8.375 4.75 C-5.1647569 3.73623902 -2.73707608 1.92839451 0 0 Z " fill="#535353" transform="translate(175,120)"/>
<path d="M0 0 C2.55109274 0.34474226 4.50758681 0.66553066 6.65625 2.125 C8.67207734 4.93778234 8.28867588 7.28124539 8.1875 10.6875 C8.16042969 11.86699219 8.13335937 13.04648438 8.10546875 14.26171875 C8.07066406 15.16535156 8.03585938 16.06898437 8 17 C7.67 17 7.34 17 7 17 C6.96132813 15.87851563 6.96132813 15.87851563 6.921875 14.734375 C6.72533106 8.67600938 6.72533106 8.67600938 4.0625 3.4375 C3.381875 2.963125 2.70125 2.48875 2 2 C1.34 1.34 0.68 0.68 0 0 Z " fill="#DD4947" transform="translate(56,77)"/>
<path d="M0 0 C0.61875 0.165 1.2375 0.33 1.875 0.5 C4.16786836 1.23577017 4.16786836 1.23577017 7 0 C6.67 0.99 6.34 1.98 6 3 C4.35 3 2.7 3 1 3 C0.67 4.32 0.34 5.64 0 7 C-0.66 6.34 -1.32 5.68 -2 5 C-1.46428571 1.46428571 -1.46428571 1.46428571 0 0 Z " fill="#555555" transform="translate(383,137)"/>
<path d="M0 0 C0.53625 0.680625 1.0725 1.36125 1.625 2.0625 C4.35076561 5.43384168 7.16483178 8.72065543 10 12 C9.01 12 8.02 12 7 12 C4.95703125 9.8125 4.95703125 9.8125 2.8125 7 C2.09707031 6.071875 1.38164062 5.14375 0.64453125 4.1875 C0.10183594 3.465625 -0.44085938 2.74375 -1 2 C-0.67 1.34 -0.34 0.68 0 0 Z " fill="#5A5A5A" transform="translate(310,107)"/>
<path d="M0 0 C0.33 0 0.66 0 1 0 C1 2.64 1 5.28 1 8 C-3.29 8 -7.58 8 -12 8 C-11.67 7.01 -11.34 6.02 -11 5 C-10.34 5.33 -9.68 5.66 -9 6 C-7.46331135 6.22467831 -5.92031946 6.40796805 -4.375 6.5625 C-3.55773437 6.64628906 -2.74046875 6.73007813 -1.8984375 6.81640625 C-1.27195313 6.87699219 -0.64546875 6.93757813 0 7 C0 4.69 0 2.38 0 0 Z " fill="#4E4E4E" transform="translate(222,113)"/>
<path d="M0 0 C0.33 0 0.66 0 1 0 C1 2.31 1 4.62 1 7 C-1.31 7.66 -3.62 8.32 -6 9 C-5.02501855 7.4972763 -4.04490611 5.99788037 -3.0625 4.5 C-2.51722656 3.6646875 -1.97195312 2.829375 -1.41015625 1.96875 C-0.94480469 1.3190625 -0.47945313 0.669375 0 0 Z " fill="#DE4643" transform="translate(68,102)"/>
<path d="M0 0 C0.66 0.33 1.32 0.66 2 1 C1.979375 2.11375 1.95875 3.2275 1.9375 4.375 C1.73619282 7.83215921 1.73619282 7.83215921 3 10 C1.35 10 -0.3 10 -2 10 C-1.34 6.7 -0.68 3.4 0 0 Z " fill="#D84441" transform="translate(85,122)"/>
<path d="M0 0 C0.66 0 1.32 0 2 0 C1.5359375 0.8353125 1.5359375 0.8353125 1.0625 1.6875 C-0.05761821 4.12540433 -0.56037364 6.36224186 -1 9 C-1.99 9 -2.98 9 -4 9 C-4.33 8.01 -4.66 7.02 -5 6 C-2.6875 2.8125 -2.6875 2.8125 0 0 Z " fill="#515251" transform="translate(319,91)"/>
<path d="M0 0 C1.66666667 3.33333333 3.33333333 6.66666667 5 10 C3.35 10 1.7 10 0 10 C0 6.66666667 0 3.33333333 0 0 Z " fill="#DF4B4D" transform="translate(44,126)"/>
<path d="M0 0 C2.33333823 2.12121657 3.9148886 4.01594365 5 7 C4.625 9.25 4.625 9.25 4 11 C0.85041169 7.57653445 0.43820891 4.55737263 0 0 Z " fill="#D54641" transform="translate(88,55)"/>
<path d="M0 0 C4.95 1.98 4.95 1.98 10 4 C10 4.33 10 4.66 10 5 C7.03 5 4.06 5 1 5 C0.67 3.35 0.34 1.7 0 0 Z " fill="#D44541" transform="translate(49,136)"/>
<path d="M0 0 C2.875 -0.125 2.875 -0.125 6 0 C6.66 0.66 7.32 1.32 8 2 C7.030625 2.12375 6.06125 2.2475 5.0625 2.375 C4.051875 2.58125 3.04125 2.7875 2 3 C1.67 3.66 1.34 4.32 1 5 C0.34 5 -0.32 5 -1 5 C-0.67 3.35 -0.34 1.7 0 0 Z " fill="#E33E3D" transform="translate(66,41)"/>
<path d="M0 0 C0.66 0 1.32 0 2 0 C2 2.31 2 4.62 2 7 C1.01 7.33 0.02 7.66 -1 8 C-1.625 5.125 -1.625 5.125 -2 2 C-1.34 1.34 -0.68 0.68 0 0 Z " fill="#646461" transform="translate(307,141)"/>
<path d="M0 0 C0.66 0 1.32 0 2 0 C2 0.99 2 1.98 2 3 C2.99 3.33 3.98 3.66 5 4 C4.01 4 3.02 4 2 4 C1.67 4.99 1.34 5.98 1 7 C0.34 6.34 -0.32 5.68 -1 5 C-0.625 2.375 -0.625 2.375 0 0 Z " fill="#6D6D6B" transform="translate(457,142)"/>
<path d="M0 0 C0.96070434 2.88211302 1.10581883 4.69850044 1.0625 7.6875 C1.05347656 8.49574219 1.04445313 9.30398437 1.03515625 10.13671875 C1.02355469 10.75160156 1.01195313 11.36648437 1 12 C0.01 11.67 -0.98 11.34 -2 11 C-1.85957123 9.35369672 -1.71250671 7.70795821 -1.5625 6.0625 C-1.48128906 5.14597656 -1.40007812 4.22945313 -1.31640625 3.28515625 C-1 1 -1 1 0 0 Z " fill="#D7474B" transform="translate(68,120)"/>
<path d="M0 0 C1.98 0.66 3.96 1.32 6 2 C6 4.64 6 7.28 6 10 C5.67 10 5.34 10 5 10 C4.67 8.02 4.34 6.04 4 4 C2.68 3.67 1.36 3.34 0 3 C0 2.01 0 1.02 0 0 Z " fill="#D44544" transform="translate(38,114)"/>
<path d="M0 0 C1.32 0.33 2.64 0.66 4 1 C4 2.32 4 3.64 4 5 C4.66 5.33 5.32 5.66 6 6 C4.35 6 2.7 6 1 6 C0.67 4.02 0.34 2.04 0 0 Z " fill="#F73D3A" transform="translate(91,38)"/>
<path d="M0 0 C0.99 0.33 1.98 0.66 3 1 C3 1.66 3 2.32 3 3 C1.35 3.33 -0.3 3.66 -2 4 C-2.33 5.65 -2.66 7.3 -3 9 C-3.33 9 -3.66 9 -4 9 C-4 7.02 -4 5.04 -4 3 C-2.68 2.67 -1.36 2.34 0 2 C0 1.34 0 0.68 0 0 Z " fill="#585857" transform="translate(372,141)"/>
<path d="M0 0 C3.16115776 1.36983503 3.9927092 1.9890638 6 5 C5.625 7.1875 5.625 7.1875 5 9 C4.71125 8.195625 4.4225 7.39125 4.125 6.5625 C3.26737432 3.8673532 3.26737432 3.8673532 1 3 C0.67 2.01 0.34 1.02 0 0 Z " fill="#5E5E5E" transform="translate(377,73)"/>
<path d="M0 0 C2.64 0 5.28 0 8 0 C8 0.99 8 1.98 8 3 C5.36 3 2.72 3 0 3 C0 2.01 0 1.02 0 0 Z " fill="#555555" transform="translate(349,109)"/>
<path d="M0 0 C1.98 0 3.96 0 6 0 C6.33 1.98 6.66 3.96 7 6 C6.67 5.01 6.34 4.02 6 3 C3.03 2.505 3.03 2.505 0 2 C0 1.34 0 0.68 0 0 Z " fill="#4B4B4B" transform="translate(237,78)"/>
<path d="M0 0 C1.98 0.495 1.98 0.495 4 1 C2.63016497 4.16115776 2.0109362 4.9927092 -1 7 C-0.67 4.69 -0.34 2.38 0 0 Z " fill="#545454" transform="translate(327,78)"/>
</svg>
