<?xml version="1.0" encoding="UTF-8"?>
<svg version="1.1" xmlns="http://www.w3.org/2000/svg" width="275" height="271">
<path d="M0 0 C1.28592904 -0.00551503 1.28592904 -0.00551503 2.59783643 -0.01114148 C5.47566634 -0.02217028 8.35346012 -0.02602083 11.23130798 -0.02983093 C13.29284276 -0.03609627 15.3543764 -0.04274314 17.41590881 -0.04974365 C24.19152541 -0.07078091 30.96714223 -0.08114684 37.74278259 -0.09111023 C40.07659352 -0.09515814 42.41040433 -0.09927507 44.74421501 -0.10346031 C55.71073281 -0.12251251 66.67724388 -0.13674258 77.64377505 -0.14507228 C90.29462737 -0.15484032 102.94530453 -0.18114854 115.59609514 -0.22157317 C125.37885849 -0.25175819 135.1615717 -0.2665435 144.9443807 -0.26985329 C150.78483854 -0.27220136 156.62510924 -0.28113016 162.46551704 -0.30631447 C167.96407263 -0.32964127 173.4623185 -0.33380975 178.9609108 -0.32355309 C180.97361343 -0.32305871 182.98633154 -0.32934992 184.9989872 -0.34310913 C201.04216034 -0.44660501 212.33135108 1.24616713 224.29747009 12.80342102 C231.73850672 20.83140965 234.73231589 29.67164665 234.72979736 40.41268921 C234.73347405 41.25364102 234.73715074 42.09459284 234.74093884 42.96102804 C234.75196624 45.78357992 234.75581795 48.60609497 234.7596283 51.42866516 C234.76589375 53.45079159 234.77254062 55.47291687 234.77954102 57.49504089 C234.80057713 64.14079487 234.81094416 70.78654906 234.82090759 77.43232727 C234.82495556 79.72156219 234.82907249 82.01079699 234.83325768 84.30003166 C234.8523097 95.05724651 234.86653975 105.81445451 234.87486964 116.57168299 C234.88463733 128.98029469 234.9109447 141.38872778 234.95137054 153.79727656 C234.98155777 163.39320496 234.99634107 172.98908224 234.99965066 182.5850572 C235.00199849 188.31373388 235.01092418 194.04221976 235.03611183 199.77084541 C235.05944252 205.16434346 235.06360558 210.55752576 235.05335045 215.95106125 C235.05285617 217.92506271 235.05914464 219.89907997 235.07290649 221.87303352 C235.17763382 237.79218034 233.38800281 248.99490623 221.92637634 260.86201477 C213.83974225 268.3574091 204.97584528 271.29682767 194.16525269 271.29434204 C192.87932365 271.29985707 192.87932365 271.29985707 191.56741625 271.30548352 C188.68958635 271.31651232 185.81179257 271.32036287 182.9339447 271.32417297 C180.87240993 271.33043831 178.81087628 271.33708518 176.74934387 271.34408569 C169.97372727 271.36512295 163.19811046 271.37548888 156.42247009 271.38545227 C154.08865917 271.38950018 151.75484836 271.39361711 149.42103767 271.39780235 C138.45451988 271.41685456 127.48800881 271.43108462 116.52147764 271.43941432 C103.87062531 271.44918236 91.21994816 271.47549058 78.56915754 271.51591522 C68.7863942 271.54610023 59.00368099 271.56088554 49.22087198 271.56419533 C43.38041415 271.5665434 37.54014344 271.5754722 31.69973564 271.60065651 C26.20118005 271.62398332 20.70293419 271.6281518 15.20434189 271.61789513 C13.19163926 271.61740075 11.17892115 271.62369196 9.16626549 271.63745117 C-6.87690765 271.74094705 -18.1660984 270.04817492 -30.13221741 258.49092102 C-37.57325404 250.46293239 -40.5670632 241.62269539 -40.56454468 230.88165283 C-40.56822137 230.04070102 -40.57189805 229.1997492 -40.57568616 228.333314 C-40.58671355 225.51076212 -40.59056527 222.68824707 -40.59437561 219.86567688 C-40.60064106 217.84355045 -40.60728793 215.82142517 -40.61428833 213.79930115 C-40.63532444 207.15354717 -40.64569147 200.50779298 -40.65565491 193.86201477 C-40.65970287 191.57277985 -40.6638198 189.28354505 -40.66800499 186.99431038 C-40.68705701 176.23709553 -40.70128707 165.47988753 -40.70961696 154.72265905 C-40.71938464 142.31404735 -40.74569201 129.90561426 -40.78611785 117.49706548 C-40.81630509 107.90113708 -40.83108839 98.3052598 -40.83439797 88.70928484 C-40.8367458 82.98060816 -40.8456715 77.25212228 -40.87085915 71.52349663 C-40.89418983 66.12999858 -40.8983529 60.73681628 -40.88809776 55.34328079 C-40.88760348 53.36927933 -40.89389196 51.39526207 -40.90765381 49.42130852 C-41.01238113 33.5021617 -39.22275013 22.29943581 -27.76112366 10.43232727 C-19.67448957 2.93693294 -10.8105926 -0.00248563 0 0 Z " fill="#F5F7FE" transform="translate(40.41737365722656,-0.1471710205078125)"/>
<path d="M0 0 C0.97941559 -0.00511093 1.95883118 -0.01022186 2.96792603 -0.01548767 C6.20060357 -0.02937153 9.4330677 -0.02842815 12.66577148 -0.02612305 C14.91348856 -0.03000988 17.1612049 -0.03434452 19.40892029 -0.03910828 C24.11720157 -0.04656734 28.82540785 -0.0462809 33.53369141 -0.04101562 C39.57211523 -0.03521336 45.61023309 -0.05217196 51.6486063 -0.0753603 C56.28881123 -0.09007681 60.92894205 -0.09097231 65.56916618 -0.08785057 C67.79594467 -0.08836456 70.02272722 -0.09361688 72.24948311 -0.10366249 C75.35923428 -0.11597263 78.46838376 -0.10926825 81.578125 -0.09765625 C82.50031326 -0.10529999 83.42250153 -0.11294373 84.37263489 -0.12081909 C90.63712489 -0.06900802 90.63712489 -0.06900802 93.82725525 1.79792786 C94.51882469 2.52890938 94.51882469 2.52890938 95.22436523 3.2746582 C94.968752 5.6177795 94.63165751 7.95309223 94.22436523 10.2746582 C90.7770237 11.99832897 86.79906288 11.41871066 83.00463867 11.41650391 C81.570252 11.42171555 81.570252 11.42171555 80.10688782 11.42703247 C78.02523127 11.43439698 75.94356682 11.43973865 73.86190033 11.44332314 C70.56674293 11.45047635 67.2717355 11.46613481 63.97662354 11.48466492 C54.60593739 11.53718529 45.23533208 11.58511002 35.86450195 11.60058594 C30.13675035 11.61066675 24.40937378 11.63999625 18.68177032 11.68190575 C16.49854621 11.69422133 14.31526913 11.69933599 12.13201141 11.69710732 C9.07482396 11.69475476 6.01871205 11.71691882 2.96166992 11.74462891 C2.06066055 11.7380275 1.15965118 11.73142609 0.2313385 11.72462463 C-5.37914293 11.80806089 -8.46767727 12.6022865 -12.77563477 16.2746582 C-14.32587941 19.37514749 -14.06555492 21.85360038 -13.77563477 25.2746582 C-11.98001071 28.02794841 -10.72308555 29.80093281 -7.77563477 31.2746582 C-4.68471129 31.37683406 -1.61552093 31.41829558 1.47583008 31.41650391 C2.43530045 31.41997833 3.39477081 31.42345276 4.38331604 31.42703247 C6.47152499 31.43439643 8.55974181 31.43973839 10.64796066 31.44332314 C13.95096993 31.45047337 17.25382932 31.46612861 20.55679321 31.48466492 C29.94954385 31.53720622 39.34221295 31.5851326 48.73510742 31.60058594 C54.47581782 31.61065136 60.21615248 31.63993942 65.95671463 31.68190575 C68.14717394 31.69424128 70.33768626 31.69933237 72.52817917 31.69710732 C75.59056636 31.69476191 78.65187023 31.71686328 81.71411133 31.74462891 C83.07641121 31.73472679 83.07641121 31.73472679 84.4662323 31.72462463 C90.5541247 31.81545858 90.5541247 31.81545858 93.79037476 34.03269958 C95.38287892 36.52248489 95.71290946 37.74839944 95.6784668 40.67602539 C95.67816467 41.5366156 95.67786255 42.39720581 95.67755127 43.28387451 C95.65690613 44.20380188 95.63626099 45.12372925 95.61499023 46.0715332 C95.60933044 47.02030334 95.60367065 47.96907349 95.59783936 48.94659424 C95.57547133 51.97313156 95.52527381 54.99847949 95.47436523 58.0246582 C95.4543008 60.07802651 95.43604993 62.13141339 95.41967773 64.18481445 C95.37560504 69.21521976 95.30657415 74.24473742 95.22436523 79.2746582 C93.98992676 78.95086182 92.75548828 78.62706543 91.48364258 78.29345703 C87.19233201 77.22296053 83.26072733 76.92684713 78.84936523 76.9621582 C78.10549561 76.96779785 77.36162598 76.9734375 76.59521484 76.97924805 C65.61799414 77.22071582 56.17578213 80.83395834 47.99389648 88.3137207 C38.25058549 98.66027609 35.73638925 108.70603613 35.94702148 122.45043945 C36.34026432 132.55541072 40.58685478 140.93798937 47.90795898 147.8684082 C49.22436523 149.2746582 49.22436523 149.2746582 49.22436523 151.2746582 C41.83498965 151.39112905 34.44581584 151.47966247 27.05570412 151.53371906 C23.62314782 151.55967982 20.19122502 151.59482354 16.7590332 151.65185547 C12.8022451 151.71718394 8.84570264 151.74095059 4.88842773 151.76293945 C3.67136139 151.78874588 2.45429504 151.81455231 1.2003479 151.84114075 C-7.12307549 151.84384951 -13.96475575 150.48006351 -20.38607788 144.86689758 C-26.66771646 137.9217036 -27.21838491 130.97214974 -27.1796875 122.06616211 C-27.18655075 120.95793594 -27.193414 119.84970978 -27.20048523 118.707901 C-27.21874078 115.05554277 -27.21491701 111.40361464 -27.20922852 107.7512207 C-27.21379115 105.20445618 -27.21909697 102.6576929 -27.22511292 100.1109314 C-27.23404182 94.77645281 -27.23185854 89.44212993 -27.22167969 84.10766602 C-27.21020702 77.95966734 -27.22426515 71.81210533 -27.25107616 65.66416419 C-27.27598352 59.72838753 -27.27839754 53.79274547 -27.2719593 47.85691452 C-27.27180624 45.3412033 -27.27783812 42.82548361 -27.29025078 40.30980301 C-27.30518376 36.78685609 -27.29446504 33.26486118 -27.27734375 29.74194336 C-27.28701172 28.70996323 -27.29667969 27.67798309 -27.30664062 26.61473083 C-27.23004625 19.06067445 -25.74883493 12.8153081 -20.81079102 6.93481445 C-19.83432617 6.14397461 -19.83432617 6.14397461 -18.83813477 5.3371582 C-18.18973633 4.79188477 -17.54133789 4.24661133 -16.87329102 3.68481445 C-11.37070139 -0.01431935 -6.43003204 -0.01731199 0 0 Z " fill="#FD3234" transform="translate(92.775634765625,57.725341796875)"/>
<path d="M0 0 C7.01657025 4.20994215 13.2295264 10.80356291 15.2734375 18.91015625 C16.83610156 28.93725065 15.74157378 37.38496271 11.6953125 46.6171875 C12.14970703 47.03492432 12.60410156 47.45266113 13.07226562 47.88305664 C15.1317015 49.79648379 17.16320133 51.73728214 19.1953125 53.6796875 C19.91074219 54.33646484 20.62617188 54.99324219 21.36328125 55.66992188 C26.5678612 60.70101583 26.5678612 60.70101583 27.234375 65.4921875 C26.6953125 68.6171875 26.6953125 68.6171875 25.5703125 70.5546875 C22.62510195 72.22364014 21.06491177 72.1585201 17.6953125 71.6171875 C14.86213912 69.38856175 12.52860992 66.73884569 10.1328125 64.0546875 C8.85452764 62.62346726 7.56206114 61.20475217 6.25390625 59.80078125 C5.68986084 59.16712646 5.12581543 58.53347168 4.54467773 57.88061523 C2.72169197 56.35080505 2.72169197 56.35080505 0.19165039 56.82055664 C-2.51448036 57.63336674 -2.51448036 57.63336674 -5.8046875 59.1796875 C-12.57891437 61.72638933 -19.71568238 61.83073599 -26.5625 59.515625 C-36.03507659 55.07609662 -42.44386765 49.39534432 -46.3046875 39.6171875 C-49.44404049 30.82699914 -48.90864785 23.12578562 -45.3046875 14.6171875 C-35.51638565 -2.1119102 -17.91285128 -8.4548658 0 0 Z " fill="#F2D4B7" transform="translate(185.3046875,149.3828125)"/>
<path d="M0 0 C0.93196198 -0.00350464 1.86392395 -0.00700928 2.8241272 -0.01062012 C5.91017059 -0.0194353 8.99598545 -0.01358898 12.08203125 -0.00683594 C14.22290084 -0.00818265 16.36377013 -0.01012323 18.50463867 -0.01263428 C22.99368193 -0.01558525 27.48264566 -0.01128871 31.97167969 -0.00195312 C37.73219636 0.00944135 43.49252667 0.00288174 49.2530365 -0.00909805 C53.67445282 -0.01631734 58.09582479 -0.0140284 62.51724243 -0.00884247 C64.64157127 -0.00750616 66.7659041 -0.00915302 68.89022827 -0.01380157 C71.85661519 -0.01886787 74.82269827 -0.011155 77.7890625 0 C79.1123204 -0.00607269 79.1123204 -0.00607269 80.46231079 -0.01226807 C86.55173541 0.0302585 86.55173541 0.0302585 89.89453125 2.25878906 C90.20703125 5.75878906 90.20703125 5.75878906 89.89453125 9.25878906 C87.19928897 11.95403134 85.11106865 11.50479365 81.44869995 11.52984619 C80.54266022 11.52579773 79.63662048 11.52174927 78.703125 11.51757812 C77.27373093 11.52283508 77.27373093 11.52283508 75.81546021 11.52819824 C72.6542439 11.53702659 69.49324998 11.53116249 66.33203125 11.52441406 C64.14249631 11.52576039 61.95296165 11.52770066 59.76342773 11.5302124 C55.17005574 11.53316516 50.57676142 11.52886112 45.98339844 11.51953125 C40.08487262 11.50813667 34.18652878 11.51469533 28.28800964 11.52667618 C23.76540751 11.53389066 19.24284878 11.53160874 14.72024536 11.52642059 C12.54485045 11.52508296 10.36945164 11.52673578 8.19406128 11.5313797 C5.15791327 11.53643815 2.12206322 11.52874424 -0.9140625 11.51757812 C-1.82010223 11.52162659 -2.72614197 11.52567505 -3.65963745 11.52984619 C-9.87694128 11.48731654 -9.87694128 11.48731654 -12.10546875 9.25878906 C-12.41796875 5.75878906 -12.41796875 5.75878906 -12.10546875 2.25878906 C-8.11483145 -0.40163581 -4.63264431 -0.02126012 0 0 Z " fill="#F2D4B8" transform="translate(95.10546875,74.7412109375)"/>
</svg>
