<?xml version="1.0" encoding="UTF-8"?>
<svg version="1.1" xmlns="http://www.w3.org/2000/svg" width="275" height="271">
<path d="M0 0 C1.28592904 -0.00551503 1.28592904 -0.00551503 2.59783643 -0.01114148 C5.47566634 -0.02217028 8.35346012 -0.02602083 11.23130798 -0.02983093 C13.29284276 -0.03609627 15.3543764 -0.04274314 17.41590881 -0.04974365 C24.19152541 -0.07078091 30.96714223 -0.08114684 37.74278259 -0.09111023 C40.07659352 -0.09515814 42.41040433 -0.09927507 44.74421501 -0.10346031 C55.71073281 -0.12251251 66.67724388 -0.13674258 77.64377505 -0.14507228 C90.29462737 -0.15484032 102.94530453 -0.18114854 115.59609514 -0.22157317 C125.37885849 -0.25175819 135.1615717 -0.2665435 144.9443807 -0.26985329 C150.78483854 -0.27220136 156.62510924 -0.28113016 162.46551704 -0.30631447 C167.96407263 -0.32964127 173.4623185 -0.33380975 178.9609108 -0.32355309 C180.97361343 -0.32305871 182.98633154 -0.32934992 184.9989872 -0.34310913 C201.04216034 -0.44660501 212.33135108 1.24616713 224.29747009 12.80342102 C231.73850672 20.83140965 234.73231589 29.67164665 234.72979736 40.41268921 C234.73347405 41.25364102 234.73715074 42.09459284 234.74093884 42.96102804 C234.75196624 45.78357992 234.75581795 48.60609497 234.7596283 51.42866516 C234.76589375 53.45079159 234.77254062 55.47291687 234.77954102 57.49504089 C234.80057713 64.14079487 234.81094416 70.78654906 234.82090759 77.43232727 C234.82495556 79.72156219 234.82907249 82.01079699 234.83325768 84.30003166 C234.8523097 95.05724651 234.86653975 105.81445451 234.87486964 116.57168299 C234.88463733 128.98029469 234.9109447 141.38872778 234.95137054 153.79727656 C234.98155777 163.39320496 234.99634107 172.98908224 234.99965066 182.5850572 C235.00199849 188.31373388 235.01092418 194.04221976 235.03611183 199.77084541 C235.05944252 205.16434346 235.06360558 210.55752576 235.05335045 215.95106125 C235.05285617 217.92506271 235.05914464 219.89907997 235.07290649 221.87303352 C235.17763382 237.79218034 233.38800281 248.99490623 221.92637634 260.86201477 C213.83974225 268.3574091 204.97584528 271.29682767 194.16525269 271.29434204 C192.87932365 271.29985707 192.87932365 271.29985707 191.56741625 271.30548352 C188.68958635 271.31651232 185.81179257 271.32036287 182.9339447 271.32417297 C180.87240993 271.33043831 178.81087628 271.33708518 176.74934387 271.34408569 C169.97372727 271.36512295 163.19811046 271.37548888 156.42247009 271.38545227 C154.08865917 271.38950018 151.75484836 271.39361711 149.42103767 271.39780235 C138.45451988 271.41685456 127.48800881 271.43108462 116.52147764 271.43941432 C103.87062531 271.44918236 91.21994816 271.47549058 78.56915754 271.51591522 C68.7863942 271.54610023 59.00368099 271.56088554 49.22087198 271.56419533 C43.38041415 271.5665434 37.54014344 271.5754722 31.69973564 271.60065651 C26.20118005 271.62398332 20.70293419 271.6281518 15.20434189 271.61789513 C13.19163926 271.61740075 11.17892115 271.62369196 9.16626549 271.63745117 C-6.87690765 271.74094705 -18.1660984 270.04817492 -30.13221741 258.49092102 C-37.57325404 250.46293239 -40.5670632 241.62269539 -40.56454468 230.88165283 C-40.56822137 230.04070102 -40.57189805 229.1997492 -40.57568616 228.333314 C-40.58671355 225.51076212 -40.59056527 222.68824707 -40.59437561 219.86567688 C-40.60064106 217.84355045 -40.60728793 215.82142517 -40.61428833 213.79930115 C-40.63532444 207.15354717 -40.64569147 200.50779298 -40.65565491 193.86201477 C-40.65970287 191.57277985 -40.6638198 189.28354505 -40.66800499 186.99431038 C-40.68705701 176.23709553 -40.70128707 165.47988753 -40.70961696 154.72265905 C-40.71938464 142.31404735 -40.74569201 129.90561426 -40.78611785 117.49706548 C-40.81630509 107.90113708 -40.83108839 98.3052598 -40.83439797 88.70928484 C-40.8367458 82.98060816 -40.8456715 77.25212228 -40.87085915 71.52349663 C-40.89418983 66.12999858 -40.8983529 60.73681628 -40.88809776 55.34328079 C-40.88760348 53.36927933 -40.89389196 51.39526207 -40.90765381 49.42130852 C-41.01238113 33.5021617 -39.22275013 22.29943581 -27.76112366 10.43232727 C-19.67448957 2.93693294 -10.8105926 -0.00248563 0 0 Z " fill="#F5F7FE" transform="translate(40.41737365722656,-0.1471710205078125)"/>
<path d="M0 0 C0.05607422 1.46759766 0.05607422 1.46759766 0.11328125 2.96484375 C0.86116814 17.88790231 0.86116814 17.88790231 9 30 C12.56028216 32.16265073 16.29653562 33.74668436 20.2109375 35.15625 C23 37 23 37 23.69921875 40.36328125 C23.69535156 41.66652344 23.69148438 42.96976563 23.6875 44.3125 C23.70586392 50.4644144 24.22530465 54.95795119 28.5 59.64453125 C33.50807817 63.54405045 37.14591739 64.42153174 43.36328125 64.33984375 C49.22151722 63.58478223 52.80802412 60.46704724 56.4375 56 C58.70821262 51.56670393 58.4862907 46.67667309 58.53125 41.79296875 C58.6859375 40.87128906 58.840625 39.94960937 59 39 C60.96875 37.73828125 60.96875 37.73828125 63 37 C64.42041821 34.15916359 64.31452272 32.14522722 64 29 C62.56338689 26.47993156 62.56338689 26.47993156 60 25 C56.53769185 24.57480426 54.1652833 24.36097367 51.0625 26.0625 C49.36097367 29.1652833 49.57480426 31.53769185 50 35 C51.86708505 37.36497439 53.32061431 38.66030715 56 40 C56.62329486 49.73032529 56.62329486 49.73032529 54.3125 54.4375 C53.1678125 55.7059375 53.1678125 55.7059375 52 57 C51.319375 57.78375 50.63875 58.5675 49.9375 59.375 C45.4060129 61.8817801 41.06257336 61.6261403 36 61 C31.2655684 59.08608084 28.27315607 55.54631214 26 51 C25.85166349 48.8576785 25.77872587 46.70975871 25.75 44.5625 C25.72421875 43.40878906 25.6984375 42.25507813 25.671875 41.06640625 C26 38 26 38 27.21484375 36.23046875 C29.32769628 34.7741262 31.46032094 33.77614263 33.8125 32.75 C39.57130874 29.95886934 43.15751891 26.52390614 46.1171875 20.86328125 C47.36245738 16.82441921 47.46569239 12.89255721 47.625 8.6875 C47.66367188 7.85154297 47.70234375 7.01558594 47.7421875 6.15429688 C47.83595159 4.10320741 47.91904245 2.05163485 48 0 C48.680625 0.18175781 49.36125 0.36351562 50.0625 0.55078125 C54.67808625 1.74764205 59.25980912 2.91482613 63.97265625 3.65625 C74.00841629 5.24331161 82.20056948 7.7111472 89.9375 14.625 C96.03641196 24.60503775 97.16399821 35.74544841 97.375 47.1875 C97.43107422 48.35829102 97.43107422 48.35829102 97.48828125 49.55273438 C97.55169078 53.7060584 97.39704176 55.46965541 94.8359375 58.890625 C69.47651861 77.75300269 23.29375078 75.12545316 -6.18359375 70.9140625 C-39.49777522 65.81927604 -39.49777522 65.81927604 -47.3125 58.4375 C-52.43167483 48.00955128 -48.1131873 31.86064841 -45.19140625 20.9921875 C-42.65369418 14.3377425 -37.94979125 11.04803991 -31.78515625 7.8515625 C-25.62187984 5.12372302 -19.20963627 3.89507726 -12.61328125 2.7109375 C-8.44921774 1.89162987 -4.23370621 0 0 0 Z " fill="#F7363C" transform="translate(115,144)"/>
<path d="M0 0 C5.40825946 4.44679111 9.2684545 9.42574411 10.671875 16.421875 C10.74114468 19.18157908 10.7660486 21.91383542 10.734375 24.671875 C10.72986328 25.41695312 10.72535156 26.16203125 10.72070312 26.9296875 C10.70896746 28.7604514 10.6910335 30.59117373 10.671875 32.421875 C11.331875 32.421875 11.991875 32.421875 12.671875 32.421875 C12.341875 37.701875 12.011875 42.981875 11.671875 48.421875 C9.196875 48.916875 9.196875 48.916875 6.671875 49.421875 C6.51912109 50.69611328 6.51912109 50.69611328 6.36328125 51.99609375 C5.60122386 55.77193745 4.25932806 58.75894196 2.609375 62.234375 C-0.23386104 68.50721793 -1.57436768 73.55795084 0.18212891 80.41333008 C2.04711078 88.06198706 2.22287861 98.8003651 -1.515625 105.796875 C-4.33436576 109.83495867 -7.11099565 112.78840947 -11.953125 114.171875 C-24.86145833 115.12804784 -24.86145833 115.12804784 -29.703125 112.796875 C-33.10302028 109.72077927 -36.25468557 106.56875385 -38.328125 102.421875 C-38.35424978 99.99618932 -38.32227511 97.59879566 -38.25 95.17578125 C-38.22269763 93.68296523 -38.19670019 92.19012489 -38.171875 90.69726562 C-38.12899221 88.35357499 -38.07896095 86.01116762 -38.00585938 83.66821289 C-37.74142862 74.80506054 -37.70116044 67.65523545 -42.11499023 59.66845703 C-43.89873373 56.36517516 -44.56873537 53.0807523 -45.328125 49.421875 C-46.648125 49.421875 -47.968125 49.421875 -49.328125 49.421875 C-53.28409767 36.26669603 -50.89503404 18.37301671 -44.765625 6.359375 C-33.52508379 -7.18691825 -14.69037595 -9.95790584 0 0 Z " fill="#F6DECE" transform="translate(158.328125,59.578125)"/>
<path d="M0 0 C3.4272611 2.47929527 4.81303325 3.85482869 5.5 8.0625 C4.95488854 11.26502983 4.33189408 12.75447237 2 15 C1.01 15 0.02 15 -1 15 C-1 19.29 -1 23.58 -1 28 C-1.66 28 -2.32 28 -3 28 C-3 28.66 -3 29.32 -3 30 C-3.66 30 -4.32 30 -5 30 C-4.67 25.38 -4.34 20.76 -4 16 C-6.475 15.01 -6.475 15.01 -9 14 C-11.48038907 10.2794164 -11.46337203 8.40203429 -11 4 C-8.115552 -0.49973888 -5.11460998 -0.80757 0 0 Z " fill="#F1E2EA" transform="translate(175,168)"/>
<path d="M0 0 C1.65 0 3.3 0 5 0 C5 2.97 5 5.94 5 9 C7.97 9 10.94 9 14 9 C14 10.65 14 12.3 14 14 C11.03 14 8.06 14 5 14 C5 16.64 5 19.28 5 22 C3.35 22 1.7 22 0 22 C0 19.36 0 16.72 0 14 C-2.64 14 -5.28 14 -8 14 C-8 12.35 -8 10.7 -8 9 C-5.36 9 -2.72 9 0 9 C0 6.03 0 3.06 0 0 Z " fill="#F6ECF3" transform="translate(98,173)"/>
<path d="M0 0 C0.495 1.485 0.495 1.485 1 3 C-1.76557953 7.73484433 -5.80140359 11.30045887 -11 13 C-17.8979606 13.91515232 -22.36518356 13.05706784 -28 9 C-30.4375 6.75 -30.4375 6.75 -32 5 C-31.67 4.34 -31.34 3.68 -31 3 C-27.66135596 3.57562828 -26.30897368 4.59063616 -24 7 C-19.36658642 8.54447119 -14.83360988 8.63527444 -10 8 C-7.3810756 6.61836272 -6.05808799 5.21640245 -4 3 C-3.34 2.34 -2.68 1.68 -2 1 C-1.34 1.33 -0.68 1.66 0 2 C0 1.34 0 0.68 0 0 Z " fill="#F4D7DF" transform="translate(172,196)"/>
<path d="M0 0 C3.29714793 0.32971479 4.6226839 0.6226839 7 3 C6.44444444 7.55555556 6.44444444 7.55555556 5 9 C2.0625 9.1875 2.0625 9.1875 -1 9 C-1.66 8.34 -2.32 7.68 -3 7 C-2.67028521 3.70285207 -2.3773161 2.3773161 0 0 Z " fill="#121213" transform="translate(170,171)"/>
<path d="M0 0 C0.33 0.99 0.66 1.98 1 3 C-0.21484375 4.82421875 -0.21484375 4.82421875 -1.9375 6.6875 C-2.50339844 7.31011719 -3.06929687 7.93273437 -3.65234375 8.57421875 C-4.09707031 9.04472656 -4.54179687 9.51523438 -5 10 C-5.66 9.67 -6.32 9.34 -7 9 C-6.34 8.34 -5.68 7.68 -5 7 C-4.28591666 5.01643517 -3.61382258 3.01684563 -3 1 C-2.01 1.33 -1.02 1.66 0 2 C0 1.34 0 0.68 0 0 Z " fill="#F4C5CD" transform="translate(172,196)"/>
<path d="M0 0 C3 0 3 0 5.1875 1.8125 C7 4 7 4 7 7 C4.13302508 5.71480435 2.02392288 4.42870746 0 2 C0 1.34 0 0.68 0 0 Z " fill="#F4C7CF" transform="translate(140,199)"/>
<path d="M0 0 C0.99 0.33 1.98 0.66 3 1 C0.53846154 5.8 0.53846154 5.8 -2.1875 6.8125 C-2.785625 6.874375 -3.38375 6.93625 -4 7 C-3.43628586 3.73045798 -2.50037734 2.17424117 0 0 Z " fill="#EECCD4" transform="translate(168,168)"/>
</svg>
