<?xml version="1.0" encoding="UTF-8"?>
<svg version="1.1" xmlns="http://www.w3.org/2000/svg" width="275" height="271">
<path d="M0 0 C1.28592904 -0.00551503 1.28592904 -0.00551503 2.59783643 -0.01114148 C5.47566634 -0.02217028 8.35346012 -0.02602083 11.23130798 -0.02983093 C13.29284276 -0.03609627 15.3543764 -0.04274314 17.41590881 -0.04974365 C24.19152541 -0.07078091 30.96714223 -0.08114684 37.74278259 -0.09111023 C40.07659352 -0.09515814 42.41040433 -0.09927507 44.74421501 -0.10346031 C55.71073281 -0.12251251 66.67724388 -0.13674258 77.64377505 -0.14507228 C90.29462737 -0.15484032 102.94530453 -0.18114854 115.59609514 -0.22157317 C125.37885849 -0.25175819 135.1615717 -0.2665435 144.9443807 -0.26985329 C150.78483854 -0.27220136 156.62510924 -0.28113016 162.46551704 -0.30631447 C167.96407263 -0.32964127 173.4623185 -0.33380975 178.9609108 -0.32355309 C180.97361343 -0.32305871 182.98633154 -0.32934992 184.9989872 -0.34310913 C201.04216034 -0.44660501 212.33135108 1.24616713 224.29747009 12.80342102 C231.73850672 20.83140965 234.73231589 29.67164665 234.72979736 40.41268921 C234.73347405 41.25364102 234.73715074 42.09459284 234.74093884 42.96102804 C234.75196624 45.78357992 234.75581795 48.60609497 234.7596283 51.42866516 C234.76589375 53.45079159 234.77254062 55.47291687 234.77954102 57.49504089 C234.80057713 64.14079487 234.81094416 70.78654906 234.82090759 77.43232727 C234.82495556 79.72156219 234.82907249 82.01079699 234.83325768 84.30003166 C234.8523097 95.05724651 234.86653975 105.81445451 234.87486964 116.57168299 C234.88463733 128.98029469 234.9109447 141.38872778 234.95137054 153.79727656 C234.98155777 163.39320496 234.99634107 172.98908224 234.99965066 182.5850572 C235.00199849 188.31373388 235.01092418 194.04221976 235.03611183 199.77084541 C235.05944252 205.16434346 235.06360558 210.55752576 235.05335045 215.95106125 C235.05285617 217.92506271 235.05914464 219.89907997 235.07290649 221.87303352 C235.17763382 237.79218034 233.38800281 248.99490623 221.92637634 260.86201477 C213.83974225 268.3574091 204.97584528 271.29682767 194.16525269 271.29434204 C192.87932365 271.29985707 192.87932365 271.29985707 191.56741625 271.30548352 C188.68958635 271.31651232 185.81179257 271.32036287 182.9339447 271.32417297 C180.87240993 271.33043831 178.81087628 271.33708518 176.74934387 271.34408569 C169.97372727 271.36512295 163.19811046 271.37548888 156.42247009 271.38545227 C154.08865917 271.38950018 151.75484836 271.39361711 149.42103767 271.39780235 C138.45451988 271.41685456 127.48800881 271.43108462 116.52147764 271.43941432 C103.87062531 271.44918236 91.21994816 271.47549058 78.56915754 271.51591522 C68.7863942 271.54610023 59.00368099 271.56088554 49.22087198 271.56419533 C43.38041415 271.5665434 37.54014344 271.5754722 31.69973564 271.60065651 C26.20118005 271.62398332 20.70293419 271.6281518 15.20434189 271.61789513 C13.19163926 271.61740075 11.17892115 271.62369196 9.16626549 271.63745117 C-6.87690765 271.74094705 -18.1660984 270.04817492 -30.13221741 258.49092102 C-37.57325404 250.46293239 -40.5670632 241.62269539 -40.56454468 230.88165283 C-40.56822137 230.04070102 -40.57189805 229.1997492 -40.57568616 228.333314 C-40.58671355 225.51076212 -40.59056527 222.68824707 -40.59437561 219.86567688 C-40.60064106 217.84355045 -40.60728793 215.82142517 -40.61428833 213.79930115 C-40.63532444 207.15354717 -40.64569147 200.50779298 -40.65565491 193.86201477 C-40.65970287 191.57277985 -40.6638198 189.28354505 -40.66800499 186.99431038 C-40.68705701 176.23709553 -40.70128707 165.47988753 -40.70961696 154.72265905 C-40.71938464 142.31404735 -40.74569201 129.90561426 -40.78611785 117.49706548 C-40.81630509 107.90113708 -40.83108839 98.3052598 -40.83439797 88.70928484 C-40.8367458 82.98060816 -40.8456715 77.25212228 -40.87085915 71.52349663 C-40.89418983 66.12999858 -40.8983529 60.73681628 -40.88809776 55.34328079 C-40.88760348 53.36927933 -40.89389196 51.39526207 -40.90765381 49.42130852 C-41.01238113 33.5021617 -39.22275013 22.29943581 -27.76112366 10.43232727 C-19.67448957 2.93693294 -10.8105926 -0.00248563 0 0 Z " fill="#F5F7FE" transform="translate(40.41737365722656,-0.1471710205078125)"/>
<path d="M0 0 C0.86625 0.37125 1.7325 0.7425 2.625 1.125 C12.98922799 6.16705686 17.22401721 15.60824571 21 26 C22.04976964 29.14930893 22.10131595 31.38814456 22.0625 34.6875 C22.05347656 35.68136719 22.04445313 36.67523438 22.03515625 37.69921875 C22.02355469 38.45847656 22.01195312 39.21773437 22 40 C22.59039062 40.268125 23.18078125 40.53625 23.7890625 40.8125 C32.1565807 45.30671472 38.15207096 55.17011957 41 64 C41.78396299 72.14045295 42.16545716 80.23088784 37 87 C31.20548119 93.73417051 24.63787101 97.5610865 16.3125 100.1875 C15.58611328 100.43435547 14.85972656 100.68121094 14.11132812 100.93554688 C1.53088544 105.03430101 -10.90435829 105.36791811 -24 105.3125 C-24.86517242 105.31100952 -25.73034485 105.30951904 -26.62173462 105.3079834 C-69.89689804 105.1736803 -69.89689804 105.1736803 -85 91 C-85.6496875 90.3915625 -86.299375 89.783125 -86.96875 89.15625 C-91.8727343 84.08602894 -93.99097631 78.68594444 -96 72 C-96.33 71.01 -96.66 70.02 -97 69 C-98.19063248 57.38002981 -95.84770421 48.4763801 -91 38 C-90.53207031 36.98808594 -90.06414062 35.97617188 -89.58203125 34.93359375 C-79.56977478 15.21758171 -62.43268435 3.43716865 -41.921875 -3.41796875 C-27.33805138 -7.83995361 -13.96742449 -6.14566678 0 0 Z " fill="#EE3946" transform="translate(163,103)"/>
<path d="M0 0 C5.75 1.875 5.75 1.875 8 3 C7.67 5.97 7.34 8.94 7 12 C7.60328125 12.36351563 8.2065625 12.72703125 8.828125 13.1015625 C13.66949858 16.14694265 17.53843875 18.64877989 20 24 C20.4123277 26.85951939 20.29270182 29.07298183 20 32 C18 34 18 34 14.5625 34.3125 C11 34 11 34 9.125 32.9375 C7.46514955 30.07886867 7.30684971 27.25260697 7 24 C4.525 23.01 4.525 23.01 2 22 C1.491217 23.55966218 0.99336531 25.12289241 0.5 26.6875 C0.2215625 27.55761719 -0.056875 28.42773438 -0.34375 29.32421875 C-1.0278626 32.11360644 -1.42938311 34.15300328 -1 37 C0.81829847 38.91151638 0.81829847 38.91151638 3.25 40.4375 C7.77041861 43.75484657 11.43250019 46.45760644 12.37109375 52.31640625 C12.67182829 58.28553112 11.63769235 63.18311686 8 68 C3.73187085 71.39708239 0.26593905 73.15190064 -5.1875 73.0625 C-6.445625 73.041875 -7.70375 73.02125 -9 73 C-9.33 75.31 -9.66 77.62 -10 80 C-12.97 80 -15.94 80 -19 80 C-18.67 76.7 -18.34 73.4 -18 70 C-19.65 70 -21.3 70 -23 70 C-25.60546875 68.20703125 -25.60546875 68.20703125 -28.1875 65.8125 C-29.04730469 65.03519531 -29.90710938 64.25789063 -30.79296875 63.45703125 C-33.80376294 60.10519135 -34.83242613 57.3685199 -35.375 52.9375 C-35 50 -35 50 -33.375 47.625 C-30.33871982 45.54754514 -28.60745994 45.45103871 -25 46 C-22.72266168 49.41600748 -22.37220752 51.96091086 -21.7578125 55.94140625 C-21.17108789 58.18850652 -21.17108789 58.18850652 -18.9296875 59.27734375 C-18.29289062 59.51582031 -17.65609375 59.75429687 -17 60 C-16.6603981 58.12612523 -16.32861309 56.25083303 -16 54.375 C-15.814375 53.33085937 -15.62875 52.28671875 -15.4375 51.2109375 C-15.00235215 48.01726307 -14.65386652 45.20960136 -15 42 C-16.60337922 40.2133864 -16.60337922 40.2133864 -18.8125 39 C-22.62530704 36.38164756 -24.59545777 34.56476224 -26 30 C-26.73837165 24.94047611 -26.81021285 20.53969248 -24 16.125 C-20.30361623 11.74525117 -15.9972423 9.26081566 -10.26171875 8.76171875 C-7.83986485 8.75144214 -5.41814687 8.86565851 -3 9 C-2.01 6.03 -1.02 3.06 0 0 Z " fill="#FEF5F5" transform="translate(140,110)"/>
<path d="M0 0 C3.01936103 2.0847969 4.07246656 3.50134461 5.625 6.8125 C5.70703125 10.1875 5.70703125 10.1875 5.4375 13.8125 C5.09218216 18.52658247 5.09218216 18.52658247 6.984375 22.58984375 C7.54640625 22.97269531 8.1084375 23.35554688 8.6875 23.75 C9.656875 24.430625 10.62625 25.11125 11.625 25.8125 C12.0625 29.1875 12.0625 29.1875 10.625 32.8125 C4.5363146 39.07514784 -4.51678072 45.13109852 -13.375 45.8125 C-13.91125 44.905 -14.4475 43.9975 -15 43.0625 C-17.5272314 39.2716529 -20.76058235 36.70736779 -25.12109375 35.21484375 C-28.24396414 34.65738162 -31.26728825 34.68083289 -34.4375 34.6875 C-35.66597656 34.68492188 -36.89445313 34.68234375 -38.16015625 34.6796875 C-41.39285208 34.66467325 -41.39285208 34.66467325 -44.375 35.8125 C-47.55211391 27.60495572 -49.44870598 18.00312226 -46.578125 9.43359375 C-44.91404486 6.36784612 -43.28407314 4.75188209 -40.375 2.8125 C-34.84856435 3.02104474 -31.82876146 4.684188 -27.375 7.8125 C-26.54355469 7.24660156 -25.71210938 6.68070313 -24.85546875 6.09765625 C-23.76878906 5.36417969 -22.68210938 4.63070312 -21.5625 3.875 C-20.48355469 3.14410156 -19.40460938 2.41320313 -18.29296875 1.66015625 C-12.46757872 -2.0284776 -6.44020786 -2.26599906 0 0 Z " fill="#EA3A49" transform="translate(183.375,55.1875)"/>
<path d="M0 0 C0.33 0 0.66 0 1 0 C0.93039063 0.95261719 0.86078125 1.90523437 0.7890625 2.88671875 C0.10262544 9.70479995 0.10262544 9.70479995 2.37109375 15.796875 C2.92925781 16.17328125 3.48742187 16.5496875 4.0625 16.9375 C5.031875 17.618125 6.00125 18.29875 7 19 C7.4375 22.375 7.4375 22.375 6 26 C-0.0886854 32.26264784 -9.14178072 38.31859852 -18 39 C-20.475 35.04 -20.475 35.04 -23 31 C-22.443125 30.59910156 -21.88625 30.19820312 -21.3125 29.78515625 C-10.22445624 21.52531284 -4.04897096 13.15915563 0 0 Z " fill="#FB3335" transform="translate(188,62)"/>
<path d="M0 0 C1.4540625 0.86625 1.4540625 0.86625 2.9375 1.75 C3.80375 2.245 4.67 2.74 5.5625 3.25 C9.63596632 7.53785928 12.9375 13.75609763 12.9375 19.75 C11.865 19.028125 10.7925 18.30625 9.6875 17.5625 C-0.88301466 11.0575679 -10.89597962 8.78446303 -23.0625 7.75 C-23.3925 6.1 -23.7225 4.45 -24.0625 2.75 C-17.87009491 -3.07814596 -7.71193163 -3.07458067 0 0 Z " fill="#F4D7CA" transform="translate(160.0625,90.25)"/>
<path d="M0 0 C4 2 4 2 6 4 C6.27920581 6.931661 6.47713387 9.15465293 6 12 C4.25 14 4.25 14 2 15 C0.68 15 -0.64 15 -2 15 C-1.34 10.05 -0.68 5.1 0 0 Z " fill="#FA3B3F" transform="translate(134,158)"/>
<path d="M0 0 C3.0994029 3.90794279 4.13464242 6.70967334 4.0625 11.6875 C4.05347656 12.49574219 4.04445312 13.30398437 4.03515625 14.13671875 C4.02355469 14.75160156 4.01195312 15.36648437 4 16 C-3.82692308 8.59615385 -3.82692308 8.59615385 -4.1875 3.1875 C-4.125625 2.465625 -4.06375 1.74375 -4 1 C-2.68 0.67 -1.36 0.34 0 0 Z " fill="#FA3639" transform="translate(181,125)"/>
<path d="M0 0 C1.65 0.99 3.3 1.98 5 3 C2.525 11.415 2.525 11.415 0 20 C-2.85593426 14.28813149 -2.74134007 9.05706654 -1 2.9375 C-0.67 1.968125 -0.34 0.99875 0 0 Z " fill="#FD3132" transform="translate(150,60)"/>
<path d="M0 0 C-0.99 3.96 -1.98 7.92 -3 12 C-3.99 12 -4.98 12 -6 12 C-8 10 -8 10 -8.375 7.125 C-8 4 -8 4 -6.25 1.625 C-4 0 -4 0 0 0 Z " fill="#FC3537" transform="translate(133,128)"/>
<path d="M0 0 C0.66 0.33 1.32 0.66 2 1 C-0.64 3.64 -3.28 6.28 -6 9 C-6 6 -6 6 -3.5625 3.375 C-2.716875 2.59125 -1.87125 1.8075 -1 1 C-0.67 0.67 -0.34 0.34 0 0 Z " fill="#F9CFD3" transform="translate(122,121)"/>
</svg>
