<?xml version="1.0" encoding="UTF-8"?>
<svg version="1.1" xmlns="http://www.w3.org/2000/svg" width="275" height="275">
<path d="M0 0 C1.28592904 -0.00551503 1.28592904 -0.00551503 2.59783643 -0.01114148 C5.47566634 -0.02217028 8.35346012 -0.02602083 11.23130798 -0.02983093 C13.29284276 -0.03609627 15.3543764 -0.04274314 17.41590881 -0.04974365 C24.19152541 -0.07078091 30.96714223 -0.08114684 37.74278259 -0.09111023 C40.07659352 -0.09515814 42.41040433 -0.09927507 44.74421501 -0.10346031 C55.71073281 -0.12251251 66.67724388 -0.13674258 77.64377505 -0.14507228 C90.29462737 -0.15484032 102.94530453 -0.18114854 115.59609514 -0.22157317 C125.37885849 -0.25175819 135.1615717 -0.2665435 144.9443807 -0.26985329 C150.78483854 -0.27220136 156.62510924 -0.28113016 162.46551704 -0.30631447 C167.96407263 -0.32964127 173.4623185 -0.33380975 178.9609108 -0.32355309 C180.97361343 -0.32305871 182.98633154 -0.32934992 184.9989872 -0.34310913 C201.04216034 -0.44660501 212.33135108 1.24616713 224.29747009 12.80342102 C231.79286443 20.89005511 234.732283 29.75395208 234.72979736 40.56454468 C234.73347405 41.4218307 234.73715074 42.27911672 234.74093884 43.16238111 C234.75196764 46.04021101 234.75581819 48.9180048 234.7596283 51.79585266 C234.76589363 53.85738744 234.7725405 55.91892108 234.77954102 57.98045349 C234.80057828 64.75607009 234.8109442 71.5316869 234.82090759 78.30732727 C234.8249555 80.6411382 234.82907243 82.974949 234.83325768 85.30875969 C234.85230988 96.27527749 234.86653995 107.24178856 234.87486964 118.20831972 C234.88463768 130.85917205 234.9109459 143.50984921 234.95137054 156.16063982 C234.98155555 165.94340317 234.99634086 175.72611638 234.99965066 185.50892538 C235.00199872 191.34938322 235.01092752 197.18965392 235.03611183 203.03006172 C235.05943864 208.52861731 235.06360712 214.02686318 235.05335045 219.52545547 C235.05285608 221.5381581 235.05914728 223.55087622 235.07290649 225.56353188 C235.17640237 241.60670501 233.48363024 252.89589576 221.92637634 264.86201477 C213.83974225 272.3574091 204.97584528 275.29682767 194.16525269 275.29434204 C192.87932365 275.29985707 192.87932365 275.29985707 191.56741625 275.30548352 C188.68958635 275.31651232 185.81179257 275.32036287 182.9339447 275.32417297 C180.87240993 275.33043831 178.81087628 275.33708518 176.74934387 275.34408569 C169.97372727 275.36512295 163.19811046 275.37548888 156.42247009 275.38545227 C154.08865917 275.38950018 151.75484836 275.39361711 149.42103767 275.39780235 C138.45451988 275.41685456 127.48800881 275.43108462 116.52147764 275.43941432 C103.87062531 275.44918236 91.21994816 275.47549058 78.56915754 275.51591522 C68.7863942 275.54610023 59.00368099 275.56088554 49.22087198 275.56419533 C43.38041415 275.5665434 37.54014344 275.5754722 31.69973564 275.60065651 C26.20118005 275.62398332 20.70293419 275.6281518 15.20434189 275.61789513 C13.19163926 275.61740075 11.17892115 275.62369196 9.16626549 275.63745117 C-6.87690765 275.74094705 -18.1660984 274.04817492 -30.13221741 262.49092102 C-37.62761174 254.40428693 -40.56703031 245.54038996 -40.56454468 234.72979736 C-40.56822137 233.87251134 -40.57189805 233.01522532 -40.57568616 232.13196093 C-40.58671495 229.25413103 -40.59056551 226.37633725 -40.59437561 223.49848938 C-40.60064095 221.4369546 -40.60728781 219.37542096 -40.61428833 217.31388855 C-40.63532559 210.53827195 -40.64569152 203.76265514 -40.65565491 196.98701477 C-40.65970281 194.65320384 -40.66381975 192.31939304 -40.66800499 189.98558235 C-40.68705719 179.01906455 -40.70128726 168.05255348 -40.70961696 157.08602232 C-40.719385 144.43516999 -40.74569322 131.78449284 -40.78611785 119.13370222 C-40.81630287 109.35093887 -40.83108817 99.56822567 -40.83439797 89.78541666 C-40.83674604 83.94495882 -40.84567483 78.10468812 -40.87085915 72.26428032 C-40.89418595 66.76572473 -40.89835443 61.26747887 -40.88809776 55.76888657 C-40.88760339 53.75618394 -40.8938946 51.74346582 -40.90765381 49.73081017 C-41.01114969 33.68763703 -39.31837755 22.39844628 -27.76112366 10.43232727 C-19.67448957 2.93693294 -10.8105926 -0.00248563 0 0 Z " fill="#F5F7FE" transform="translate(40.41737365722656,-0.1471710205078125)"/>
<path d="M0 0 C1.49696411 -0.02078613 1.49696411 -0.02078613 3.02416992 -0.04199219 C11.82300377 0.01359941 19.6281184 1.71560589 27.1875 6.375 C28.01378906 6.87 28.84007812 7.365 29.69140625 7.875 C31.625 9.375 31.625 9.375 32.625 12.375 C33.470625 12.41625 34.31625 12.4575 35.1875 12.5 C40.70711608 13.90499318 44.03975143 16.91369302 47.109375 21.6796875 C51.64231377 30.23894248 52.80310223 37.99614959 53 47.5625 C53.02618408 48.33529297 53.05236816 49.10808594 53.0793457 49.90429688 C53.09523719 55.36155161 51.79579237 57.83582385 48.625 62.375 C48.04496468 65.08365552 47.62881307 67.52150946 47.375 70.25 C47.29765625 70.93835938 47.2203125 71.62671875 47.140625 72.3359375 C46.95416598 74.01406865 46.78750271 75.69437988 46.625 77.375 C45.305 76.055 43.985 74.735 42.625 73.375 C42.59583496 74.17083496 42.56666992 74.96666992 42.53662109 75.78662109 C42.38633426 79.44289262 42.19348073 83.09576966 42 86.75 C41.95488281 88.00167969 41.90976563 89.25335938 41.86328125 90.54296875 C41.38997832 98.76122863 40.01484255 104.97048659 34.625 111.375 C33.90779785 111.9114917 33.1905957 112.4479834 32.45166016 113.00073242 C30.3841564 114.22955398 30.3841564 114.22955398 30.234375 116.63671875 C30.28078125 117.43722656 30.3271875 118.23773438 30.375 119.0625 C30.41109375 119.87074219 30.4471875 120.67898437 30.484375 121.51171875 C30.53078125 122.12660156 30.5771875 122.74148437 30.625 123.375 C31.945 123.375 33.265 123.375 34.625 123.375 C36.07421875 125.01953125 36.07421875 125.01953125 37.3125 127.1875 C37.72886719 127.89519531 38.14523438 128.60289062 38.57421875 129.33203125 C39.625 131.375 39.625 131.375 40.625 134.375 C43.24099305 135.17127207 45.71251299 135.76259516 48.38671875 136.27734375 C49.17013138 136.44118057 49.95354401 136.6050174 50.76069641 136.77381897 C53.27554706 137.29938734 55.79336283 137.80790402 58.3125 138.3125 C61.61138083 138.97329326 64.90602849 139.65131408 68.19921875 140.33984375 C68.95257004 140.48477768 69.70592133 140.62971161 70.48210144 140.77903748 C75.30156693 141.78841607 78.62427908 143.36373277 82.625 146.375 C83.388125 146.890625 84.15125 147.40625 84.9375 147.9375 C86.625 149.375 86.625 149.375 87.625 152.375 C87.83036758 156.78988531 87.81080145 161.20714028 87.81030273 165.6262207 C87.81248859 167.80114324 87.83065497 169.97555783 87.84960938 172.15039062 C87.85254373 173.5364566 87.85452824 174.92252498 87.85546875 176.30859375 C87.85957764 177.56728271 87.86368652 178.82597168 87.86791992 180.12280273 C87.63947065 183.1812678 87.34043165 184.87142763 85.625 187.375 C82.75174014 188.81162993 80.28392878 188.51095929 77.07144165 188.52217102 C76.39060182 188.52584771 75.70976199 188.5295244 75.00829065 188.5333125 C72.71596878 188.5443678 70.42369222 188.54819626 68.13134766 188.55200195 C66.49224198 188.55826512 64.85313772 188.56491179 63.21403503 188.57191467 C58.7532883 188.58933594 54.29255229 188.59987912 49.83177996 188.6081202 C47.04671955 188.6132671 44.2616625 188.61934292 41.47660446 188.62563133 C32.76811008 188.64468503 24.05962419 188.65891679 15.35111296 188.6672433 C5.28840367 188.67702277 -4.77408607 188.70336 -14.83671796 188.74374419 C-22.60830831 188.773867 -30.37983557 188.78870845 -38.15148318 188.79202431 C-42.7962515 188.79437885 -47.44078531 188.80339166 -52.08549118 188.82848549 C-56.45381389 188.85170484 -60.82174664 188.85602438 -65.19011497 188.84572411 C-66.79455675 188.84522716 -68.39901732 188.85159418 -70.0034008 188.86528015 C-72.19189667 188.88290633 -74.3789789 188.87594058 -76.56747437 188.86274719 C-77.79270498 188.86513555 -79.0179356 188.8675239 -80.28029442 188.86998463 C-83.98698087 188.27711633 -85.17439839 187.37185869 -87.375 184.375 C-87.73711482 181.72770556 -87.86753021 179.50847453 -87.80078125 176.87109375 C-87.79749313 176.15139908 -87.79420502 175.43170441 -87.79081726 174.69020081 C-87.78041845 173.17301349 -87.76050553 171.65586529 -87.73168945 170.13891602 C-87.68758543 167.81699761 -87.67024588 165.49611377 -87.65820312 163.17382812 C-87.64477915 161.69790176 -87.6298562 160.2219881 -87.61328125 158.74609375 C-87.60589432 158.05229111 -87.59850739 157.35848846 -87.59089661 156.6436615 C-87.5310757 153.62565104 -87.33699886 151.26099659 -86.375 148.375 C-85.385 148.375 -84.395 148.375 -83.375 148.375 C-83.045 147.385 -82.715 146.395 -82.375 145.375 C-77.91031308 142.62132827 -73.32774778 141.54342775 -68.23828125 140.578125 C-66.67616017 140.25652733 -65.11431846 139.93357016 -63.55273438 139.609375 C-61.11260635 139.11095749 -58.67192324 138.62203447 -56.2253418 138.15625 C-53.84816499 137.69923794 -51.4814496 137.20446076 -49.11328125 136.703125 C-48.38200516 136.57367493 -47.65072906 136.44422485 -46.89729309 136.31085205 C-44.54466883 135.86033335 -44.54466883 135.86033335 -41.375 134.375 C-39.42691808 130.96724034 -39.42691808 130.96724034 -38.375 127.375 C-36.4375 124.9375 -36.4375 124.9375 -34.375 123.375 C-33.055 123.375 -31.735 123.375 -30.375 123.375 C-30.44635993 119.97567261 -30.64628813 116.70172811 -31.375 113.375 C-33.66036927 111.17995512 -33.66036927 111.17995512 -36.375 109.375 C-40.91260261 102.33535483 -41.20785661 95.60489148 -41.625 87.375 C-41.70234375 86.12332031 -41.7796875 84.87164062 -41.859375 83.58203125 C-42.04676085 80.5135879 -42.21817849 77.44513161 -42.375 74.375 C-43.695 75.365 -45.015 76.355 -46.375 77.375 C-46.48457031 76.75753906 -46.59414062 76.14007813 -46.70703125 75.50390625 C-48.02551044 68.4612979 -49.35636169 61.40295747 -53.375 55.375 C-54.80236115 42.67899815 -52.72810877 30.72603154 -44.875 20.3125 C-42.19697743 17.17153699 -39.38297721 14.20067556 -36.375 11.375 C-37.365 10.715 -38.355 10.055 -39.375 9.375 C-39.375 8.715 -39.375 8.055 -39.375 7.375 C-26.44321532 1.97762377 -13.90176257 0.11532302 0 0 Z " fill="#F6DDCD" transform="translate(136.375,41.625)"/>
<path d="M0 0 C4.21809743 0.79586744 5.45312066 2.41668481 8.27734375 5.5078125 C10.55845227 7.88086589 12.99179972 9.88240248 15.5625 11.9375 C21.36843807 16.60801884 26.84848247 21.56259304 32.3125 26.625 C37.00930921 25.17782816 39.99008712 22.41436777 43.4375 19.0625 C49.17961332 13.61641429 55.08738474 8.5198736 61.3125 3.625 C62.03308594 3.05007812 62.75367188 2.47515625 63.49609375 1.8828125 C65.3125 0.625 65.3125 0.625 67.3125 0.5625 C71.21889076 2.63777009 72.96024415 6.56823245 74.3125 10.625 C76.92849305 11.42127207 79.40001299 12.01259516 82.07421875 12.52734375 C82.85763138 12.69118057 83.64104401 12.8550174 84.44819641 13.02381897 C86.96304706 13.54938734 89.48086283 14.05790402 92 14.5625 C95.29888083 15.22329326 98.59352849 15.90131408 101.88671875 16.58984375 C102.64007004 16.73477768 103.39342133 16.87971161 104.16960144 17.02903748 C108.98906693 18.03841607 112.31177908 19.61373277 116.3125 22.625 C117.075625 23.140625 117.83875 23.65625 118.625 24.1875 C120.3125 25.625 120.3125 25.625 121.3125 28.625 C121.51786758 33.03988531 121.49830145 37.45714028 121.49780273 41.8762207 C121.49998859 44.05114324 121.51815497 46.22555783 121.53710938 48.40039062 C121.54004373 49.7864566 121.54202824 51.17252498 121.54296875 52.55859375 C121.54707764 53.81728271 121.55118652 55.07597168 121.55541992 56.37280273 C121.32697065 59.4312678 121.02793165 61.12142763 119.3125 63.625 C116.43924014 65.06162993 113.97142878 64.76095929 110.75894165 64.77217102 C110.07810182 64.77584771 109.39726199 64.7795244 108.69579065 64.7833125 C106.40346878 64.7943678 104.11119222 64.79819626 101.81884766 64.80200195 C100.17974198 64.80826512 98.54063772 64.81491179 96.90153503 64.82191467 C92.4407883 64.83933594 87.98005229 64.84987912 83.51927996 64.8581202 C80.73421955 64.8632671 77.9491625 64.86934292 75.16410446 64.87563133 C66.45561008 64.89468503 57.74712419 64.90891679 49.03861296 64.9172433 C38.97590367 64.92702277 28.91341393 64.95336 18.85078204 64.99374419 C11.07919169 65.023867 3.30766443 65.03870845 -4.46398318 65.04202431 C-9.1087515 65.04437885 -13.75328531 65.05339166 -18.39799118 65.07848549 C-22.76631389 65.10170484 -27.13424664 65.10602438 -31.50261497 65.09572411 C-33.10705675 65.09522716 -34.71151732 65.10159418 -36.3159008 65.11528015 C-38.50439667 65.13290633 -40.6914789 65.12594058 -42.87997437 65.11274719 C-44.10520498 65.11513555 -45.3304356 65.1175239 -46.59279442 65.11998463 C-50.29948087 64.52711633 -51.48689839 63.62185869 -53.6875 60.625 C-54.04961482 57.97770556 -54.18003021 55.75847453 -54.11328125 53.12109375 C-54.10999313 52.40139908 -54.10670502 51.68170441 -54.10331726 50.94020081 C-54.09291845 49.42301349 -54.07300553 47.90586529 -54.04418945 46.38891602 C-54.00008543 44.06699761 -53.98274588 41.74611377 -53.97070312 39.42382812 C-53.95727915 37.94790176 -53.9423562 36.4719881 -53.92578125 34.99609375 C-53.91839432 34.30229111 -53.91100739 33.60848846 -53.90339661 32.8936615 C-53.8435757 29.87565104 -53.64949886 27.51099659 -52.6875 24.625 C-51.6975 24.625 -50.7075 24.625 -49.6875 24.625 C-49.3575 23.635 -49.0275 22.645 -48.6875 21.625 C-44.22281308 18.87132827 -39.64024778 17.79342775 -34.55078125 16.828125 C-32.98866017 16.50652733 -31.42681846 16.18357016 -29.86523438 15.859375 C-27.42510635 15.36095749 -24.98442324 14.87203447 -22.5378418 14.40625 C-20.16066499 13.94923794 -17.7939496 13.45446076 -15.42578125 12.953125 C-14.69450516 12.82367493 -13.96322906 12.69422485 -13.20979309 12.56085205 C-10.85716883 12.11033335 -10.85716883 12.11033335 -7.6875 10.625 C-5.73590162 7.24345628 -5.73590162 7.24345628 -4.6875 3.625 C-2.6875 0.625 -2.6875 0.625 0 0 Z " fill="#FB3335" transform="translate(102.6875,165.375)"/>
<path d="M0 0 C1.49696411 -0.02078613 1.49696411 -0.02078613 3.02416992 -0.04199219 C11.82300377 0.01359941 19.6281184 1.71560589 27.1875 6.375 C28.01378906 6.87 28.84007812 7.365 29.69140625 7.875 C31.625 9.375 31.625 9.375 32.625 12.375 C33.470625 12.41625 34.31625 12.4575 35.1875 12.5 C40.70711608 13.90499318 44.03975143 16.91369302 47.109375 21.6796875 C51.64231377 30.23894248 52.80310223 37.99614959 53 47.5625 C53.02618408 48.33529297 53.05236816 49.10808594 53.0793457 49.90429688 C53.09523719 55.36155161 51.79579237 57.83582385 48.625 62.375 C48.04496468 65.08365552 47.62881307 67.52150946 47.375 70.25 C47.29765625 70.93835938 47.2203125 71.62671875 47.140625 72.3359375 C46.95416598 74.01406865 46.78750271 75.69437988 46.625 77.375 C41.48527006 72.5897342 39.40405288 68.82362777 38.75 61.8125 C37.6303134 52.9389837 35.42132295 44.53507144 28.625 38.375 C27.87734375 38.57996094 27.1296875 38.78492188 26.359375 38.99609375 C25.37453125 39.26550781 24.3896875 39.53492188 23.375 39.8125 C22.40046875 40.07933594 21.4259375 40.34617188 20.421875 40.62109375 C19.49890625 40.86988281 18.5759375 41.11867187 17.625 41.375 C17.06675537 41.55643555 16.50851074 41.73787109 15.93334961 41.92480469 C12.58783204 42.57727792 9.28458729 42.41579838 5.89453125 42.33203125 C4.35352871 42.30962769 2.81251213 42.28817398 1.27148438 42.26757812 C-1.14012204 42.23064956 -3.5509994 42.18778433 -5.9621582 42.12817383 C-16.40673597 41.88238117 -24.71649578 41.9466054 -33.25 48.625 C-37.4809628 54.10036363 -38.42466464 58.76372341 -38.625 65.5 C-38.91194588 70.77179632 -38.91194588 70.77179632 -40.98828125 73.4765625 C-42.72176821 74.94255748 -44.42594119 76.21472478 -46.375 77.375 C-46.48457031 76.75753906 -46.59414062 76.14007813 -46.70703125 75.50390625 C-48.02551044 68.4612979 -49.35636169 61.40295747 -53.375 55.375 C-54.80236115 42.67899815 -52.72810877 30.72603154 -44.875 20.3125 C-42.19697743 17.17153699 -39.38297721 14.20067556 -36.375 11.375 C-37.365 10.715 -38.355 10.055 -39.375 9.375 C-39.375 8.715 -39.375 8.055 -39.375 7.375 C-26.44321532 1.97762377 -13.90176257 0.11532302 0 0 Z " fill="#262625" transform="translate(136.375,41.625)"/>
<path d="M0 0 C-1.34855767 0.80118392 -2.70421743 1.59041608 -4.0625 2.375 C-4.81660156 2.81585938 -5.57070312 3.25671875 -6.34765625 3.7109375 C-13.7422742 7.30478717 -21.3820289 7.59160955 -29.4375 8.12304688 C-36.21897855 8.61770914 -36.21897855 8.61770914 -42 12 C-43.73248926 14.8732316 -44.25915316 17.04258549 -44.30639648 20.37866211 C-44.32238388 21.23733383 -44.33837128 22.09600555 -44.35484314 22.98069763 C-44.36020584 23.90359085 -44.36556854 24.82648407 -44.37109375 25.77734375 C-44.38012222 26.73967422 -44.3891507 27.7020047 -44.39845276 28.6934967 C-44.41295829 30.73353978 -44.42184275 32.77362941 -44.42553711 34.8137207 C-44.43733925 37.89552523 -44.48644104 40.97526421 -44.53710938 44.05664062 C-44.64548866 57.14609547 -43.98805264 67.90624589 -35.625 78.625 C-30.69224819 83.63169028 -26.01122074 85.14942489 -19.0625 85.4375 C-9.96614184 85.16596692 -4.65908188 81.00295536 2.21484375 75.390625 C4 74 4 74 5 74 C5.495 78.455 5.495 78.455 6 83 C7.98 83.495 7.98 83.495 10 84 C9.10667969 84.40992188 8.21335937 84.81984375 7.29296875 85.2421875 C4.10879803 86.94192276 1.91912231 88.65556834 -0.6875 91.125 C-5.13343419 95.24284567 -9.72873111 99.10156496 -14.4375 102.9140625 C-17.67739086 105.55141268 -20.84317799 108.26408759 -24 111 C-27.67956291 109.43767979 -30.16515793 107.16415918 -33.0625 104.4375 C-37.72362154 100.1195668 -42.51750643 96.06293892 -47.4921875 92.10546875 C-50 90 -50 90 -52.67578125 87.3203125 C-54.76199982 85.23760018 -56.30401639 84.09836369 -59 83 C-57.68 83 -56.36 83 -55 83 C-55.07135993 79.60067261 -55.27128813 76.32672811 -56 73 C-58.28536927 70.80495512 -58.28536927 70.80495512 -61 69 C-67.08808855 60.66152889 -66.06698176 50.19748798 -66.125 40.375 C-66.12983398 39.56820801 -66.13466797 38.76141602 -66.13964844 37.93017578 C-66.12224827 32.12224827 -66.12224827 32.12224827 -65 31 C-64.61789872 27.75403069 -64.28061959 24.51126823 -64.01367188 21.25390625 C-63.34994625 14.9220813 -61.33981662 10.33981662 -56.75 5.75 C-50.53246691 1.79338804 -45.01726032 0.55402233 -37.80859375 0.77734375 C-36.68518333 0.79082603 -36.68518333 0.79082603 -35.53907776 0.80458069 C-33.1713861 0.83430932 -30.80476593 0.88405575 -28.4375 0.9375 C-26.06674037 0.98558696 -23.69626065 1.02890394 -21.32521057 1.05970764 C-19.85802347 1.07921482 -18.39092031 1.10854974 -16.92417908 1.14964294 C-11.23455408 1.23261231 -5.29035312 -2.11614125 0 0 Z " fill="#F0D3B6" transform="translate(161,82)"/>
<path d="M0 0 C0.495 4.455 0.495 4.455 1 9 C2.32 9.33 3.64 9.66 5 10 C4.10667969 10.40992188 3.21335938 10.81984375 2.29296875 11.2421875 C-0.89120197 12.94192276 -3.08087769 14.65556834 -5.6875 17.125 C-10.13343419 21.24284567 -14.72873111 25.10156496 -19.4375 28.9140625 C-22.67739086 31.55141268 -25.84317799 34.26408759 -29 37 C-32.67956291 35.43767979 -35.16515793 33.16415918 -38.0625 30.4375 C-41.89729229 26.87992161 -45.78127022 23.51279681 -49.875 20.25 C-57.81770357 13.7410796 -57.81770357 13.7410796 -60 10 C-60.08720281 6.89147621 -59.67963762 4.02808842 -59 1 C-55.61092212 2.59816705 -52.521177 4.53147738 -49.375 6.5625 C-42.53518082 10.9726247 -38.47563199 11.24077067 -30.375 11.3125 C-29.30636719 11.34150391 -28.23773438 11.37050781 -27.13671875 11.40039062 C-17.80364797 11.47500927 -12.22427886 9.14053165 -5.0625 3.25 C-1.08193277 0 -1.08193277 0 0 0 Z " fill="#E4BB9A" transform="translate(166,156)"/>
<path d="M0 0 C4.23123105 1.72810179 7.35643501 4.71336439 10.75 7.6875 C11.68054199 8.49670898 11.68054199 8.49670898 12.62988281 9.32226562 C13.86129529 10.39356233 15.09147231 11.46628105 16.3203125 12.54052734 C17.74309474 13.77677622 19.18231904 14.99406289 20.625 16.20703125 C21.32625 16.79871094 22.0275 17.39039063 22.75 18 C23.34296875 18.495 23.9359375 18.99 24.546875 19.5 C27.15239131 22.18956523 28 24.26198542 28 28 C28.66 28 29.32 28 30 28 C30 31.96 30 35.92 30 40 C25.58268479 40.1077394 21.16798606 40.18720629 16.75 40.25 C14.86861328 40.30027344 14.86861328 40.30027344 12.94921875 40.3515625 C11.14130859 40.37089844 11.14130859 40.37089844 9.296875 40.390625 C7.63156738 40.4220459 7.63156738 40.4220459 5.93261719 40.45410156 C3 40 3 40 0.63305664 38.44458008 C-1.56357053 35.1563714 -1.52243106 32.31491483 -1.42578125 28.49609375 C-1.42249313 27.77639908 -1.41920502 27.05670441 -1.41581726 26.31520081 C-1.40541845 24.79801349 -1.38550553 23.28086529 -1.35668945 21.76391602 C-1.31258543 19.44199761 -1.29524588 17.12111377 -1.28320312 14.79882812 C-1.26977915 13.32290176 -1.2548562 11.8469881 -1.23828125 10.37109375 C-1.23089432 9.67729111 -1.22350739 8.98348846 -1.21589661 8.2686615 C-1.1560757 5.25065104 -0.96199886 2.88599659 0 0 Z " fill="#E54B5F" transform="translate(50,190)"/>
<path d="M0 0 C0.99 0.33 1.98 0.66 3 1 C4.73557918 6.20673755 4.18591795 11.79982526 4.18530273 17.2512207 C4.18748859 19.42614324 4.20565497 21.60055783 4.22460938 23.77539062 C4.22754373 25.1614566 4.22952824 26.54752498 4.23046875 27.93359375 C4.23457764 29.19228271 4.23868652 30.45097168 4.24291992 31.74780273 C4.01447065 34.8062678 3.71543165 36.49642763 2 39 C-0.76617563 40.38308781 -3.01018 40.11210196 -6.1015625 40.09765625 C-7.91914063 40.09282227 -7.91914063 40.09282227 -9.7734375 40.08789062 C-11.04445312 40.07951172 -12.31546875 40.07113281 -13.625 40.0625 C-14.90375 40.05798828 -16.1825 40.05347656 -17.5 40.04882812 C-20.66671292 40.03701203 -23.83333356 40.02053815 -27 40 C-26.70709845 30.2610235 -26.16825029 24.3349803 -19.265625 17.15625 C-18.26918984 16.26097159 -17.26370432 15.37567689 -16.25 14.5 C-15.7235791 14.03295654 -15.1971582 13.56591309 -14.65478516 13.0847168 C-13.60122394 12.15187948 -12.54416918 11.22297065 -11.48339844 10.29833984 C-10.14482859 9.12676077 -8.82509446 7.93374559 -7.5078125 6.73828125 C-2.26014199 2 -2.26014199 2 0 2 C0 1.34 0 0.68 0 0 Z " fill="#E54C61" transform="translate(220,190)"/>
<path d="M0 0 C7.40281755 2.51695797 11.16497214 6.4610177 14.75 13.375 C17.30974299 20.79825468 18.22827433 27.3937777 18.375 35.1875 C18.41403442 36.3463269 18.41403442 36.3463269 18.45385742 37.52856445 C18.47092189 42.98625271 17.17092563 45.46063309 14 50 C13.41996468 52.70865552 13.00381307 55.14650946 12.75 57.875 C12.67265625 58.56335938 12.5953125 59.25171875 12.515625 59.9609375 C12.32916598 61.63906865 12.16250271 63.31937988 12 65 C6.86027006 60.2147342 4.77905288 56.44862777 4.125 49.4375 C3.0053134 40.5639837 0.79632295 32.16007144 -6 26 C-5 23 -5 23 -2.5 20.5625 C1.08501506 16.88785957 1.14025217 14.00271133 1.125 9 C1.12886719 7.7315625 1.12886719 7.7315625 1.1328125 6.4375 C1.00833711 4.15301056 0.63877457 2.19008426 0 0 Z " fill="#434343" transform="translate(171,54)"/>
<path d="M0 0 C4.21809743 0.79586744 5.45312066 2.41668481 8.27734375 5.5078125 C10.55845227 7.88086589 12.99179972 9.88240248 15.5625 11.9375 C21.36843807 16.60801884 26.84848247 21.56259304 32.3125 26.625 C28.36070014 29.82693271 24.34361469 32.9204669 20.25 35.9375 C19.33250977 36.63842773 19.33250977 36.63842773 18.39648438 37.35351562 C13.93016838 40.62237609 13.93016838 40.62237609 11.30102539 40.63354492 C8.16129021 39.04112675 7.58334737 36.61861832 6.21875 33.4375 C5.9453479 32.81979736 5.6719458 32.20209473 5.39025879 31.56567383 C4.22098335 28.92266065 3.08664331 26.26502932 1.94873047 23.60839844 C1.11306248 21.67101695 0.26021126 19.74187114 -0.59375 17.8125 C-1.09197266 16.65105469 -1.59019531 15.48960937 -2.10351562 14.29296875 C-3.40936671 11.47977059 -3.40936671 11.47977059 -5.88085938 10.73828125 C-6.47705078 10.70089844 -7.07324219 10.66351563 -7.6875 10.625 C-3.62727659 0.8435527 -3.62727659 0.8435527 0 0 Z " fill="#D85371" transform="translate(102.6875,165.375)"/>
<path d="M0 0 C3.69059914 1.96063079 5.52073259 5.54481988 6.75 9.4375 C6.8325 9.97375 6.915 10.51 7 11.0625 C5.68 11.0625 4.36 11.0625 3 11.0625 C2.65582031 12.21492187 2.65582031 12.21492187 2.3046875 13.390625 C0.5438114 18.34638409 -1.64228032 23.05413824 -3.875 27.8125 C-4.52662109 29.24916016 -4.52662109 29.24916016 -5.19140625 30.71484375 C-5.62066406 31.62878906 -6.04992187 32.54273438 -6.4921875 33.484375 C-6.87745605 34.31549805 -7.26272461 35.14662109 -7.65966797 36.00292969 C-9.18883199 38.35266151 -10.41845309 39.0627062 -13 40.0625 C-13.94101563 39.37542969 -14.88203125 38.68835938 -15.8515625 37.98046875 C-17.10920886 37.07008295 -18.36703072 36.15993955 -19.625 35.25 C-20.24246094 34.79818359 -20.85992187 34.34636719 -21.49609375 33.88085938 C-25.1919139 31.21597853 -28.84706439 28.98562864 -33 27.0625 C-24.50588765 18.47705311 -15.46284749 10.5622284 -6 3.0625 C-4.91525391 2.19625 -4.91525391 2.19625 -3.80859375 1.3125 C-2 0.0625 -2 0.0625 0 0 Z " fill="#D55373" transform="translate(170,165.9375)"/>
<path d="M0 0 C0.33 0 0.66 0 1 0 C1.495 4.455 1.495 4.455 2 9 C3.32 9.33 4.64 9.66 6 10 C5.10667969 10.40992188 4.21335938 10.81984375 3.29296875 11.2421875 C0.10879803 12.94192276 -2.08087769 14.65556834 -4.6875 17.125 C-9.13343419 21.24284567 -13.72873111 25.10156496 -18.4375 28.9140625 C-21.67739086 31.55141268 -24.84317799 34.26408759 -28 37 C-31.89332736 35.36851044 -34.64719075 32.82372058 -37.75 30 C-38.25660156 29.54882812 -38.76320313 29.09765625 -39.28515625 28.6328125 C-40.56545817 27.46639188 -41.78791729 26.23716029 -43 25 C-43 24.34 -43 23.68 -43 23 C-41.91203125 22.85304687 -40.8240625 22.70609375 -39.703125 22.5546875 C-24.48359683 20.31442579 -13.01462074 14.87110776 -2 4 C-0.67381042 1.8461742 -0.67381042 1.8461742 0 0 Z " fill="#ECC7AE" transform="translate(165,156)"/>
</svg>
